<svg width="235" height="176" viewBox="0 0 235 176" fill="none" xmlns="http://www.w3.org/2000/svg">
<path d="M234.47 175.926H1.20502C0.929017 175.926 0.705017 175.702 0.705017 175.426C0.705017 175.15 0.929017 174.926 1.20502 174.926H234.47C234.746 174.926 234.97 175.15 234.97 175.426C234.97 175.702 234.746 175.926 234.47 175.926Z" fill="#12374F"/>
<path d="M154.791 174.44H152.937L149.634 132.709H151.489L154.791 174.44Z" fill="white"/>
<path d="M154.791 174.939H152.937C152.676 174.939 152.46 174.738 152.439 174.479L149.136 132.749C149.124 132.61 149.172 132.473 149.267 132.37C149.362 132.268 149.494 132.209 149.634 132.209H151.489C151.75 132.209 151.967 132.41 151.987 132.669L155.289 174.399C155.301 174.538 155.253 174.675 155.158 174.778C155.064 174.881 154.931 174.939 154.791 174.939ZM153.398 173.939H154.25L151.027 133.209H150.175L153.398 173.939Z" fill="#12374F"/>
<path d="M133.357 174.44H131.502L128.199 132.709H130.054L133.357 174.44Z" fill="white"/>
<path d="M133.356 174.939H131.502C131.241 174.939 131.024 174.738 131.003 174.479L127.701 132.749C127.69 132.61 127.738 132.473 127.832 132.37C127.927 132.268 128.06 132.209 128.199 132.209H130.053C130.314 132.209 130.531 132.41 130.552 132.669L133.854 174.399C133.866 174.538 133.818 174.675 133.723 174.778C133.629 174.881 133.496 174.939 133.356 174.939ZM131.964 173.939H132.816L129.593 133.209H128.741L131.964 173.939Z" fill="#12374F"/>
<path d="M107.489 174.44H109.343L112.646 132.709H110.791L107.489 174.44Z" fill="white"/>
<path d="M109.343 174.939H107.489C107.349 174.939 107.217 174.881 107.122 174.778C107.027 174.676 106.98 174.538 106.991 174.399L110.293 132.669C110.314 132.409 110.531 132.209 110.792 132.209H112.647C112.787 132.209 112.919 132.267 113.014 132.37C113.109 132.473 113.156 132.61 113.145 132.749L109.842 174.479C109.821 174.739 109.604 174.939 109.343 174.939ZM108.03 173.939H108.882L112.106 133.209H111.254L108.03 173.939Z" fill="#12374F"/>
<path d="M128.923 174.44H130.778L134.081 132.709H132.226L128.923 174.44Z" fill="white"/>
<path d="M130.778 174.939H128.923C128.783 174.939 128.651 174.881 128.556 174.778C128.461 174.676 128.414 174.538 128.425 174.399L131.727 132.669C131.748 132.409 131.965 132.209 132.226 132.209H134.081C134.221 132.209 134.353 132.267 134.448 132.37C134.543 132.473 134.59 132.61 134.579 132.749L131.277 174.479C131.256 174.739 131.039 174.939 130.778 174.939ZM129.464 173.939H130.316L133.539 133.209H132.687L129.464 173.939Z" fill="#12374F"/>
<path d="M154.58 127.591L160.686 94.716C161.047 92.772 159.555 90.978 157.578 90.978H135.348C133.786 90.978 132.459 92.119 132.223 93.662L127.068 127.453L154.58 127.591Z" fill="white"/>
<path d="M154.58 128.091H154.577L127.066 127.953C126.92 127.952 126.783 127.889 126.689 127.778C126.594 127.668 126.553 127.522 126.575 127.378L131.73 93.587C132.005 91.785 133.527 90.478 135.349 90.478H157.579C158.67 90.478 159.696 90.959 160.394 91.798C161.091 92.637 161.377 93.734 161.178 94.808L155.072 127.683C155.027 127.919 154.821 128.091 154.58 128.091ZM127.65 126.956L154.165 127.089L160.195 94.625C160.34 93.845 160.132 93.047 159.624 92.437C159.117 91.827 158.371 91.477 157.578 91.477H135.348C134.024 91.477 132.918 92.428 132.718 93.737L127.65 126.956Z" fill="#12374F"/>
<path d="M154.58 127.591H108.021V133.945H154.58V127.591Z" fill="white"/>
<path d="M154.58 134.445H108.02C107.744 134.445 107.52 134.221 107.52 133.945V127.591C107.52 127.315 107.744 127.091 108.02 127.091H154.58C154.856 127.091 155.08 127.315 155.08 127.591V133.945C155.08 134.222 154.856 134.445 154.58 134.445ZM108.521 133.445H154.081V128.091H108.521V133.445Z" fill="#12374F"/>
<path d="M139.484 70.7211L134.329 71.8091L129.173 70.7211L118.042 75.8491L119.754 109.612H148.904L150.629 75.8491L139.484 70.7211Z" fill="#1E90FF"/>
<path d="M148.903 110.112H119.754C119.488 110.112 119.268 109.904 119.254 109.637L117.542 75.8741C117.532 75.6701 117.647 75.4801 117.833 75.3951L128.964 70.2671C129.061 70.2221 129.17 70.2081 129.276 70.2321L134.329 71.2981L139.381 70.2321C139.487 70.2111 139.597 70.2231 139.694 70.2671L150.839 75.3951C151.025 75.4811 151.14 75.6701 151.129 75.8741L149.403 109.637C149.389 109.903 149.17 110.112 148.903 110.112ZM120.229 109.112H148.428L150.113 76.1621L139.426 71.2451L134.433 72.2991C134.365 72.3141 134.294 72.3141 134.226 72.2991L129.232 71.2451L118.559 76.1621L120.229 109.112Z" fill="#12374F"/>
<path d="M145.943 82.354L145.486 97.288L149.941 100.908L153.635 98.422C153.635 98.422 154.953 80.583 154.118 78.634C153.523 77.247 150.015 75.535 149.191 75.176" fill="#1E90FF"/>
<path d="M149.94 101.408C149.828 101.408 149.716 101.37 149.625 101.296L145.17 97.6761C145.049 97.5771 144.981 97.4281 144.985 97.2731L145.442 82.3391C145.451 82.0681 145.672 81.8541 145.942 81.8541C145.947 81.8541 145.952 81.8541 145.958 81.8541C146.233 81.8631 146.45 82.0931 146.442 82.3691L145.993 97.0561L149.969 100.286L153.155 98.1421C153.676 91.0141 154.229 80.1621 153.658 78.8301C153.199 77.7591 150.261 76.1861 148.992 75.6341C148.738 75.5241 148.623 75.2291 148.733 74.9761C148.843 74.7231 149.143 74.6091 149.39 74.7171C149.435 74.7371 153.816 76.6611 154.578 78.4371C155.436 80.4401 154.27 96.6201 154.135 98.4581C154.123 98.6111 154.042 98.7501 153.915 98.8361L150.221 101.323C150.135 101.379 150.037 101.408 149.94 101.408Z" fill="#12374F"/>
<path d="M131.115 78.5551L133.22 83.7611L131.558 102.265L134.216 107.139L137.318 102.044L134.77 83.982L136.986 79.4411L134.096 75.2271L131.115 78.5551Z" fill="#12374F"/>
<path d="M134.217 107.639C134.213 107.639 134.209 107.639 134.205 107.639C134.026 107.635 133.863 107.535 133.778 107.378L131.119 102.504C131.072 102.418 131.051 102.318 131.06 102.22L132.711 83.8361L130.652 78.7421C130.58 78.5651 130.616 78.3631 130.743 78.2211L133.724 74.8931C133.827 74.7781 133.979 74.7231 134.128 74.7281C134.281 74.7381 134.421 74.8181 134.508 74.9441L137.398 79.1581C137.501 79.3061 137.514 79.4981 137.435 79.6601L135.287 84.0631L137.812 101.973C137.829 102.087 137.804 102.204 137.744 102.303L134.644 107.398C134.553 107.548 134.391 107.639 134.217 107.639ZM132.07 102.159L134.24 106.138L136.797 101.936L134.275 84.0521C134.261 83.9531 134.277 83.8531 134.321 83.7631L136.408 79.4841L134.043 76.0351L131.696 78.6561L133.684 83.5721C133.713 83.6461 133.725 83.7251 133.718 83.8041L132.07 102.159Z" fill="#12374F"/>
<path d="M139.344 70.7211L134.181 77.2471L129.34 70.7211V64.8411H139.344V70.7211Z" fill="#B2B2B2"/>
<path d="M134.181 77.7481C134.178 77.7481 134.176 77.7481 134.173 77.7481C134.018 77.7461 133.872 77.6711 133.779 77.5461L128.938 71.0191C128.874 70.9331 128.839 70.8291 128.839 70.7211V64.8411C128.839 64.5651 129.063 64.3411 129.339 64.3411H139.343C139.619 64.3411 139.843 64.5651 139.843 64.8411V70.7211C139.843 70.8341 139.805 70.9431 139.736 71.0311L134.573 77.5581C134.478 77.6781 134.333 77.7481 134.181 77.7481ZM129.84 70.5561L134.194 76.4261L138.844 70.5481V65.3421H129.84V70.5561Z" fill="#12374F"/>
<path d="M128.789 69.8049L127.414 71.4979L128.968 81.1319L134.181 77.2469L139.845 80.9769L140.778 71.4979L139.422 70.1369L134.096 75.2269L128.789 69.8049Z" fill="#1E90FF"/>
<path d="M128.968 81.632C128.904 81.632 128.84 81.62 128.78 81.595C128.618 81.529 128.502 81.384 128.474 81.211L126.92 71.577C126.898 71.436 126.936 71.293 127.025 71.182L128.4 69.489C128.49 69.379 128.623 69.312 128.765 69.305C128.908 69.303 129.046 69.353 129.145 69.455L134.106 74.524L139.075 69.775C139.272 69.587 139.582 69.591 139.775 69.783L141.13 71.144C141.235 71.25 141.288 71.397 141.274 71.546L140.342 81.025C140.324 81.199 140.217 81.352 140.06 81.427C139.902 81.502 139.715 81.49 139.569 81.393L134.197 77.856L129.265 81.531C129.179 81.599 129.074 81.632 128.968 81.632ZM127.943 71.64L129.33 80.239L133.882 76.847C134.052 76.721 134.28 76.715 134.456 76.83L139.429 80.104L140.257 71.684L139.413 70.837L134.441 75.589C134.243 75.779 133.928 75.773 133.738 75.577L128.823 70.556L127.943 71.64Z" fill="#12374F"/>
<path d="M132.108 48.089C130.957 48.134 129.858 48.466 128.912 49.224C126.51 51.15 127.533 56.292 126.086 58.82C124.792 61.082 124.556 67.71 125.757 68.817C126.958 69.925 128.911 70.355 131.04 69.981C133.169 69.607 137.121 68.069 138.127 67.328C139.132 66.587 139.891 63.147 139.892 63.141C139.987 62.708 140.79 62.027 141.036 61.64C141.583 60.781 142.103 59.84 142.403 58.864C143.422 55.551 142.877 51.447 139.93 49.66C137.91 48.435 134.514 47.994 132.108 48.089Z" fill="#B2B2B2"/>
<path d="M129.548 70.6161C127.889 70.6161 126.433 70.1211 125.419 69.1851C123.958 67.8371 124.326 60.8901 125.652 58.5721C126.211 57.5951 126.373 56.1441 126.544 54.6081C126.792 52.3801 127.049 50.0771 128.599 48.8341C129.562 48.0621 130.736 47.6431 132.088 47.5901C134.608 47.4871 138.093 47.9611 140.192 49.2331C143.492 51.2351 143.9 55.7061 142.882 59.0121C142.613 59.8891 142.161 60.8091 141.459 61.9101C141.344 62.0911 141.159 62.2931 140.963 62.5071C140.774 62.7151 140.419 63.1031 140.382 63.2501C140.187 64.1121 139.475 66.9571 138.425 67.7311C137.374 68.5061 133.35 70.0841 131.128 70.4751C130.587 70.5691 130.058 70.6161 129.548 70.6161ZM132.127 48.5891C130.994 48.6341 130.018 48.9791 129.225 49.6141C127.997 50.5981 127.764 52.6931 127.538 54.7181C127.363 56.2881 127.182 57.9121 126.52 59.0681C125.261 61.2681 125.155 67.5821 126.096 68.4491C127.176 69.4441 128.991 69.8321 130.954 69.4881C133.024 69.1251 136.878 67.6271 137.83 66.9251C138.376 66.5231 139.035 64.6641 139.403 63.0361C139.493 62.6301 139.865 62.2231 140.223 61.8301C140.382 61.6571 140.534 61.4961 140.614 61.3711C141.266 60.3481 141.683 59.5051 141.926 58.7171C142.832 55.7691 142.514 51.8121 139.671 50.0871C137.762 48.9291 134.418 48.4981 132.127 48.5891Z" fill="#12374F"/>
<path d="M136.813 50.912C134.168 49.425 131.21 49.367 130.061 49.295C129.763 49.276 129.456 49.185 129.174 49.049C130.059 48.427 131.059 48.13 132.107 48.089C134.513 47.994 137.91 48.434 139.931 49.66C142.878 51.448 143.423 55.552 142.404 58.864C142.104 59.84 141.584 60.781 141.037 61.64C140.993 61.709 140.917 61.795 140.846 61.879L139.694 61.884C139.694 61.884 137.71 62.093 137.572 61.546C137.434 60.999 137.624 60.136 137.582 59.739C137.54 59.342 135.238 58.06 135.483 56.95C135.727 55.841 137.954 53.359 137.954 53.359C137.954 53.359 139.457 52.399 136.813 50.912Z" fill="#12374F"/>
<path d="M138.858 62.434C138.029 62.434 137.237 62.266 137.086 61.67C136.982 61.255 137.023 60.764 137.059 60.33C137.074 60.158 137.09 60 137.088 59.876C136.996 59.774 136.775 59.584 136.608 59.441C135.832 58.776 134.769 57.865 134.994 56.844C135.259 55.641 137.344 53.291 137.581 53.027C137.611 52.993 137.645 52.964 137.684 52.94C137.684 52.94 137.888 52.795 137.879 52.596C137.873 52.474 137.763 52.021 136.567 51.349C134.214 50.026 131.577 49.881 130.31 49.811L130.03 49.795C129.679 49.773 129.308 49.671 128.956 49.5C128.797 49.422 128.69 49.267 128.676 49.09C128.662 48.913 128.742 48.743 128.887 48.641C129.812 47.991 130.889 47.638 132.088 47.591C134.606 47.488 138.093 47.962 140.192 49.234C143.492 51.236 143.9 55.707 142.883 59.013C142.613 59.89 142.16 60.811 141.459 61.911C141.414 61.982 141.339 62.074 141.261 62.166C141.166 62.277 140.995 62.38 140.849 62.381L139.697 62.386C139.429 62.414 139.142 62.434 138.858 62.434ZM138.038 61.334C138.278 61.429 138.997 61.455 139.643 61.389L140.61 61.383C140.612 61.381 140.613 61.379 140.615 61.376C141.268 60.351 141.685 59.508 141.928 58.719C142.834 55.772 142.515 51.814 139.672 50.089C137.762 48.93 134.418 48.5 132.127 48.59C131.631 48.61 131.161 48.691 130.72 48.833C132.16 48.92 134.71 49.157 137.058 50.477C138.263 51.155 138.858 51.84 138.879 52.574C138.897 53.211 138.465 53.603 138.289 53.736C137.459 54.667 136.126 56.357 135.971 57.06C135.875 57.496 136.776 58.267 137.259 58.682C137.765 59.116 138.044 59.355 138.079 59.689C138.1 59.892 138.08 60.134 138.056 60.415C138.031 60.713 138.001 61.079 138.038 61.334Z" fill="#12374F"/>
<path d="M128.695 63.9351C128.665 63.9351 128.635 63.9301 128.605 63.9181L127.163 63.3591C127.097 63.3341 127.045 63.2811 127.02 63.2151C126.995 63.1491 126.999 63.0751 127.032 63.0121L128.901 59.3841L128.984 57.4101C128.99 57.2721 129.088 57.1641 129.245 57.1711C129.383 57.1771 129.49 57.2941 129.484 57.4321L129.399 59.4601C129.397 59.4961 129.388 59.5311 129.371 59.5641L127.604 62.9941L128.787 63.4521C128.916 63.5021 128.98 63.6461 128.93 63.7751C128.89 63.8741 128.795 63.9351 128.695 63.9351Z" fill="#12374F"/>
<path d="M128.137 58.564C128.018 59.103 127.716 59.495 127.463 59.439C127.209 59.383 127.1 58.901 127.219 58.362C127.338 57.823 127.64 57.431 127.893 57.487C128.146 57.543 128.256 58.025 128.137 58.564Z" fill="#12374F"/>
<path d="M132.043 59.9671C131.924 60.5061 131.622 60.8981 131.369 60.8421C131.115 60.7861 131.006 60.3041 131.125 59.7651C131.244 59.2261 131.546 58.8341 131.799 58.8901C132.052 58.9451 132.162 59.4281 132.043 59.9671Z" fill="#12374F"/>
<path d="M129.628 65.9511C127.971 65.9511 127.311 64.7651 127.303 64.7491C127.238 64.6271 127.283 64.4761 127.405 64.4111C127.526 64.3461 127.676 64.3911 127.743 64.5121C127.782 64.5811 128.708 66.1961 131.378 65.0331C131.506 64.9791 131.652 65.0361 131.707 65.1621C131.762 65.2891 131.705 65.4361 131.578 65.4911C130.814 65.8251 130.168 65.9511 129.628 65.9511Z" fill="#12374F"/>
<path d="M128.95 56.766C128.878 56.766 128.807 56.735 128.758 56.676C128.526 56.396 128.287 56.249 128.049 56.237C127.742 56.214 127.497 56.451 127.495 56.453C127.397 56.55 127.24 56.551 127.142 56.453C127.045 56.356 127.043 56.2 127.139 56.102C127.155 56.086 127.542 55.711 128.065 55.737C128.453 55.753 128.816 55.961 129.144 56.356C129.232 56.462 129.218 56.62 129.111 56.708C129.063 56.747 129.006 56.766 128.95 56.766Z" fill="#12374F"/>
<path d="M133.725 59.1421C133.616 59.1421 133.515 59.0701 133.484 58.9591C133.011 57.2681 131.189 57.4671 131.111 57.4741C130.984 57.4931 130.85 57.3931 130.833 57.2561C130.816 57.1191 130.914 56.9951 131.051 56.9781C131.072 56.9751 133.375 56.7161 133.966 58.8251C134.003 58.9581 133.925 59.0961 133.792 59.1331C133.77 59.1391 133.747 59.1421 133.725 59.1421Z" fill="#12374F"/>
<path d="M138.411 63.0551C138.411 63.0551 139.572 59.6201 141.356 60.2241C143.139 60.8271 142.406 61.6851 141.71 63.1951C140.861 65.0371 139.239 64.8951 139.239 64.8951" fill="#B2B2B2"/>
<path d="M139.317 65.3971C139.248 65.3971 139.205 65.3941 139.194 65.3931C138.92 65.3691 138.715 65.1261 138.74 64.8511C138.764 64.5771 139.016 64.3741 139.282 64.3971C139.331 64.4011 140.574 64.4661 141.256 62.9861C141.349 62.7851 141.442 62.5971 141.529 62.4181C141.792 61.8821 142.041 61.3761 141.948 61.1531C141.912 61.0661 141.765 60.8911 141.195 60.6981C140.119 60.3391 139.144 62.4481 138.885 63.2161C138.796 63.4761 138.512 63.6181 138.251 63.5291C137.989 63.4411 137.849 63.1571 137.937 62.8961C137.95 62.8581 138.254 61.9671 138.795 61.1401C139.82 59.5781 140.839 59.5221 141.515 59.7511C142.255 60.0021 142.686 60.3251 142.872 60.7701C143.139 61.4121 142.808 62.0831 142.426 62.8601C142.342 63.0311 142.253 63.2131 142.164 63.4051C141.31 65.2561 139.768 65.3971 139.317 65.3971Z" fill="#12374F"/>
<path d="M151.611 118.17L148.904 109.612H119.754L118.774 114.101C118.373 114.095 117.994 114.149 117.643 114.272L107.079 116.673C105.521 117.027 104.108 117.927 103.254 119.277C102.88 119.868 102.608 120.537 102.608 121.233C102.608 123.46 104.279 164.394 104.279 164.394H111.797L116.553 127.591H124.778C125.239 138.495 126.21 164.394 126.21 164.394H133.728L138.484 127.591H149.638C149.638 127.591 149.612 127.504 149.567 127.358H149.638L151.611 118.17Z" fill="#12374F"/>
<path d="M133.727 164.894H126.21C125.941 164.894 125.72 164.682 125.71 164.413C125.7 164.158 124.761 139.134 124.297 128.092H116.991L112.292 164.459C112.26 164.709 112.047 164.895 111.796 164.895H104.278C104.01 164.895 103.789 164.684 103.779 164.416C103.711 162.744 102.108 123.447 102.108 121.234C102.108 120.517 102.351 119.769 102.831 119.011C103.716 117.613 105.224 116.583 106.968 116.187L117.532 113.786C117.771 113.701 118.057 113.642 118.368 113.617L119.265 109.508C119.315 109.278 119.518 109.114 119.753 109.114H148.902C149.12 109.114 149.313 109.255 149.379 109.463L152.087 118.021C152.113 118.104 152.117 118.192 152.1 118.277L150.125 127.465C150.124 127.469 150.123 127.473 150.122 127.476C150.156 127.62 150.126 127.771 150.037 127.891C149.943 128.018 149.794 128.093 149.636 128.093H138.921L134.222 164.46C134.19 164.708 133.978 164.894 133.727 164.894ZM126.691 163.894H133.287L137.986 127.527C138.018 127.278 138.231 127.091 138.482 127.091H149.142C149.149 127.081 149.156 127.071 149.163 127.061C149.174 127.046 149.185 127.032 149.198 127.019L151.095 118.194L148.537 110.111H120.157L119.262 114.207C119.212 114.437 119.009 114.601 118.774 114.601C118.759 114.602 118.738 114.6 118.72 114.6C118.387 114.6 118.08 114.648 117.808 114.743L107.189 117.16C105.701 117.498 104.42 118.367 103.675 119.543C103.298 120.139 103.107 120.707 103.107 121.231C103.107 123.293 104.57 159.292 104.757 163.892H111.355L116.054 127.525C116.086 127.276 116.299 127.089 116.55 127.089H124.775C125.043 127.089 125.263 127.3 125.275 127.568C125.698 137.533 126.556 160.296 126.691 163.894Z" fill="#12374F"/>
<path d="M118.042 75.849L109.535 93.635L91.246 97.737L91.192 101.186H113.745L119.314 97.288L118.042 75.849Z" fill="#1E90FF"/>
<path d="M113.745 101.686H91.192C91.058 101.686 90.93 101.632 90.836 101.537C90.742 101.442 90.69 101.312 90.692 101.179L90.746 97.73C90.749 97.499 90.911 97.3 91.137 97.25L109.189 93.201L117.591 75.634C117.69 75.428 117.912 75.315 118.138 75.359C118.362 75.403 118.528 75.592 118.541 75.82L119.813 97.259C119.823 97.432 119.743 97.599 119.601 97.698L114.033 101.596C113.948 101.654 113.848 101.686 113.745 101.686ZM91.7 100.686H113.587L118.797 97.039L117.657 77.812L109.986 93.851C109.92 93.989 109.794 94.089 109.644 94.123L91.739 98.139L91.7 100.686Z" fill="#12374F"/>
<path d="M144.65 80.304L140.195 83.088L144.65 99.794C144.65 99.794 149.614 103.017 150.728 102.182C151.842 101.347 153.634 98.422 153.634 98.422L144.65 80.304Z" fill="#1E90FF"/>
<path d="M150.22 102.805C148.574 102.805 145.698 101.071 144.378 100.214C144.274 100.147 144.199 100.043 144.167 99.924L139.712 83.218C139.655 83.006 139.744 82.781 139.931 82.665L144.386 79.881C144.506 79.805 144.653 79.785 144.786 79.824C144.923 79.862 145.035 79.956 145.099 80.083L154.083 98.2C154.159 98.354 154.151 98.537 154.061 98.683C153.986 98.806 152.206 101.7 151.028 102.582C150.821 102.737 150.544 102.805 150.22 102.805ZM145.084 99.478C147.483 101.012 150.002 102.1 150.429 101.782C151.206 101.199 152.48 99.317 153.063 98.393L144.448 81.02L140.774 83.316L145.084 99.478Z" fill="#12374F"/>
<path d="M144.65 80.3041L142.866 75.0041L139.422 70.1371C139.422 70.1371 137.567 71.2431 137.738 71.7561C137.738 71.7561 135.345 74.4911 135.345 75.3461C135.345 76.2011 136.232 79.6051 136.985 79.4411C137.738 79.2771 140.195 83.0881 140.195 83.0881L144.65 80.3041Z" fill="#B2B2B2"/>
<path d="M140.195 83.588C140.031 83.588 139.871 83.507 139.775 83.359C138.775 81.809 137.418 80.062 136.994 79.932C136.924 79.968 136.665 79.963 136.39 79.741C135.504 79.027 134.846 76.084 134.846 75.346C134.846 74.452 136.433 72.501 137.241 71.567C137.335 71.04 137.979 70.416 139.167 69.708C139.391 69.575 139.681 69.635 139.831 69.848L143.275 74.715C143.303 74.755 143.325 74.799 143.34 74.844L145.124 80.144C145.198 80.364 145.111 80.605 144.915 80.728L140.46 83.512C140.378 83.564 140.286 83.588 140.195 83.588ZM137.037 78.933C137.412 78.933 138.282 79.284 140.346 82.404L144.051 80.089L142.416 75.233L139.288 70.814C138.782 71.155 138.34 71.526 138.235 71.706C138.249 71.842 138.207 71.98 138.114 72.085C136.896 73.478 135.857 74.972 135.845 75.346C135.845 76.177 136.558 78.545 136.983 78.935C137 78.934 137.018 78.933 137.037 78.933Z" fill="#12374F"/>
<path d="M91.246 97.7371L83.896 97.3951L80.649 101.327H91.192L91.246 97.7371Z" fill="#B2B2B2"/>
<path d="M91.192 101.827H80.649C80.455 101.827 80.279 101.715 80.197 101.54C80.114 101.365 80.14 101.158 80.264 101.009L83.511 97.0781C83.611 96.9571 83.769 96.8961 83.92 96.8971L91.27 97.2391C91.54 97.2521 91.75 97.4761 91.747 97.7461L91.693 101.335C91.689 101.607 91.466 101.827 91.192 101.827ZM81.71 100.827H90.699L90.738 98.2151L84.122 97.9071L81.71 100.827Z" fill="#12374F"/>
<path d="M104.278 164.394L101.082 168.998L94.138 172.666V174.107H112.872L111.796 164.394H104.278Z" fill="white"/>
<path d="M112.872 174.607H94.138C93.862 174.607 93.638 174.383 93.638 174.107V172.666C93.638 172.48 93.741 172.311 93.905 172.224L100.74 168.613L103.868 164.109C103.961 163.974 104.115 163.894 104.279 163.894H111.797C112.052 163.894 112.266 164.086 112.294 164.339L113.37 174.052C113.386 174.194 113.34 174.335 113.246 174.441C113.15 174.547 113.014 174.607 112.872 174.607ZM94.638 173.607H112.313L111.348 164.894H104.54L101.492 169.283C101.447 169.349 101.385 169.403 101.315 169.44L94.638 172.967V173.607Z" fill="#12374F"/>
<path d="M126.418 164.394L123.222 168.998L116.279 172.666V174.107H135.012L133.936 164.394H126.418Z" fill="white"/>
<path d="M135.013 174.607H116.279C116.003 174.607 115.779 174.383 115.779 174.107V172.666C115.779 172.48 115.882 172.311 116.046 172.224L122.882 168.613L126.009 164.109C126.102 163.974 126.256 163.894 126.42 163.894H133.938C134.193 163.894 134.407 164.086 134.435 164.339L135.511 174.052C135.527 174.194 135.482 174.335 135.386 174.441C135.29 174.547 135.155 174.607 135.013 174.607ZM116.778 173.607H134.454L133.489 164.894H126.68L123.632 169.283C123.587 169.349 123.526 169.403 123.455 169.44L116.778 172.967V173.607Z" fill="#12374F"/>
<path d="M55.382 85.774H26.293L24.718 164.957H31.771L40.838 104.764L49.905 164.957H56.957L55.382 85.774Z" fill="#12374F"/>
<path d="M56.956 165.457H49.904C49.656 165.457 49.447 165.276 49.409 165.032L40.836 108.121L32.264 165.032C32.227 165.277 32.017 165.457 31.769 165.457H24.717C24.583 165.457 24.454 165.403 24.36 165.307C24.266 165.211 24.214 165.081 24.217 164.947L25.792 85.7641C25.797 85.4911 26.02 85.274 26.292 85.274H55.38C55.652 85.274 55.875 85.4921 55.88 85.7641L57.455 164.947C57.458 165.081 57.406 165.211 57.312 165.307C57.22 165.403 57.091 165.457 56.956 165.457ZM50.335 164.457H56.446L54.891 86.274H26.783L25.228 164.457H31.34L40.343 104.689C40.38 104.444 40.59 104.264 40.838 104.264C41.086 104.264 41.295 104.445 41.333 104.689L50.335 164.457Z" fill="#12374F"/>
<path d="M46.024 42.925L40.868 44.013L35.713 42.925L22.765 48.054L26.293 85.774H55.443L58.972 48.054L46.024 42.925Z" fill="#1E90FF"/>
<path d="M55.443 86.2741H26.293C26.035 86.2741 25.819 86.0781 25.795 85.8201L22.266 48.1001C22.245 47.8791 22.373 47.6711 22.58 47.5891L35.528 42.4611C35.619 42.4251 35.72 42.4161 35.815 42.4371L40.867 43.5031L45.92 42.4371C46.015 42.4161 46.115 42.4251 46.207 42.4611L59.155 47.5891C59.362 47.6711 59.489 47.8791 59.469 48.1001L55.94 85.8201C55.917 86.0781 55.702 86.2741 55.443 86.2741ZM26.749 85.2741H54.988L58.44 48.3811L45.981 43.4461L40.972 44.5031C40.905 44.5181 40.833 44.5181 40.766 44.5031L35.758 43.4461L23.299 48.3811L26.749 85.2741Z" fill="#12374F"/>
<path d="M37.655 50.7601L39.759 55.9651L38.098 78.4271L40.756 83.3001L43.857 78.2051L41.31 56.1871L43.525 51.6461L40.635 47.4321L37.655 50.7601Z" fill="#12374F"/>
<path d="M40.756 83.8001C40.752 83.8001 40.748 83.8001 40.744 83.8001C40.565 83.7961 40.402 83.6961 40.317 83.5391L37.659 78.6651C37.613 78.5801 37.592 78.4851 37.599 78.3891L39.252 56.0441L37.191 50.9471C37.119 50.7701 37.155 50.5681 37.282 50.4261L40.262 47.0981C40.365 46.9831 40.515 46.9281 40.667 46.9321C40.82 46.9421 40.96 47.0221 41.047 47.1481L43.937 51.3621C44.039 51.5101 44.053 51.7021 43.974 51.8641L41.824 56.2741L44.354 78.1471C44.367 78.2581 44.342 78.3701 44.285 78.4641L41.183 83.5591C41.092 83.7101 40.93 83.8001 40.756 83.8001ZM38.607 78.3171L40.78 82.3001L43.341 78.0921L40.814 56.2451C40.803 56.1501 40.819 56.0541 40.861 55.9681L42.948 51.6891L40.583 48.2401L38.235 50.8621L40.222 55.7791C40.251 55.8501 40.263 55.9271 40.257 56.0041L38.607 78.3171Z" fill="#12374F"/>
<path d="M45.884 42.925L40.72 49.452L35.88 42.925V37.045H45.884V42.925Z" fill="white"/>
<path d="M40.72 49.952C40.718 49.952 40.715 49.952 40.712 49.952C40.556 49.95 40.411 49.875 40.318 49.75L35.477 43.223C35.413 43.137 35.378 43.033 35.378 42.925V37.045C35.378 36.769 35.602 36.545 35.878 36.545H45.882C46.158 36.545 46.382 36.769 46.382 37.045V42.925C46.382 43.038 46.344 43.147 46.274 43.235L41.11 49.762C41.018 49.882 40.873 49.952 40.72 49.952ZM36.379 42.76L40.733 48.63L45.384 42.752V37.546H36.38V42.76H36.379Z" fill="#12374F"/>
<path d="M35.329 42.01L33.953 43.702L35.507 53.337L40.72 49.452L46.385 53.182L47.317 43.702L45.962 42.342L40.635 47.432L35.329 42.01Z" fill="#1E90FF"/>
<path d="M35.507 53.837C35.443 53.837 35.38 53.825 35.319 53.8C35.157 53.734 35.041 53.589 35.013 53.416L33.459 43.782C33.437 43.641 33.475 43.498 33.564 43.387L34.939 41.694C35.029 41.584 35.162 41.517 35.304 41.51C35.439 41.507 35.585 41.558 35.684 41.66L40.645 46.729L45.615 41.98C45.811 41.792 46.122 41.796 46.315 41.988L47.67 43.349C47.775 43.455 47.828 43.602 47.813 43.751L46.88 53.23C46.863 53.404 46.756 53.557 46.598 53.632C46.44 53.708 46.254 53.695 46.108 53.598L40.736 50.061L35.804 53.736C35.718 53.803 35.613 53.837 35.507 53.837ZM34.483 43.844L35.87 52.443L40.422 49.051C40.59 48.925 40.82 48.918 40.996 49.034L45.969 52.308L46.798 43.888L45.954 43.041L40.981 47.793C40.783 47.982 40.471 47.977 40.278 47.781L35.363 42.76L34.483 43.844Z" fill="#12374F"/>
<path d="M24.718 164.957C24.718 164.957 21.728 174.196 22.172 174.344C22.616 174.492 32.238 174.344 32.238 174.344L31.77 164.957H24.718Z" fill="white"/>
<path d="M25.297 174.912C23.517 174.912 22.218 174.887 22.014 174.819C21.483 174.641 21.099 174.513 24.243 164.803C24.309 164.596 24.502 164.457 24.719 164.457H31.771C32.038 164.457 32.257 164.666 32.27 164.932L32.738 174.32C32.745 174.455 32.696 174.588 32.603 174.687C32.51 174.786 32.381 174.843 32.246 174.845C29.903 174.881 27.297 174.912 25.297 174.912ZM22.657 173.892C23.957 173.94 28.525 173.899 31.713 173.852L31.295 165.457H25.083C23.96 168.948 22.853 172.713 22.657 173.892Z" fill="#12374F"/>
<path d="M57.078 164.957C57.078 164.957 60.069 174.196 59.624 174.344C59.18 174.492 49.558 174.344 49.558 174.344L50.026 164.957H57.078Z" fill="white"/>
<path d="M56.497 174.912C54.497 174.912 51.893 174.881 49.55 174.845C49.415 174.843 49.286 174.786 49.193 174.687C49.1 174.588 49.051 174.456 49.058 174.32L49.526 164.932C49.539 164.666 49.759 164.457 50.026 164.457H57.078C57.295 164.457 57.487 164.597 57.554 164.803C60.698 174.513 60.314 174.641 59.783 174.819C59.579 174.887 58.278 174.912 56.497 174.912ZM50.083 173.852C53.25 173.898 57.779 173.937 59.138 173.886C58.94 172.7 57.835 168.942 56.713 165.457H50.501L50.083 173.852Z" fill="#12374F"/>
<path d="M48.783 22.8771C48.783 22.8771 51.411 23.7571 51.882 25.2861C52.352 26.8151 49.883 30.4601 49.883 30.4601L49.06 24.8151L48.783 22.8771Z" fill="#12374F"/>
<path d="M49.882 30.96C49.845 30.96 49.807 30.956 49.77 30.947C49.569 30.901 49.417 30.736 49.387 30.532L48.287 22.948C48.263 22.776 48.329 22.604 48.462 22.493C48.595 22.383 48.777 22.3471 48.941 22.4031C49.235 22.5021 51.828 23.4141 52.359 25.1391C52.884 26.8481 50.563 30.348 50.296 30.741C50.202 30.879 50.046 30.96 49.882 30.96ZM49.401 23.6741L50.179 29.031C50.923 27.725 51.623 26.146 51.403 25.432C51.172 24.6811 50.186 24.0521 49.401 23.6741Z" fill="#12374F"/>
<path d="M45.906 21.081C47.02 21.373 48.023 21.933 48.783 22.877C50.714 25.274 49.972 28.378 49.765 31.283C49.647 32.929 49.059 41.867 47.648 42.69C46.237 43.513 44.237 43.513 42.238 42.69C40.239 41.867 36.711 39.515 35.887 38.574C35.065 37.634 35.064 34.112 35.064 34.105C35.064 33.662 34.427 32.824 34.269 32.393C33.919 31.437 33.614 30.406 33.531 29.388C33.248 25.933 35.195 22.907 38.458 21.795C40.696 21.034 43.576 20.47 45.906 21.081Z" fill="white"/>
<path d="M45.165 43.812C44.176 43.812 43.115 43.592 42.047 43.153C39.962 42.294 36.372 39.887 35.511 38.903C34.61 37.874 34.564 34.726 34.564 34.105C34.559 33.954 34.296 33.499 34.155 33.254C34.004 32.992 33.865 32.746 33.8 32.565C33.352 31.339 33.108 30.343 33.033 29.429C32.733 25.755 34.848 22.497 38.297 21.322C40.002 20.741 43.275 19.874 46.032 20.596C47.34 20.939 48.397 21.6 49.172 22.562C50.913 24.724 50.649 27.346 50.394 29.882C50.346 30.363 50.297 30.843 50.263 31.318L50.251 31.491C49.496 42.191 48.336 42.867 47.899 43.122C47.111 43.582 46.176 43.812 45.165 43.812ZM43.717 21.321C41.762 21.321 39.796 21.869 38.619 22.27C35.565 23.311 33.763 26.089 34.03 29.349C34.097 30.17 34.322 31.084 34.739 32.223C34.79 32.363 34.904 32.552 35.021 32.756C35.288 33.217 35.564 33.694 35.564 34.106C35.564 35.494 35.782 37.695 36.264 38.246C37.044 39.138 40.486 41.429 42.428 42.229C44.27 42.988 46.128 42.998 47.395 42.26C47.585 42.149 48.569 41.105 49.253 31.423L49.266 31.249C49.3 30.765 49.35 30.275 49.399 29.785C49.645 27.342 49.877 25.035 48.394 23.192C47.756 22.401 46.877 21.854 45.78 21.567C45.118 21.391 44.418 21.321 43.717 21.321Z" fill="#12374F"/>
<path d="M46.589 20.699C46.589 20.699 49.294 21.405 49.529 23.051C49.764 24.697 47.883 26.462 43.414 27.285C38.945 28.108 38.24 27.991 38.24 27.991C38.24 27.991 39.886 29.049 39.298 29.637C38.71 30.225 37.887 31.048 37.887 31.048L38.122 33.282C38.122 33.282 37.064 34.576 36.828 33.635C36.593 32.694 36.122 31.518 35.77 31.4C35.418 31.282 34.27 32.393 34.27 32.393C34.27 32.393 33.653 29.636 33.889 27.166C34.124 24.696 35.032 23.598 38.459 21.795C41.885 19.993 46.589 20.699 46.589 20.699Z" fill="#12374F"/>
<path d="M37.151 34.477C37.094 34.477 37.037 34.471 36.981 34.458C36.798 34.417 36.472 34.271 36.343 33.755C36.133 32.917 35.818 32.202 35.633 31.938C35.403 32.066 34.977 32.404 34.616 32.753C34.486 32.878 34.3 32.926 34.125 32.873C33.952 32.821 33.82 32.68 33.781 32.503C33.755 32.387 33.15 29.639 33.39 27.12C33.643 24.457 34.683 23.218 38.225 21.354C41.756 19.495 46.464 20.174 46.663 20.204C46.681 20.207 46.698 20.21 46.715 20.215C46.839 20.247 49.745 21.027 50.024 22.98C50.266 24.673 48.68 26.823 43.504 27.776C41.552 28.135 40.301 28.319 39.503 28.41C39.717 28.661 39.887 28.946 39.918 29.238C39.948 29.52 39.853 29.786 39.65 29.989L38.408 31.232L38.618 33.229C38.632 33.362 38.593 33.495 38.508 33.598C38.282 33.877 37.724 34.477 37.151 34.477ZM35.718 30.889C35.816 30.889 35.882 30.911 35.928 30.927C36.629 31.161 37.114 32.752 37.283 33.399C37.377 33.331 37.493 33.228 37.601 33.116L37.39 31.1C37.374 30.95 37.427 30.801 37.534 30.694L38.945 29.283C38.905 29.169 38.441 28.715 37.97 28.41C37.771 28.282 37.689 28.031 37.774 27.809C37.86 27.588 38.086 27.457 38.322 27.496C38.335 27.497 39.161 27.559 43.324 26.792C47.809 25.966 49.203 24.298 49.035 23.121C48.883 22.055 47.173 21.373 46.491 21.189C46.12 21.138 41.805 20.601 38.692 22.238C35.241 24.053 34.59 25.072 34.386 27.214C34.239 28.761 34.442 30.449 34.601 31.435C35.176 30.984 35.515 30.889 35.718 30.889Z" fill="#12374F"/>
<path d="M45.884 37.045L47.413 36.81L46.354 32.812L46.707 30.813" fill="white"/>
<path d="M45.883 37.295C45.762 37.295 45.655 37.207 45.636 37.083C45.615 36.946 45.709 36.819 45.845 36.798L47.099 36.605L46.112 32.875C46.103 32.84 46.101 32.803 46.108 32.768L46.461 30.769C46.485 30.633 46.617 30.54 46.751 30.566C46.887 30.59 46.978 30.72 46.954 30.856L46.611 32.801L47.655 36.746C47.673 36.814 47.661 36.888 47.622 36.947C47.583 37.007 47.521 37.047 47.451 37.057L45.922 37.292C45.909 37.294 45.896 37.295 45.883 37.295Z" fill="#12374F"/>
<path d="M48 33.165C48.2596 33.165 48.47 32.7173 48.47 32.165C48.47 31.6128 48.2596 31.165 48 31.165C47.7404 31.165 47.53 31.6128 47.53 32.165C47.53 32.7173 47.7404 33.165 48 33.165Z" fill="#12374F"/>
<path d="M43.414 32.6941C43.414 33.2461 43.625 33.6941 43.884 33.6941C44.143 33.6941 44.354 33.2461 44.354 32.6941C44.354 32.1421 44.143 31.6941 43.884 31.6941C43.625 31.6941 43.414 32.1421 43.414 32.6941Z" fill="#12374F"/>
<path d="M46.824 38.221C46.824 38.221 45.413 39.867 42.825 37.986Z" fill="white"/>
<path d="M45.16 39.133C44.495 39.133 43.662 38.903 42.68 38.189C42.568 38.108 42.544 37.952 42.625 37.84C42.706 37.728 42.863 37.705 42.974 37.785C45.348 39.511 46.624 38.074 46.636 38.059C46.727 37.955 46.885 37.944 46.989 38.032C47.094 38.122 47.106 38.28 47.016 38.384C47.004 38.396 46.351 39.133 45.16 39.133Z" fill="#12374F"/>
<path d="M48.824 30.107C48.824 30.107 48.236 29.166 47.178 29.989Z" fill="white"/>
<path d="M48.824 30.357C48.742 30.357 48.66 30.316 48.613 30.241C48.611 30.239 48.43 29.964 48.119 29.911C47.887 29.872 47.618 29.964 47.331 30.187C47.222 30.271 47.064 30.252 46.98 30.143C46.895 30.034 46.915 29.877 47.024 29.792C47.429 29.477 47.83 29.351 48.21 29.419C48.742 29.514 49.024 29.956 49.035 29.975C49.108 30.092 49.073 30.246 48.956 30.319C48.915 30.345 48.869 30.357 48.824 30.357Z" fill="#12374F"/>
<path d="M44.943 30.225C44.943 30.225 42.944 29.519 42.003 31.283Z" fill="white"/>
<path d="M42.003 31.533C41.963 31.533 41.923 31.524 41.885 31.504C41.763 31.439 41.717 31.288 41.782 31.166C42.812 29.235 45.005 29.982 45.026 29.99C45.156 30.036 45.224 30.178 45.179 30.308C45.134 30.438 44.989 30.51 44.861 30.461C44.787 30.435 43.05 29.852 42.224 31.401C42.179 31.485 42.092 31.533 42.003 31.533Z" fill="#12374F"/>
<path d="M37.519 35.0921C37.519 35.0921 37.651 31.4691 35.77 31.4001C33.889 31.3321 34.27 32.3931 34.385 34.0521C34.526 36.0761 36.093 36.5181 36.093 36.5181" fill="white"/>
<path d="M36.092 37.019C36.048 37.019 36.002 37.013 35.957 37C35.879 36.978 34.049 36.436 33.886 34.087C33.871 33.876 33.852 33.674 33.834 33.484C33.752 32.622 33.682 31.878 34.159 31.372C34.489 31.021 35 30.869 35.788 30.9C36.501 30.926 37.435 31.339 37.838 33.163C38.051 34.129 38.02 35.07 38.018 35.109C38.008 35.385 37.777 35.594 37.5 35.59C37.225 35.58 37.009 35.348 37.018 35.072C37.046 34.261 36.874 31.939 35.751 31.898C35.148 31.878 34.951 31.988 34.885 32.057C34.719 32.233 34.772 32.794 34.828 33.388C34.847 33.586 34.867 33.796 34.882 34.016C34.995 35.643 36.181 36.021 36.231 36.037C36.494 36.117 36.646 36.393 36.568 36.657C36.506 36.877 36.309 37.019 36.092 37.019Z" fill="#12374F"/>
<path d="M58.972 48.0541L69.221 60.1041L81.215 49.4441L84.996 52.0621L71.852 71.3921C70.931 72.7461 69.066 73.0571 67.756 72.0741L57.363 64.2791L58.972 48.0541Z" fill="#1E90FF"/>
<path d="M69.467 73.1491C68.745 73.1491 68.046 72.9171 67.455 72.4741L57.061 64.6791C56.921 64.5741 56.846 64.4041 56.863 64.2301L58.473 48.0051C58.493 47.8051 58.63 47.6371 58.822 47.5771C59.012 47.5161 59.222 47.5771 59.352 47.7301L69.27 59.3911L80.882 49.0711C81.054 48.9171 81.309 48.9011 81.499 49.0331L85.281 51.6511C85.506 51.8071 85.564 52.1161 85.41 52.3431L72.265 71.6731C71.742 72.4421 70.949 72.9501 70.031 73.1031C69.843 73.1341 69.654 73.1491 69.467 73.1491ZM57.887 64.0481L68.055 71.6741C68.578 72.0661 69.223 72.2241 69.866 72.1151C70.512 72.0081 71.07 71.6511 71.437 71.1101L84.303 52.1901L81.252 50.0781L69.552 60.4771C69.451 60.5661 69.32 60.6081 69.185 60.6021C69.051 60.5921 68.926 60.5291 68.839 60.4271L59.353 49.2731L57.887 64.0481Z" fill="#12374F"/>
<path d="M81.215 49.4441C81.215 49.4441 82.8 47.9091 83.536 47.2791C84.272 46.6481 91.524 47.6991 91.524 47.6991C91.524 47.6991 94.362 45.8071 94.887 46.5431C95.412 47.2791 93.836 50.3271 92.995 51.2721C92.154 52.2171 84.996 52.0611 84.996 52.0611L81.215 49.4441Z" fill="white"/>
<path d="M86.463 52.5781C85.899 52.5781 85.391 52.5711 84.985 52.5621C84.887 52.5601 84.792 52.5291 84.711 52.4731L80.929 49.8551C80.806 49.7691 80.727 49.6341 80.715 49.4851C80.703 49.3361 80.759 49.1891 80.866 49.0851C80.931 49.0221 82.47 47.5331 83.21 46.8991C83.981 46.2361 88.591 46.7741 91.406 47.1771C92.858 46.2301 94.648 45.3521 95.293 46.2531C96.134 47.4301 93.977 50.9201 93.368 51.6051C92.635 52.4301 88.985 52.5781 86.463 52.5781ZM85.157 51.5651C88.429 51.6261 92.169 51.3941 92.622 50.9391C93.522 49.9261 94.7 47.3101 94.475 46.8251C94.223 46.7871 92.927 47.3651 91.801 48.1151C91.698 48.1831 91.573 48.2101 91.452 48.1941C88.216 47.7251 84.385 47.3941 83.834 47.6781C83.374 48.0751 82.522 48.8841 82.002 49.3811L85.157 51.5651Z" fill="#12374F"/>
<path d="M40.463 72.943C40.463 72.943 42.048 71.408 42.784 70.778C43.52 70.148 50.772 71.198 50.772 71.198C50.772 71.198 53.61 69.306 54.135 70.042C54.661 70.778 53.084 73.826 52.243 74.772C51.402 75.718 41.066 76.27 41.066 76.27L40.463 72.943Z" fill="white"/>
<path d="M41.066 76.77C40.826 76.77 40.618 76.598 40.574 76.359L39.971 73.033C39.941 72.869 39.995 72.701 40.116 72.584C40.181 72.521 41.72 71.032 42.46 70.398C43.232 69.736 47.841 70.273 50.656 70.676C52.109 69.729 53.9 68.852 54.543 69.752C55.385 70.93 53.227 74.419 52.618 75.104C51.734 76.099 44.264 76.6 41.095 76.769C41.084 76.77 41.075 76.77 41.066 76.77ZM41.002 73.118L41.479 75.746C46.216 75.476 51.297 74.923 51.878 74.43C52.77 73.426 53.948 70.81 53.722 70.324C53.451 70.284 52.172 70.865 51.048 71.614C50.945 71.682 50.82 71.709 50.699 71.693C47.464 71.224 43.633 70.893 43.081 71.177C42.538 71.646 41.445 72.692 41.002 73.118Z" fill="#12374F"/>
<path d="M22.765 48.0541L18.488 49.9781L16.948 80.0231L41.326 76.8151L41.112 72.1111H25.502L27.213 60.7771C27.213 60.7771 26.999 55.8591 26.358 52.8651" fill="#1E90FF"/>
<path d="M16.948 80.523C16.823 80.523 16.702 80.476 16.609 80.39C16.5 80.289 16.442 80.145 16.449 79.997L17.989 49.952C17.999 49.764 18.112 49.598 18.283 49.521L22.56 47.597C22.81 47.484 23.107 47.595 23.221 47.848C23.334 48.1 23.222 48.396 22.97 48.509L18.972 50.308L17.479 79.448L40.806 76.379L40.635 72.61H25.503C25.357 72.61 25.219 72.547 25.124 72.436C25.029 72.326 24.987 72.179 25.008 72.035L26.719 60.701V60.702C26.71 60.702 26.491 55.872 25.87 52.969C25.812 52.699 25.984 52.433 26.254 52.376C26.521 52.313 26.789 52.49 26.847 52.76C27.49 55.76 27.704 60.553 27.713 60.755L26.084 71.61H41.114C41.381 71.61 41.601 71.82 41.613 72.088L41.827 76.793C41.839 77.052 41.65 77.277 41.393 77.311L17.015 80.519C16.992 80.521 16.97 80.523 16.948 80.523Z" fill="#12374F"/>
<path d="M97.172 19.7341C97.172 14.0711 92.269 9.55312 86.477 10.1931C82.019 10.6861 78.423 14.3571 78.011 18.8231C77.746 21.7021 78.753 24.3471 80.535 26.2641C82.07 27.9151 82.922 30.0851 82.922 32.3391V35.1271H92.219V32.3431C92.219 30.1451 92.968 27.9681 94.492 26.3841C96.151 24.6601 97.172 22.3161 97.172 19.7341Z" fill="#1E90FF"/>
<path d="M92.219 35.6271H82.922C82.646 35.6271 82.422 35.4031 82.422 35.1271V32.3391C82.422 30.2041 81.622 28.1671 80.169 26.6041C78.216 24.5031 77.248 21.6501 77.513 18.7771C77.95 14.0371 81.697 10.2181 86.422 9.69506C89.336 9.37606 92.139 10.2641 94.307 12.2061C96.445 14.1211 97.672 16.8651 97.672 19.7331C97.672 22.3551 96.67 24.8401 94.853 26.7301C93.477 28.1601 92.719 30.1531 92.719 32.3421V35.1261C92.719 35.4031 92.495 35.6271 92.219 35.6271ZM83.422 34.6271H91.719V32.3431C91.719 29.8941 92.576 27.6551 94.132 26.0371C95.77 24.3341 96.672 22.0961 96.672 19.7331C96.672 17.1481 95.567 14.6761 93.64 12.9511C91.686 11.2011 89.164 10.3991 86.531 10.6891C82.344 11.1511 78.895 14.6681 78.509 18.8681C78.267 21.4961 79.116 24.0021 80.902 25.9231C82.527 27.6721 83.423 29.9501 83.423 32.3391V34.6271H83.422Z" fill="#12374F"/>
<path d="M92.41 36.3461H82.808V38.9371H92.41V36.3461Z" fill="#12374F"/>
<path d="M90.567 42.214H84.65C83.633 42.214 82.808 41.389 82.808 40.372V39.623H92.41V40.372C92.409 41.389 91.585 42.214 90.567 42.214Z" fill="#12374F"/>
<path d="M87.164 5.78405C87.026 5.78405 86.914 5.67205 86.914 5.53405V0.248047C86.914 0.110047 87.026 -0.00195312 87.164 -0.00195312C87.302 -0.00195312 87.414 0.110047 87.414 0.248047V5.53405C87.414 5.67205 87.302 5.78405 87.164 5.78405Z" fill="#12374F"/>
<path d="M106.457 20.849H99.85C99.712 20.849 99.6 20.737 99.6 20.599C99.6 20.461 99.712 20.349 99.85 20.349H106.457C106.595 20.349 106.707 20.461 106.707 20.599C106.707 20.737 106.596 20.849 106.457 20.849Z" fill="#12374F"/>
<path d="M74.478 20.849H67.871C67.733 20.849 67.621 20.737 67.621 20.599C67.621 20.461 67.733 20.349 67.871 20.349H74.478C74.616 20.349 74.728 20.461 74.728 20.599C74.728 20.737 74.616 20.849 74.478 20.849Z" fill="#12374F"/>
<path d="M77.385 11.5991C77.336 11.5991 77.286 11.5851 77.243 11.5551L73.807 9.17708C73.693 9.09808 73.665 8.94308 73.744 8.82908C73.822 8.71408 73.979 8.68708 74.092 8.76608L77.527 11.1451C77.641 11.2241 77.669 11.3791 77.591 11.4931C77.542 11.5611 77.464 11.5991 77.385 11.5991Z" fill="#12374F"/>
<path d="M96.679 11.599C96.6 11.599 96.522 11.561 96.473 11.491C96.394 11.378 96.423 11.222 96.537 11.143L99.973 8.764C100.085 8.686 100.243 8.714 100.321 8.827C100.4 8.94 100.371 9.096 100.257 9.175L96.822 11.553C96.778 11.584 96.728 11.599 96.679 11.599Z" fill="#12374F"/>
<path d="M50.71 102.587H45.888V174.68H50.71V102.587Z" fill="white"/>
<path d="M50.71 175.181H45.888C45.612 175.181 45.388 174.957 45.388 174.681V102.588C45.388 102.312 45.612 102.088 45.888 102.088H50.71C50.986 102.088 51.21 102.312 51.21 102.588V174.681C51.21 174.957 50.986 175.181 50.71 175.181ZM46.388 174.181H50.21V103.088H46.388V174.181Z" fill="#12374F"/>
<path d="M207.755 102.587H202.933V174.68H207.755V102.587Z" fill="white"/>
<path d="M207.755 175.181H202.933C202.657 175.181 202.433 174.957 202.433 174.681V102.588C202.433 102.312 202.657 102.088 202.933 102.088H207.755C208.031 102.088 208.255 102.312 208.255 102.588V174.681C208.255 174.957 208.031 175.181 207.755 175.181ZM203.433 174.181H207.255V103.088H203.433V174.181Z" fill="#12374F"/>
<path d="M213.175 101.218H42.082V103.8H213.175V101.218Z" fill="white"/>
<path d="M213.175 104.3H42.081C41.805 104.3 41.581 104.076 41.581 103.8V101.218C41.581 100.942 41.805 100.718 42.081 100.718H213.174C213.45 100.718 213.674 100.942 213.674 101.218V103.8C213.675 104.077 213.451 104.3 213.175 104.3ZM42.581 103.3H212.674V101.718H42.581V103.3Z" fill="#12374F"/>
<path d="M80.58 81.713H55.535L57.714 101.229H82.759L80.58 81.713Z" fill="white"/>
<path d="M82.759 101.729H57.714C57.459 101.729 57.245 101.538 57.217 101.285L55.038 81.769C55.022 81.627 55.068 81.486 55.163 81.38C55.258 81.274 55.393 81.214 55.536 81.214H80.581C80.836 81.214 81.05 81.405 81.078 81.658L83.257 101.174C83.273 101.316 83.227 101.457 83.133 101.563C83.037 101.669 82.901 101.729 82.759 101.729ZM58.161 100.729H82.2L80.133 82.213H56.094L58.161 100.729Z" fill="#12374F"/>
<path d="M100.799 99.786H82.836V101.23H100.799V99.786Z" fill="white"/>
<path d="M100.799 101.729H82.836C82.56 101.729 82.336 101.505 82.336 101.229V99.786C82.336 99.51 82.56 99.286 82.836 99.286H100.799C101.075 99.286 101.299 99.51 101.299 99.786V101.229C101.299 101.505 101.075 101.729 100.799 101.729ZM83.335 100.729H100.298V100.286H83.335V100.729Z" fill="#12374F"/>
<path d="M201.539 71.7751L205.375 52.6091L195.899 48.8621L190.865 47.1331L185.831 48.8621L177.547 51.7821L180.179 71.7171L180.006 74.6571L176.665 84.1491C176.075 85.8261 175.773 87.592 175.773 89.37V98.5451L190.765 102.499L205.757 98.5451V89.37C205.757 87.592 205.455 85.8271 204.865 84.1491L201.524 74.6571L201.539 71.7751Z" fill="#1E90FF"/>
<path d="M190.766 102.999C190.723 102.999 190.68 102.994 190.638 102.982L175.646 99.0281C175.427 98.9701 175.274 98.7721 175.274 98.5451V89.37C175.274 87.531 175.584 85.7181 176.195 83.9831L179.512 74.5571L179.681 71.687L177.052 51.8471C177.022 51.6131 177.158 51.3891 177.382 51.3101L190.703 46.6601C190.808 46.6241 190.922 46.6241 191.027 46.6601L196.061 48.3891L205.558 52.1441C205.784 52.2331 205.912 52.4701 205.865 52.7071L202.039 71.8251L202.025 74.5721L205.338 83.9831C205.948 85.7191 206.258 87.531 206.258 89.37V98.5451C206.258 98.7721 206.105 98.9711 205.886 99.0281L190.894 102.982C190.852 102.994 190.809 102.999 190.766 102.999ZM176.273 98.1601L190.765 101.982L205.257 98.1601V89.37C205.257 87.645 204.967 85.9441 204.394 84.3151L201.053 74.8221C201.035 74.7681 201.025 74.7111 201.025 74.6531L201.039 71.7711C201.039 71.7391 201.042 71.7071 201.049 71.6751L204.803 52.9191L195.716 49.325L190.865 47.659L185.994 49.3321L178.097 52.1161L180.676 71.6481L180.506 74.6831C180.503 74.7301 180.494 74.7761 180.479 74.8201L177.138 84.3131C176.565 85.9411 176.274 87.642 176.274 89.368L176.273 98.1601Z" fill="#12374F"/>
<path d="M197.631 49.659L195.9 48.862L195.735 48.896L194.953 48.7L193.818 40.167L187.36 40.329L186.472 48.862L186.093 48.994L185.444 49.04L184.368 49.536L183.33 57.27H195.6L197.631 49.659Z" fill="white"/>
<path d="M195.6 57.77H183.33C183.185 57.77 183.049 57.707 182.954 57.599C182.858 57.491 182.815 57.346 182.835 57.203L183.873 49.469C183.895 49.299 184.004 49.153 184.159 49.081L185.235 48.585C185.29 48.56 185.348 48.544 185.409 48.541L186.007 48.494L186.863 40.277C186.888 40.027 187.096 39.835 187.347 39.829L193.805 39.667C194.063 39.659 194.28 39.848 194.314 40.101L195.404 48.298L195.745 48.383L195.796 48.372C195.902 48.35 196.012 48.363 196.109 48.407L197.84 49.204C198.061 49.306 198.177 49.552 198.115 49.787L196.084 57.398C196.024 57.618 195.826 57.77 195.6 57.77ZM183.901 56.77H195.215L197.038 49.937L195.84 49.385H195.838C195.762 49.4 195.685 49.399 195.612 49.381L194.83 49.185C194.632 49.135 194.483 48.969 194.456 48.766L193.381 40.678L187.812 40.818L186.968 48.914C186.948 49.106 186.819 49.27 186.636 49.334L186.257 49.467C186.215 49.482 186.172 49.491 186.127 49.494L185.569 49.533L184.826 49.876L183.901 56.77Z" fill="#12374F"/>
<path d="M179.566 118.162C179.566 118.162 181.57 133.08 181.793 135.751C182.016 138.423 184.242 165.141 184.242 165.141C184.242 165.141 180.902 170.485 180.234 170.93C179.566 171.375 175.611 174.386 175.611 174.386H182.918L188.472 170.262C188.472 170.262 190.476 170.039 190.476 169.149C190.476 168.258 188.918 163.805 188.918 163.805L189.809 134.192L189.586 117.048L179.566 118.162Z" fill="white"/>
<path d="M182.918 174.887H175.611C175.396 174.887 175.206 174.75 175.137 174.547C175.069 174.344 175.137 174.119 175.308 173.989C175.47 173.866 179.283 170.964 179.955 170.515C180.338 170.234 182.156 167.525 183.728 165.018L181.292 135.793C181.072 133.164 179.088 118.378 179.068 118.229C179.05 118.096 179.087 117.961 179.17 117.855C179.252 117.749 179.374 117.681 179.508 117.666L189.528 116.553C189.668 116.539 189.809 116.582 189.915 116.675C190.02 116.768 190.082 116.902 190.084 117.043L190.307 134.187L189.419 163.729C189.741 164.655 190.975 168.253 190.975 169.15C190.975 170.315 189.268 170.658 188.664 170.743L183.215 174.789C183.13 174.852 183.025 174.887 182.918 174.887ZM177.098 173.887H182.753L188.174 169.862C188.244 169.809 188.328 169.777 188.416 169.766C189.174 169.681 189.976 169.364 189.976 169.15C189.976 168.563 189.037 165.662 188.446 163.971C188.426 163.913 188.416 163.852 188.418 163.791L189.309 134.178L189.093 117.607L180.13 118.603C180.487 121.276 182.091 133.304 182.291 135.711L184.74 165.101C184.749 165.208 184.723 165.316 184.666 165.408C183.869 166.683 181.215 170.879 180.512 171.348C180.093 171.626 178.315 172.964 177.098 173.887Z" fill="#12374F"/>
<path d="M190.03 114.822L190.475 130.185L194.928 165.586C194.928 165.586 196.041 171.152 196.932 173.379C197.823 175.606 200.94 175.828 202.276 174.938C203.612 174.048 201.385 169.817 200.272 167.59C199.159 165.363 198.936 164.028 198.936 164.028L199.604 132.857L201.122 113.833L190.03 114.822Z" fill="white"/>
<path d="M200.392 175.927C199.893 175.927 199.381 175.854 198.897 175.703C197.739 175.344 196.877 174.584 196.469 173.565C195.572 171.322 194.485 165.914 194.439 165.685L189.98 130.248L189.531 114.837C189.523 114.572 189.723 114.348 189.987 114.324L201.079 113.335C201.223 113.319 201.37 113.374 201.475 113.478C201.579 113.582 201.633 113.726 201.621 113.873L200.103 132.897L199.437 164.036C199.447 164.036 199.693 165.313 200.72 167.368L200.907 167.74C202.636 171.179 204.062 174.349 202.554 175.354C201.989 175.73 201.209 175.927 200.392 175.927ZM190.544 115.278L190.976 130.171L195.425 165.525C195.43 165.545 196.533 171.036 197.397 173.194C197.774 174.134 198.582 174.558 199.194 174.748C200.168 175.05 201.348 174.956 202 174.522C202.896 173.924 200.727 169.607 200.014 168.189L199.826 167.815C198.692 165.547 198.454 164.169 198.444 164.111L199.105 132.847L200.577 114.384L190.544 115.278Z" fill="#12374F"/>
<path d="M180.234 170.93C179.566 171.375 175.611 174.386 175.611 174.386H182.918L188.472 170.262C188.472 170.262 190.476 170.039 190.476 169.149C190.476 168.702 190.084 167.36 189.693 166.133L182.792 171.549L180.234 170.93Z" fill="#12374F"/>
<path d="M182.918 174.887H175.611C175.396 174.887 175.206 174.75 175.137 174.547C175.069 174.344 175.137 174.12 175.308 173.989C175.47 173.866 179.283 170.963 179.955 170.515C180.071 170.437 180.216 170.41 180.35 170.445L182.673 171.007L189.384 165.74C189.512 165.639 189.681 165.607 189.84 165.655C189.996 165.703 190.119 165.825 190.169 165.981C190.891 168.251 190.975 168.876 190.975 169.149C190.975 170.314 189.268 170.657 188.664 170.742L183.215 174.788C183.13 174.852 183.025 174.887 182.918 174.887ZM177.097 173.887H182.753L188.174 169.862C188.244 169.809 188.328 169.777 188.416 169.766C189.174 169.681 189.976 169.364 189.976 169.15C189.976 169.05 189.933 168.614 189.432 166.974L183.101 171.943C182.981 172.038 182.822 172.073 182.675 172.035L180.334 171.469C179.722 171.904 178.185 173.062 177.097 173.887Z" fill="#12374F"/>
<path d="M196.272 171.226L196.251 171.25C196.478 172.074 196.712 172.83 196.932 173.38C197.823 175.607 200.94 175.829 202.276 174.939C203.058 174.418 202.617 172.752 201.896 171.014L196.272 171.226Z" fill="#12374F"/>
<path d="M200.392 175.927C199.894 175.927 199.381 175.853 198.897 175.703C197.739 175.344 196.877 174.584 196.469 173.565C196.26 173.044 196.031 172.33 195.769 171.383C195.724 171.219 195.765 171.043 195.879 170.916C195.97 170.815 196.118 170.732 196.254 170.727L201.878 170.515C202.082 170.497 202.278 170.63 202.358 170.823C203.063 172.524 203.722 174.575 202.553 175.355C201.989 175.73 201.209 175.927 200.392 175.927ZM196.899 171.702C197.082 172.323 197.248 172.823 197.396 173.193C197.773 174.134 198.581 174.558 199.193 174.748C200.167 175.05 201.347 174.956 201.999 174.522C202.142 174.427 202.516 173.933 201.564 171.526L196.899 171.702Z" fill="#12374F"/>
<path d="M205.758 89.3701C205.758 87.5921 205.456 85.8271 204.866 84.1491L201.868 75.6321H179.663L176.666 84.1491C176.076 85.8261 175.774 87.5921 175.774 89.3701L175.847 119.745H205.657L205.758 89.3701Z" fill="#12374F"/>
<path d="M205.657 120.244H175.846C175.571 120.244 175.347 120.021 175.346 119.745L175.273 89.3711C175.273 87.5311 175.583 85.7181 176.194 83.9831L179.191 75.4661C179.261 75.2661 179.451 75.1321 179.663 75.1321H201.868C202.08 75.1321 202.269 75.2661 202.34 75.4661L205.338 83.9831C205.948 85.7191 206.258 87.5311 206.258 89.3701C206.258 89.3711 206.258 89.3711 206.258 89.3711L206.157 119.746C206.156 120.021 205.933 120.244 205.657 120.244ZM176.346 119.244H205.159L205.258 89.3681C205.258 87.6431 204.967 85.9431 204.395 84.3151L201.514 76.1321H180.018L177.138 84.3151C176.565 85.9431 176.274 87.6441 176.274 89.3701L176.346 119.244Z" fill="#12374F"/>
<path d="M177.547 51.782L175.764 69.389L163.283 64.04L161.723 68.275C161.723 68.275 173.981 75.63 175.318 76.521C176.655 77.413 179.662 75.633 179.662 75.633L180.179 71.717L177.547 51.782Z" fill="#1E90FF"/>
<path d="M176.287 77.267C175.829 77.267 175.397 77.174 175.041 76.936C173.73 76.061 161.589 68.776 161.467 68.703C161.261 68.58 161.172 68.327 161.255 68.101L162.816 63.866C162.863 63.737 162.962 63.634 163.087 63.579C163.212 63.525 163.355 63.525 163.482 63.579L175.337 68.66L177.052 51.731C177.077 51.479 177.287 51.285 177.541 51.281C177.544 51.281 177.547 51.281 177.549 51.281C177.8 51.281 178.012 51.467 178.045 51.716L180.677 71.651C180.682 71.694 180.682 71.738 180.677 71.782L180.16 75.698C180.14 75.85 180.051 75.985 179.919 76.063C179.659 76.215 177.826 77.267 176.287 77.267ZM162.336 68.058C164.397 69.295 174.377 75.291 175.596 76.104C176.324 76.59 178.106 75.921 179.2 75.32L179.676 71.716L177.613 56.097L176.261 69.438C176.245 69.596 176.155 69.738 176.018 69.818C175.88 69.899 175.714 69.91 175.567 69.847L163.571 64.705L162.336 68.058Z" fill="#12374F"/>
<path d="M163.284 64.039L159.495 61.365L155.476 58.647C155.476 58.647 154.185 59.4 154.831 59.938C155.476 60.476 157.52 61.982 157.52 61.982L152.788 63.273C152.788 63.273 150.314 62.305 150.207 62.95C150.1 63.595 152.681 65.316 154.402 66.392C156.123 67.468 159.78 66.715 159.78 66.715L161.726 68.275L163.284 64.039Z" fill="white"/>
<path d="M161.724 68.774C161.612 68.774 161.501 68.736 161.411 68.664L159.643 67.247C158.775 67.398 155.757 67.829 154.135 66.814C149.533 63.939 149.645 63.268 149.711 62.866C149.747 62.648 149.876 62.467 150.072 62.356C150.653 62.024 151.977 62.431 152.812 62.746L156.394 61.769C155.746 61.286 154.894 60.643 154.508 60.322C154.252 60.109 154.125 59.824 154.15 59.521C154.206 58.856 154.984 58.353 155.221 58.214C155.387 58.118 155.592 58.124 155.753 58.232L159.773 60.95L163.57 63.63C163.755 63.761 163.83 63.999 163.751 64.211L162.19 68.446C162.134 68.597 162.01 68.712 161.855 68.755C161.814 68.768 161.769 68.774 161.724 68.774ZM159.777 66.214C159.889 66.214 160.001 66.252 160.09 66.324L161.494 67.45L162.683 64.226L159.207 61.773L155.477 59.252C155.305 59.387 155.166 59.534 155.148 59.611C155.776 60.076 157.795 61.564 157.816 61.579C157.97 61.693 158.045 61.885 158.01 62.073C157.975 62.262 157.835 62.413 157.651 62.464L152.918 63.755C152.816 63.784 152.704 63.777 152.605 63.738C151.979 63.493 151.303 63.303 150.889 63.244C151.226 63.588 152.148 64.395 154.664 65.968C155.934 66.761 158.712 66.421 159.676 66.225C159.71 66.217 159.744 66.214 159.777 66.214Z" fill="#12374F"/>
<path d="M205.375 52.609L210.576 72.375L207.554 97.188L204.19 95.922L204.532 73.488L202.464 67.762L205.375 52.609Z" fill="#1E90FF"/>
<path d="M207.554 97.689C207.494 97.689 207.435 97.678 207.378 97.657L204.014 96.39C203.816 96.316 203.687 96.125 203.69 95.914L204.032 73.572L201.994 67.932C201.964 67.848 201.957 67.756 201.973 67.668L204.884 52.515C204.928 52.286 205.125 52.118 205.359 52.11C205.593 52.098 205.799 52.256 205.859 52.482L211.06 72.248C211.077 72.31 211.08 72.373 211.073 72.436L208.051 97.249C208.032 97.401 207.946 97.537 207.814 97.616C207.733 97.664 207.644 97.689 207.554 97.689ZM204.694 95.578L207.134 96.496L210.068 72.41L205.451 54.863L202.98 67.722L205.002 73.319C205.023 73.376 205.032 73.436 205.031 73.497L204.694 95.578Z" fill="#12374F"/>
<path d="M201.849 38.899C201.849 41.334 199.875 43.307 197.441 43.307C195.006 43.307 193.032 41.333 193.032 38.899C193.032 36.464 195.006 34.49 197.441 34.49C199.876 34.491 201.849 36.465 201.849 38.899Z" fill="#12374F"/>
<path d="M197.441 43.808C194.734 43.808 192.532 41.606 192.532 38.9C192.532 36.194 194.734 33.991 197.441 33.991C200.147 33.991 202.349 36.193 202.349 38.9C202.35 41.606 200.147 43.808 197.441 43.808ZM197.441 34.991C195.286 34.991 193.532 36.744 193.532 38.9C193.532 41.055 195.286 42.808 197.441 42.808C199.596 42.808 201.349 41.055 201.349 38.9C201.35 36.744 199.597 34.991 197.441 34.991Z" fill="#12374F"/>
<path d="M188.936 24.0201C188.936 24.0201 185.755 24.8151 184.164 27.5191C182.573 30.2231 182.732 34.8361 183.21 38.1761C183.688 41.5161 184.642 44.0611 185.437 44.8571C186.232 45.6521 187.482 46.1621 189.232 45.8441C190.982 45.5261 193.661 42.8911 194.138 42.5731C194.615 42.2551 195.299 40.0851 195.299 40.0851C195.299 40.0851 198.639 36.4271 198.798 33.4041C198.957 30.3821 197.207 26.2461 194.662 24.9741C192.117 23.7021 188.936 24.0201 188.936 24.0201Z" fill="white"/>
<path d="M188.229 46.4381C186.981 46.4381 185.888 46.0171 185.083 45.2101C184.125 44.2531 183.173 41.4551 182.714 38.2471C182.317 35.4671 181.922 30.3441 183.734 27.2661C185.411 24.4141 188.676 23.5691 188.815 23.5351C188.838 23.5291 188.862 23.5251 188.886 23.5221C189.022 23.5081 192.243 23.2051 194.886 24.5271C197.687 25.9271 199.459 30.3441 199.297 33.4311C199.143 36.3731 196.26 39.7541 195.742 40.3391C195.458 41.2231 194.936 42.6411 194.415 42.9881C194.319 43.0521 194.129 43.2201 193.869 43.4421C192.805 44.3571 190.822 46.0621 189.321 46.3351C188.946 46.4041 188.582 46.4381 188.229 46.4381ZM189.023 24.5141C188.685 24.6091 185.969 25.4351 184.594 27.7731C182.876 30.6941 183.399 35.9721 183.703 38.1061C184.176 41.4101 185.11 43.8261 185.789 44.5031C186.352 45.0661 187.394 45.6701 189.141 45.3521C190.375 45.1281 192.294 43.4771 193.217 42.6851C193.521 42.4241 193.747 42.2321 193.86 42.1581C194.046 42.0011 194.498 40.9601 194.821 39.9361C194.843 39.8671 194.88 39.8031 194.928 39.7491C194.96 39.7131 198.15 36.1851 198.298 33.3791C198.443 30.6071 196.822 26.6151 194.438 25.4221C192.203 24.3041 189.381 24.4861 189.023 24.5141Z" fill="#12374F"/>
<path d="M183.05 31.178C183.05 31.178 186.231 30.701 189.571 29.746C192.911 28.792 192.911 28.792 192.911 28.792C192.911 28.792 191.957 31.496 192.275 32.928C192.593 34.36 194.025 36.905 194.025 36.905C194.025 36.905 194.946 35.197 195.739 35.369C198.448 35.958 196.093 38.814 196.093 38.814C196.093 38.814 198.638 37.86 198.797 33.406C198.956 28.952 197.684 24.021 193.707 23.385C189.73 22.749 187.185 21.953 184.004 25.612C180.823 29.269 180.505 30.86 183.05 31.178Z" fill="#12374F"/>
<path d="M196.094 39.313C195.937 39.313 195.783 39.238 195.688 39.104C195.556 38.92 195.565 38.67 195.709 38.496C195.985 38.158 196.726 37.051 196.504 36.415C196.412 36.151 196.119 35.963 195.634 35.858C195.463 35.826 194.86 36.414 194.467 37.142C194.38 37.303 194.213 37.403 194.031 37.405C193.843 37.431 193.68 37.309 193.591 37.15C193.531 37.044 192.119 34.524 191.789 33.037C191.562 32.019 191.895 30.492 192.163 29.527L189.711 30.228C186.377 31.18 183.157 31.668 183.125 31.673C183.08 31.679 183.034 31.68 182.989 31.674C181.869 31.534 181.204 31.15 180.954 30.498C180.551 29.442 181.325 27.931 183.629 25.283C186.736 21.709 189.437 22.162 192.857 22.737L193.788 22.891C198.102 23.581 199.464 28.785 199.3 33.423C199.13 38.156 196.388 39.238 196.272 39.282C196.212 39.303 196.152 39.313 196.094 39.313ZM195.623 34.855C195.696 34.855 195.77 34.863 195.846 34.879C196.696 35.064 197.235 35.47 197.448 36.087C197.512 36.268 197.54 36.456 197.542 36.645C197.929 35.899 198.246 34.85 198.298 33.386C198.448 29.174 197.3 24.464 193.628 23.877L192.69 23.722C189.218 23.139 187.124 22.786 184.382 25.939C182.027 28.646 181.726 29.718 181.888 30.14C182.011 30.462 182.57 30.607 183.044 30.673C183.523 30.598 186.433 30.124 189.435 29.265L192.775 28.311C192.958 28.261 193.148 28.314 193.277 28.449C193.405 28.585 193.446 28.781 193.384 28.958C193.132 29.673 192.53 31.762 192.765 32.819C192.96 33.702 193.626 35.074 194.064 35.916C194.448 35.402 195.003 34.855 195.623 34.855Z" fill="#12374F"/>
<path d="M184.959 40.176C184.888 40.176 184.818 40.145 184.77 40.09C184.713 40.026 184.695 39.936 184.719 39.854C184.724 39.838 185.198 38.254 185.511 37.002C185.792 35.877 185.409 35.324 185.393 35.301C185.314 35.19 185.338 35.034 185.449 34.953C185.559 34.872 185.714 34.894 185.796 35.004C185.818 35.034 186.34 35.751 185.996 37.123C185.774 38.013 185.472 39.067 185.31 39.619L187.348 39.304C187.485 39.285 187.612 39.377 187.633 39.513C187.655 39.649 187.561 39.777 187.424 39.798L184.996 40.173C184.984 40.175 184.972 40.176 184.959 40.176Z" fill="#12374F"/>
<path d="M189.182 35.961C189.182 36.427 188.969 36.806 188.707 36.806C188.445 36.806 188.232 36.428 188.232 35.961C188.232 35.494 188.445 35.116 188.707 35.116C188.969 35.116 189.182 35.494 189.182 35.961Z" fill="#12374F"/>
<path d="M184.906 35.433C184.906 35.899 184.693 36.278 184.431 36.278C184.169 36.278 183.956 35.9 183.956 35.433C183.956 34.966 184.169 34.588 184.431 34.588C184.693 34.589 184.906 34.967 184.906 35.433Z" fill="#12374F"/>
<path d="M186.44 41.695C185.794 41.695 185.464 41.457 185.441 41.44C185.331 41.357 185.308 41.2 185.391 41.09C185.472 40.981 185.626 40.957 185.739 41.038C185.757 41.051 186.52 41.546 188.114 40.702C188.235 40.639 188.387 40.684 188.452 40.806C188.517 40.928 188.471 41.079 188.349 41.144C187.544 41.57 186.909 41.695 186.44 41.695Z" fill="#12374F"/>
<path d="M190.237 34.627C190.168 34.627 190.098 34.598 190.048 34.542C189.615 34.047 189.169 33.793 188.72 33.785C188.712 33.785 188.705 33.785 188.698 33.785C188.1 33.785 187.678 34.227 187.674 34.231C187.581 34.331 187.423 34.338 187.321 34.243C187.22 34.149 187.213 33.992 187.307 33.891C187.33 33.866 187.876 33.285 188.697 33.285C188.705 33.285 188.713 33.285 188.72 33.285C189.32 33.293 189.892 33.605 190.424 34.213C190.515 34.317 190.504 34.475 190.401 34.566C190.354 34.607 190.296 34.627 190.237 34.627Z" fill="#12374F"/>
<path d="M185.275 34.31C185.208 34.31 185.139 34.283 185.09 34.229C184.964 34.092 184.56 33.732 184.187 33.763C183.998 33.775 183.834 33.885 183.685 34.098C183.605 34.211 183.449 34.238 183.336 34.159C183.223 34.08 183.195 33.924 183.275 33.811C183.514 33.47 183.811 33.285 184.157 33.263C184.178 33.262 184.201 33.261 184.223 33.261C184.878 33.261 185.436 33.865 185.459 33.892C185.552 33.994 185.545 34.151 185.442 34.245C185.395 34.289 185.336 34.31 185.275 34.31Z" fill="#12374F"/>
<path d="M204.19 95.922L202.739 99.147L202.578 103.501L203.388 103.423L203.915 102.632L204.047 106.585L206.024 106.519C206.024 106.519 207.408 103.158 207.605 102.763C207.803 102.368 207.555 97.187 207.555 97.187L204.19 95.922Z" fill="white"/>
<path d="M204.046 107.086C203.777 107.086 203.556 106.873 203.546 106.603L203.457 103.919C203.449 103.92 203.442 103.921 203.435 103.922L202.625 104C202.484 104.013 202.339 103.965 202.234 103.866C202.129 103.767 202.072 103.628 202.077 103.484L202.238 99.1301C202.241 99.0661 202.256 99.002 202.282 98.943L203.733 95.717C203.841 95.476 204.119 95.361 204.365 95.454L207.729 96.721C207.917 96.791 208.043 96.966 208.052 97.165C208.307 102.477 208.115 102.862 208.051 102.989C207.911 103.268 207.037 105.368 206.484 106.712C206.41 106.894 206.235 107.015 206.039 107.021L204.062 107.086C204.057 107.086 204.051 107.086 204.046 107.086ZM203.914 102.133C203.96 102.133 204.006 102.139 204.051 102.152C204.26 102.212 204.406 102.399 204.414 102.616L204.529 106.07L205.683 106.031C206.039 105.167 206.985 102.883 207.157 102.54C207.225 102.237 207.173 99.8071 207.069 97.5391L204.453 96.5541L203.234 99.262L203.097 102.948L203.102 102.947L203.498 102.354C203.593 102.214 203.75 102.133 203.914 102.133Z" fill="#12374F"/>
</svg>
