<svg width="204" height="182" viewBox="0 0 204 182" fill="none" xmlns="http://www.w3.org/2000/svg">
<path d="M202.75 181.926H1.42401C1.14801 181.926 0.924011 181.702 0.924011 181.426C0.924011 181.15 1.14801 180.926 1.42401 180.926H202.75C203.026 180.926 203.25 181.15 203.25 181.426C203.25 181.702 203.026 181.926 202.75 181.926Z" fill="#12374F"/>
<path d="M182.35 148.954C181.048 149.36 178.017 148.957 178.014 148.957C177.983 148.953 178.886 147.04 178.957 146.925C179.778 145.604 182.14 143.533 183.83 143.954C185.048 144.257 185.599 145.57 185.191 146.703C184.776 147.859 183.459 148.608 182.35 148.954Z" fill="#12374F"/>
<path d="M154.092 148.104C154.064 148.118 153.762 146.024 153.758 145.889C153.714 144.334 154.541 141.304 156.183 140.723C157.366 140.304 158.549 141.095 158.835 142.264C159.127 143.459 158.441 144.809 157.707 145.71C156.846 146.767 154.095 148.103 154.092 148.104Z" fill="#12374F"/>
<path d="M154.621 170.495C155.638 170.625 157.649 170.053 158.213 169.883C158.305 170.749 158.416 171.606 158.565 172.445C158.637 172.805 158.688 173.178 158.777 173.519C158.859 173.865 158.941 174.208 159.021 174.548C159.212 175.244 159.388 175.892 159.583 176.536C159.679 176.862 159.778 177.167 159.875 177.483C159.633 176.983 159.237 176.197 159.193 176.129C158.446 174.984 156.329 173.212 154.852 173.616C153.788 173.907 153.33 175.071 153.71 176.058C154.099 177.066 155.271 177.698 156.252 177.98C157.334 178.291 159.714 177.948 160.005 177.904C160.248 178.675 160.491 179.424 160.732 180.12C160.889 180.577 161.042 181.008 161.194 181.427H162.199C162 180.916 161.797 180.387 161.586 179.816C161.355 179.192 161.12 178.526 160.886 177.84C161.153 177.729 163.214 176.852 164.045 176.05C164.914 176.603 165.904 177.071 166.078 177.153C165.855 177.93 165.645 178.688 165.462 179.402C165.276 180.12 165.114 180.788 164.964 181.427H165.938C166.061 180.853 166.192 180.259 166.343 179.619C166.494 178.971 166.666 178.286 166.849 177.585C167.143 177.642 169.502 178.078 170.594 177.811C171.586 177.569 172.782 176.985 173.211 175.993C173.631 175.022 173.22 173.84 172.168 173.507C170.708 173.045 168.522 174.731 167.73 175.844C167.679 175.915 167.174 176.825 166.926 177.296C167.038 176.872 167.148 176.451 167.272 176.012C167.445 175.379 167.65 174.716 167.844 174.072C167.957 173.742 168.071 173.408 168.186 173.071C168.295 172.729 168.441 172.416 168.568 172.082C168.765 171.597 168.993 171.108 169.219 170.618C169.853 170.834 171.724 171.434 172.709 171.348C173.726 171.259 174.997 170.863 175.571 169.947C176.133 169.05 175.906 167.82 174.917 167.331C173.545 166.653 171.128 167.988 170.176 168.969C170.145 169.001 169.965 169.229 169.755 169.502C169.99 169.031 170.224 168.559 170.478 168.09C171.199 166.758 171.976 165.423 172.749 164.083C172.91 163.804 173.067 163.522 173.227 163.242C173.76 163.426 175.781 164.095 176.813 164.005C177.83 163.916 179.101 163.52 179.675 162.604C180.237 161.707 180.01 160.477 179.021 159.988C177.649 159.31 175.232 160.645 174.28 161.626C174.246 161.661 174.032 161.934 173.795 162.241C174.204 161.507 174.603 160.77 174.976 160.026C175.63 158.726 176.204 157.411 176.659 156.092C176.846 156.159 179.2 156.991 180.347 156.89C181.364 156.801 182.635 156.405 183.209 155.489C183.771 154.592 183.544 153.362 182.555 152.873C181.183 152.195 178.766 153.53 177.814 154.511C177.747 154.581 176.98 155.574 176.718 155.937C176.723 155.921 176.731 155.906 176.736 155.89C177.201 154.502 177.473 153.119 177.668 151.794C177.864 150.473 177.936 149.213 177.973 148.052C178.012 146.89 177.977 145.825 177.938 144.883C177.913 144.373 177.881 143.907 177.845 143.472C177.85 143.476 177.871 143.492 177.871 143.492C177.894 143.509 178.509 141.754 178.535 141.639C178.837 140.306 178.637 137.552 177.319 136.773C176.37 136.211 175.215 136.693 174.771 137.653C174.317 138.634 174.679 139.915 175.16 140.816C175.652 141.739 177.348 143.088 177.773 143.418C177.8 143.87 177.824 144.353 177.839 144.889C177.857 145.83 177.87 146.892 177.806 148.048C177.79 148.356 177.759 148.687 177.736 149.008C177.663 148.459 177.552 147.707 177.534 147.635C177.188 146.313 175.741 143.961 174.213 143.876C173.112 143.815 172.309 144.774 172.357 145.831C172.406 146.91 173.318 147.881 174.159 148.459C175.037 149.062 177.218 149.481 177.696 149.567C177.633 150.277 177.552 151.005 177.423 151.759C177.203 153.062 176.9 154.438 176.411 155.796C176.364 155.788 176.372 155.789 176.325 155.782C176.32 155.267 176.283 154.185 176.27 154.096C176.071 152.744 174.892 150.248 173.382 149.995C172.294 149.813 171.391 150.679 171.322 151.734C171.252 152.812 172.052 153.877 172.825 154.544C173.716 155.313 176.209 156.032 176.303 156.059C175.832 157.32 175.251 158.58 174.59 159.826C174.112 160.73 173.591 161.625 173.059 162.519C173.065 162.158 173.018 160.738 173.003 160.636C172.804 159.284 171.625 156.788 170.115 156.535C169.027 156.353 168.124 157.219 168.055 158.274C167.985 159.353 168.785 160.417 169.558 161.084C170.427 161.834 172.813 162.535 173.015 162.592C172.773 162.998 172.534 163.404 172.288 163.809C171.488 165.131 170.679 166.452 169.922 167.781C169.659 168.241 169.418 168.704 169.173 169.167C169.165 168.625 169.131 167.638 169.119 167.554C168.92 166.202 167.741 163.705 166.231 163.453C165.143 163.271 164.24 164.137 164.171 165.192C164.101 166.27 164.901 167.335 165.674 168.002C166.45 168.672 168.444 169.304 169.008 169.474C168.607 170.247 168.227 171.023 167.889 171.805C167.751 172.145 167.587 172.483 167.473 172.818C167.351 173.152 167.229 173.483 167.109 173.811C166.885 174.498 166.674 175.135 166.481 175.779C166.381 176.104 166.295 176.413 166.202 176.73C166.276 176.179 166.379 175.305 166.38 175.225C166.388 173.858 165.6 171.212 164.146 170.734C163.098 170.39 162.074 171.108 161.846 172.141C161.817 172.272 161.802 172.405 161.798 172.54C161.098 173.539 160.691 174.994 160.66 175.902C160.657 175.989 160.738 177.027 160.791 177.556C160.651 177.141 160.51 176.729 160.372 176.294C160.168 175.67 159.972 175.004 159.779 174.36C159.691 174.022 159.602 173.681 159.513 173.337C159.415 172.991 159.364 172.65 159.286 172.301C159.183 171.788 159.103 171.254 159.021 170.72C159.669 170.55 161.561 170.019 162.335 169.404C163.134 168.769 163.976 167.737 163.949 166.657C163.923 165.599 163.055 164.698 161.961 164.836C160.442 165.027 159.164 167.474 158.91 168.818C158.902 168.862 158.878 169.151 158.853 169.494C158.79 168.972 158.724 168.449 158.677 167.918C158.544 166.409 158.456 164.867 158.361 163.323C158.341 163.001 158.317 162.68 158.296 162.358C158.842 162.218 160.897 161.66 161.707 161.016C162.506 160.381 163.348 159.349 163.321 158.269C163.295 157.211 162.427 156.31 161.333 156.448C159.814 156.639 158.536 159.086 158.283 160.43C158.274 160.478 158.246 160.824 158.218 161.211C158.154 160.373 158.08 159.538 157.981 158.712C157.809 157.267 157.562 155.853 157.214 154.503C157.407 154.455 159.829 153.851 160.731 153.134C161.53 152.499 162.372 151.467 162.345 150.387C162.319 149.329 161.451 148.428 160.357 148.566C158.838 148.757 157.56 151.204 157.307 152.548C157.289 152.643 157.197 153.895 157.179 154.343C157.175 154.327 157.172 154.31 157.168 154.294C156.79 152.879 156.254 151.576 155.686 150.364C155.121 149.154 154.486 148.063 153.876 147.075C153.268 146.084 152.651 145.215 152.098 144.451C151.796 144.04 151.511 143.669 151.242 143.326C151.248 143.326 151.275 143.328 151.275 143.328C151.303 143.33 150.848 141.527 150.806 141.416C150.322 140.138 148.636 137.951 147.107 138.028C146.006 138.083 145.308 139.122 145.467 140.168C145.63 141.236 146.638 142.105 147.536 142.591C148.456 143.089 150.615 143.279 151.151 143.319C151.423 143.681 151.71 144.071 152.017 144.509C152.552 145.283 153.148 146.163 153.732 147.162C153.888 147.428 154.046 147.72 154.203 148.001C153.839 147.583 153.332 147.017 153.277 146.967C152.259 146.055 149.755 144.892 148.433 145.664C147.481 146.22 147.34 147.464 147.963 148.319C148.599 149.192 149.895 149.499 150.916 149.516C151.981 149.535 154.031 148.681 154.477 148.489C154.816 149.116 155.15 149.768 155.459 150.468C155.994 151.675 156.501 152.991 156.842 154.392C156.798 154.412 156.806 154.408 156.762 154.428C156.473 154.002 155.847 153.12 155.787 153.053C154.875 152.035 152.514 150.604 151.116 151.226C150.109 151.675 149.832 152.895 150.358 153.813C150.895 154.751 152.149 155.198 153.162 155.327C154.329 155.477 156.805 154.701 156.898 154.672C157.201 155.984 157.411 157.354 157.547 158.759C157.647 159.776 157.706 160.811 157.756 161.85C157.561 161.545 156.74 160.387 156.671 160.31C155.759 159.292 153.398 157.861 152 158.483C150.992 158.932 150.716 160.152 151.242 161.07C151.779 162.008 153.033 162.455 154.046 162.584C155.185 162.73 157.561 161.998 157.761 161.935C157.783 162.407 157.808 162.878 157.826 163.351C157.888 164.895 157.942 166.443 158.043 167.969C158.078 168.498 158.132 169.017 158.183 169.538C157.877 169.09 157.305 168.286 157.248 168.223C156.336 167.205 153.975 165.774 152.577 166.396C151.569 166.845 151.293 168.065 151.819 168.983C152.354 169.918 153.608 170.365 154.621 170.495Z" fill="#12374F"/>
<path d="M143.886 0.774048H75.91C75.91 0.774048 71.942 4.85605 76.605 7.18705H145.205L143.886 0.774048Z" fill="white"/>
<path d="M145.206 7.68705H76.605C76.528 7.68705 76.451 7.66905 76.381 7.63405C74.925 6.90605 74.084 5.93105 73.882 4.73705C73.512 2.55305 75.467 0.511049 75.551 0.425049C75.645 0.328049 75.775 0.274048 75.909 0.274048H143.884C144.121 0.274048 144.325 0.441049 144.373 0.674049L145.693 7.08705C145.724 7.23405 145.686 7.38705 145.591 7.50405C145.499 7.61905 145.356 7.68705 145.206 7.68705ZM76.726 6.68705H144.593L143.479 1.27405H76.1339C75.7379 1.73605 74.631 3.17905 74.869 4.57305C75.012 5.40805 75.637 6.11905 76.726 6.68705Z" fill="#12374F"/>
<path d="M145.206 7.18605C145.206 7.18605 140.784 6.97805 141.912 3.03005C143.04 -0.918948 146.707 0.773053 148.117 2.46605C149.527 4.15805 149.809 7.82505 148.963 13.1841C148.117 18.5431 148.963 76.9291 148.963 76.9291H144.45L145.206 7.18605Z" fill="white"/>
<path d="M148.963 77.429H144.45C144.316 77.429 144.188 77.376 144.094 77.281C144 77.186 143.948 77.057 143.95 76.924L144.701 7.63201C143.966 7.51501 142.572 7.15401 141.787 6.06201C141.188 5.22801 141.068 4.16201 141.431 2.89401C141.982 0.966009 143.082 0.354009 143.909 0.179009C145.561 -0.168991 147.468 0.906008 148.502 2.14601C150.015 3.96101 150.336 7.70201 149.458 13.263C148.628 18.518 149.455 76.339 149.464 76.922C149.466 77.056 149.414 77.185 149.32 77.28C149.225 77.375 149.097 77.429 148.963 77.429ZM144.956 76.429H148.456C148.369 70.311 147.659 18.241 148.469 13.106C149.505 6.55001 148.641 3.87501 147.734 2.78601C146.899 1.78601 145.312 0.90201 144.116 1.15701C143.305 1.32801 142.725 2.00501 142.392 3.16801C142.119 4.12601 142.188 4.90201 142.598 5.47501C143.389 6.58101 145.212 6.68601 145.231 6.68701C145.499 6.70101 145.71 6.92401 145.707 7.19201L144.956 76.429Z" fill="#12374F"/>
<path d="M83.313 80.6321H78.355V181.426H83.313V80.6321Z" fill="#B2B2B2"/>
<path d="M83.313 181.926H78.354C78.078 181.926 77.854 181.702 77.854 181.426V80.6321C77.854 80.3561 78.078 80.1321 78.354 80.1321H83.313C83.589 80.1321 83.813 80.3561 83.813 80.6321V181.425C83.813 181.702 83.59 181.926 83.313 181.926ZM78.854 180.926H82.813V81.1331H78.854V180.926Z" fill="#12374F"/>
<path d="M142.913 80.6321H137.954V181.426H142.913V80.6321Z" fill="#B2B2B2"/>
<path d="M142.913 181.926H137.954C137.678 181.926 137.454 181.702 137.454 181.426V80.6321C137.454 80.3561 137.678 80.1321 137.954 80.1321H142.913C143.189 80.1321 143.413 80.3561 143.413 80.6321V181.425C143.413 181.702 143.19 181.926 142.913 181.926ZM138.454 180.926H142.413V81.1331H138.454V180.926Z" fill="#12374F"/>
<path d="M145.206 7.18604H76.606V107.98H145.206V7.18604Z" fill="white"/>
<path d="M145.206 108.48H76.605C76.329 108.48 76.105 108.256 76.105 107.98V7.18701C76.105 6.91101 76.329 6.68701 76.605 6.68701H145.206C145.482 6.68701 145.706 6.91101 145.706 7.18701V107.98C145.706 108.256 145.482 108.48 145.206 108.48ZM77.105 107.48H144.706V7.68701H77.105V107.48Z" fill="#12374F"/>
<path d="M147.979 106.268H73.329V111.084H147.979V106.268Z" fill="#B2B2B2"/>
<path d="M147.979 111.585H73.329C73.053 111.585 72.829 111.361 72.829 111.085V106.269C72.829 105.993 73.053 105.769 73.329 105.769H147.979C148.255 105.769 148.479 105.993 148.479 106.269V111.085C148.479 111.361 148.256 111.585 147.979 111.585ZM73.829 110.585H147.479V106.769H73.829V110.585Z" fill="#12374F"/>
<path d="M118.503 74.8011H102.36C102.084 74.8011 101.86 74.5771 101.86 74.3011V69.4601C101.86 65.6601 100.435 62.0351 97.848 59.2521C94.529 55.6811 92.883 50.8301 93.333 45.9451C94.076 37.8881 100.444 31.3961 108.476 30.5081C113.435 29.9621 118.198 31.4761 121.882 34.7761C125.517 38.0321 127.602 42.6961 127.602 47.5721C127.602 52.0291 125.9 56.2531 122.809 59.4671C120.354 62.0191 119.001 65.5711 119.001 69.4671V74.3011C119.003 74.5771 118.779 74.8011 118.503 74.8011ZM102.86 73.8011H118.002V69.4671C118.002 65.3101 119.453 61.5121 122.089 58.7731C125 55.7471 126.603 51.7691 126.603 47.5721C126.603 42.9791 124.639 38.5871 121.216 35.5211C117.745 32.4131 113.269 30.9851 108.586 31.5021C101.147 32.3241 95.017 38.5731 94.329 46.0371C93.898 50.7071 95.408 55.1591 98.58 58.5721C101.34 61.5401 102.859 65.4081 102.859 69.4611L102.86 73.8011Z" fill="#12374F"/>
<path d="M118.834 81.4171H102.161C101.885 81.4171 101.661 81.1931 101.661 80.9171V76.4181C101.661 76.1421 101.885 75.9181 102.161 75.9181H118.834C119.11 75.9181 119.334 76.1421 119.334 76.4181V80.9171C119.334 81.1931 119.11 81.4171 118.834 81.4171ZM102.661 80.4171H118.334V76.9181H102.661V80.4171Z" fill="#12374F"/>
<path d="M116.991 87.1061H104.004C102.712 87.1061 101.661 86.0551 101.661 84.7641V82.1071C101.661 81.8311 101.885 81.6071 102.161 81.6071H118.834C119.11 81.6071 119.334 81.8311 119.334 82.1071V84.7641C119.334 86.0561 118.283 87.1061 116.991 87.1061ZM102.661 82.6071V84.7641C102.661 85.5041 103.264 86.1061 104.004 86.1061H116.991C117.731 86.1061 118.334 85.5041 118.334 84.7641V82.6071H102.661Z" fill="#12374F"/>
<path d="M109.726 23.1661C109.588 23.1661 109.476 23.0541 109.476 22.9161V15.7531C109.476 15.6151 109.588 15.5031 109.726 15.5031C109.864 15.5031 109.976 15.6151 109.976 15.7531V22.9161C109.976 23.0541 109.863 23.1661 109.726 23.1661Z" fill="#12374F"/>
<path d="M139.196 49.3241H131.754C131.616 49.3241 131.504 49.2121 131.504 49.0741C131.504 48.9361 131.616 48.8241 131.754 48.8241H139.196C139.334 48.8241 139.446 48.9361 139.446 49.0741C139.446 49.2121 139.334 49.3241 139.196 49.3241Z" fill="#12374F"/>
<path d="M87.698 49.3241H81.21C81.072 49.3241 80.96 49.2121 80.96 49.0741C80.96 48.9361 81.072 48.8241 81.21 48.8241H87.698C87.836 48.8241 87.948 48.9361 87.948 49.0741C87.948 49.2121 87.836 49.3241 87.698 49.3241Z" fill="#12374F"/>
<path d="M92.746 33.2621C92.697 33.2621 92.647 33.2481 92.603 33.2181L86.637 29.0881C86.524 29.0091 86.495 28.8541 86.574 28.7401C86.652 28.6271 86.807 28.5971 86.922 28.6761L92.888 32.8061C93.001 32.8851 93.03 33.0401 92.951 33.1541C92.903 33.2241 92.825 33.2621 92.746 33.2621Z" fill="#12374F"/>
<path d="M126.247 33.262C126.168 33.262 126.09 33.224 126.042 33.154C125.963 33.041 125.991 32.885 126.105 32.806L132.071 28.676C132.186 28.597 132.342 28.626 132.419 28.74C132.498 28.853 132.47 29.009 132.356 29.088L126.39 33.218C126.346 33.248 126.296 33.262 126.247 33.262Z" fill="#12374F"/>
<path d="M54.617 92.7889H25.529L23.954 171.973H31.006L40.073 111.78L49.14 171.973H56.192L54.617 92.7889Z" fill="#12374F"/>
<path d="M56.191 172.473H49.139C48.892 172.473 48.681 172.292 48.645 172.048L40.073 115.137L31.5 172.048C31.464 172.293 31.253 172.473 31.006 172.473H23.953C23.818 172.473 23.69 172.419 23.596 172.323C23.502 172.227 23.45 172.098 23.453 171.963L25.028 92.7789C25.034 92.5059 25.256 92.2889 25.528 92.2889H54.617C54.889 92.2889 55.111 92.5069 55.117 92.7789L56.691 171.963C56.694 172.097 56.642 172.227 56.548 172.323C56.454 172.419 56.326 172.473 56.191 172.473ZM49.57 171.473H55.681L54.126 93.2889H26.018L24.462 171.473H30.574L39.578 111.705C39.614 111.46 39.825 111.28 40.072 111.28C40.319 111.28 40.53 111.461 40.566 111.705L49.57 171.473Z" fill="#12374F"/>
<path d="M45.259 49.9409L40.104 51.0289L34.948 49.9409L22 55.0689L25.529 92.7889H54.679L58.207 55.0689L45.259 49.9409Z" fill="#1E90FF"/>
<path d="M54.679 93.2899H25.529C25.271 93.2899 25.055 93.0939 25.031 92.8359L21.503 55.1159C21.482 54.8949 21.61 54.6869 21.816 54.6049L34.764 49.4769C34.856 49.4399 34.955 49.4319 35.052 49.4529L40.104 50.5189L45.157 49.4529C45.253 49.4319 45.353 49.4409 45.445 49.4769L58.392 54.6049C58.598 54.6869 58.726 54.8949 58.705 55.1159L55.177 92.8359C55.152 93.0929 54.936 93.2899 54.679 93.2899ZM25.983 92.2899H54.223L57.673 55.3959L45.215 50.4619L40.206 51.5189C40.138 51.5339 40.067 51.5339 39.999 51.5189L34.991 50.4619L22.532 55.3959L25.983 92.2899Z" fill="#12374F"/>
<path d="M22 55.069L19.104 75.7C18.939 77.42 19.365 79.143 20.303 80.595C21.04 81.735 21.884 82.881 22.382 83.024C23.408 83.317 28.098 82.584 28.684 81.705C29.27 80.826 30.443 73.352 30.443 73.352L30.003 61.335" fill="#1E90FF"/>
<path d="M23.097 83.5849C22.732 83.5849 22.436 83.5589 22.244 83.5049C21.868 83.3969 21.26 82.9999 19.883 80.8659C18.885 79.3209 18.432 77.4699 18.606 75.6529L21.505 54.9999C21.544 54.7269 21.805 54.5399 22.069 54.5739C22.342 54.6129 22.533 54.8649 22.495 55.1379L19.598 75.7689C19.448 77.3409 19.846 78.9659 20.722 80.3229C22.023 82.3379 22.472 82.5279 22.519 82.5429C23.533 82.8329 27.878 81.9849 28.267 81.4269C28.596 80.9339 29.379 76.8939 29.948 73.2739L29.503 61.3529C29.493 61.0769 29.709 60.8449 29.985 60.8349C30.299 60.8169 30.494 61.0399 30.503 61.3159L30.943 73.3329C30.738 74.6949 29.715 81.0579 29.1 81.9809C28.463 82.9379 24.922 83.5849 23.097 83.5849Z" fill="#12374F"/>
<path d="M36.89 57.775L38.995 62.981L37.333 85.443L39.991 90.316L43.093 85.221L40.545 63.203L42.76 58.662L39.871 54.448L36.89 57.775Z" fill="#12374F"/>
<path d="M39.9911 90.816C39.9871 90.816 39.983 90.816 39.979 90.816C39.8 90.812 39.637 90.712 39.552 90.555L36.894 85.681C36.847 85.597 36.827 85.501 36.834 85.405L38.487 63.061L36.425 57.963C36.354 57.786 36.3891 57.584 36.5171 57.442L39.497 54.114C39.6 54 39.754 53.945 39.901 53.948C40.054 53.958 40.194 54.038 40.281 54.164L43.172 58.378C43.274 58.526 43.288 58.718 43.209 58.88L41.058 63.29L43.589 85.163C43.602 85.274 43.577 85.386 43.519 85.48L40.4181 90.575C40.3271 90.725 40.1651 90.816 39.9911 90.816ZM37.843 85.332L40.015 89.315L42.5771 85.108L40.049 63.26C40.038 63.165 40.055 63.069 40.097 62.983L42.185 58.704L39.82 55.255L37.471 57.877L39.459 62.794C39.487 62.865 39.499 62.942 39.494 63.019L37.843 85.332Z" fill="#12374F"/>
<path d="M45.119 49.9409L39.956 56.4679L35.115 49.9409V44.0609H45.119V49.9409Z" fill="white"/>
<path d="M39.955 56.9679C39.952 56.9679 39.95 56.9679 39.947 56.9679C39.792 56.9659 39.646 56.8909 39.553 56.7659L34.713 50.2399C34.649 50.1539 34.614 50.0489 34.614 49.9419V44.0619C34.614 43.7859 34.838 43.5619 35.114 43.5619H45.118C45.394 43.5619 45.618 43.7859 45.618 44.0619V49.9419C45.618 50.0549 45.58 50.1639 45.511 50.2519L40.347 56.7779C40.252 56.8979 40.107 56.9679 39.955 56.9679ZM35.615 49.7759L39.968 55.6449L44.619 49.7669V44.5599H35.615V49.7759Z" fill="#12374F"/>
<path d="M34.564 49.0249L33.189 50.7179L34.742 60.3529L39.956 56.4679L45.62 60.1979L46.553 50.7179L45.197 49.3579L39.871 54.4479L34.564 49.0249Z" fill="#1E90FF"/>
<path d="M34.742 60.8529C34.679 60.8529 34.615 60.8409 34.554 60.8159C34.392 60.7499 34.276 60.6049 34.248 60.4319L32.694 50.7969C32.671 50.6559 32.71 50.5129 32.799 50.4019L34.175 48.7089C34.265 48.5989 34.398 48.5319 34.539 48.5249C34.685 48.5239 34.819 48.5729 34.92 48.6749L39.88 53.7439L44.85 48.9949C45.046 48.8069 45.358 48.8109 45.55 49.0029L46.905 50.3629C47.011 50.4689 47.063 50.6169 47.049 50.7649L46.116 60.2439C46.098 60.4179 45.991 60.5709 45.834 60.6459C45.676 60.7209 45.489 60.7089 45.343 60.6119L39.971 57.0749L35.039 60.7509C34.953 60.8189 34.849 60.8529 34.742 60.8529ZM33.718 50.8599L35.105 59.4599L39.657 56.0669C39.827 55.9409 40.055 55.9349 40.231 56.0499L45.204 59.3239L46.033 50.9039L45.189 50.0569L40.216 54.8079C40.019 54.9979 39.704 54.9919 39.513 54.7959L34.599 49.7739L33.718 50.8599Z" fill="#12374F"/>
<path d="M23.954 171.973C23.954 171.973 20.964 181.212 21.408 181.36C21.852 181.508 31.474 181.36 31.474 181.36L31.006 171.973H23.954Z" fill="white"/>
<path d="M24.533 181.928C22.753 181.928 21.4541 181.903 21.2491 181.835C20.7181 181.658 20.335 181.53 23.477 171.819C23.543 171.612 23.736 171.473 23.953 171.473H31.006C31.273 171.473 31.492 171.682 31.505 171.948L31.973 181.335C31.98 181.47 31.932 181.603 31.839 181.702C31.746 181.801 31.617 181.858 31.482 181.86C29.139 181.896 26.532 181.928 24.533 181.928ZM21.8921 180.908C23.1931 180.954 27.76 180.915 30.949 180.868L30.531 172.473H24.318C23.194 175.964 22.0881 179.729 21.8921 180.908Z" fill="#12374F"/>
<path d="M56.313 171.973C56.313 171.973 59.304 181.212 58.859 181.36C58.415 181.508 48.793 181.36 48.793 181.36L49.261 171.973H56.313Z" fill="white"/>
<path d="M55.733 181.928C53.734 181.928 51.129 181.897 48.786 181.861C48.65 181.859 48.521 181.802 48.429 181.703C48.336 181.604 48.288 181.472 48.295 181.336L48.763 171.949C48.776 171.683 48.995 171.474 49.262 171.474H56.314C56.531 171.474 56.723 171.614 56.79 171.82C59.933 181.53 59.55 181.658 59.02 181.835C58.815 181.903 57.514 181.928 55.733 181.928ZM49.319 180.868C52.482 180.913 57.012 180.952 58.374 180.902C58.176 179.715 57.07 175.958 55.949 172.473H49.737L49.319 180.868Z" fill="#12374F"/>
<path d="M48.018 29.892C48.018 29.892 50.646 30.772 51.117 32.301C51.587 33.83 49.118 37.475 49.118 37.475L48.295 31.83L48.018 29.892Z" fill="#12374F"/>
<path d="M49.117 37.976C49.08 37.976 49.043 37.972 49.006 37.963C48.805 37.917 48.652 37.752 48.622 37.548L47.5219 29.964C47.4979 29.792 47.564 29.62 47.697 29.509C47.832 29.398 48.012 29.363 48.176 29.419C48.471 29.517 51.065 30.43 51.594 32.154C52.12 33.862 49.798 37.362 49.531 37.756C49.436 37.895 49.28 37.976 49.117 37.976ZM48.637 30.69L49.414 36.047C50.158 34.741 50.8579 33.161 50.6389 32.448C50.4069 31.696 49.421 31.068 48.637 30.69Z" fill="#12374F"/>
<path d="M45.141 28.0959C46.255 28.3879 47.258 28.9489 48.018 29.8919C49.949 32.2889 49.207 35.3929 49 38.2979C48.882 39.9439 48.294 48.8819 46.883 49.7049C45.472 50.5279 43.4731 50.5279 41.4731 49.7049C39.4741 48.8819 35.946 46.5299 35.123 45.5889C34.3 44.6489 34.3 41.1269 34.3 41.1199C34.3 40.6769 33.663 39.8389 33.506 39.4079C33.156 38.4519 32.851 37.4209 32.768 36.4029C32.486 32.9479 34.432 29.9219 37.695 28.8099C39.932 28.0489 42.812 27.4859 45.141 28.0959Z" fill="white"/>
<path d="M44.4 50.828C43.412 50.828 42.35 50.608 41.283 50.169C39.198 49.311 35.607 46.904 34.747 45.919C33.846 44.89 33.8 41.742 33.8 41.121C33.795 40.97 33.532 40.516 33.392 40.272C33.246 40.02 33.11 39.783 33.036 39.581C32.589 38.356 32.345 37.359 32.269 36.445C31.968 32.771 34.084 29.513 37.533 28.338C39.239 27.756 42.514 26.891 45.269 27.612C46.577 27.954 47.632 28.616 48.408 29.578C50.149 31.738 49.886 34.3599 49.631 36.8949C49.582 37.3769 49.533 37.857 49.5 38.333L49.486 38.515C48.729 49.207 47.571 49.882 47.135 50.136C46.347 50.598 45.411 50.828 44.4 50.828ZM42.952 28.336C40.997 28.336 39.031 28.884 37.854 29.285C34.799 30.326 32.999 33.104 33.264 36.364C33.332 37.185 33.558 38.099 33.974 39.237C34.026 39.378 34.139 39.567 34.257 39.771C34.524 40.232 34.799 40.709 34.799 41.121C34.799 42.508 35.016 44.71 35.498 45.26C36.279 46.153 39.722 48.444 41.663 49.243C43.505 50.002 45.363 50.012 46.63 49.274C46.819 49.163 47.802 48.12 48.487 38.445L48.5 38.262C48.535 37.777 48.584 37.287 48.634 36.795C48.879 34.353 49.112 32.046 47.627 30.205C46.989 29.413 46.11 28.866 45.014 28.579C44.354 28.407 43.653 28.336 42.952 28.336Z" fill="#12374F"/>
<path d="M45.824 27.715C45.824 27.715 48.529 28.421 48.764 30.067C48.999 31.713 47.118 33.477 42.649 34.301C38.18 35.124 37.475 35.007 37.475 35.007C37.475 35.007 39.121 36.065 38.533 36.653C37.945 37.241 37.122 38.064 37.122 38.064L37.357 40.298C37.357 40.298 36.299 41.592 36.063 40.651C35.828 39.71 35.357 38.534 35.004 38.416C34.651 38.298 33.504 39.409 33.504 39.409C33.504 39.409 32.887 36.652 33.122 34.182C33.357 31.712 34.266 30.614 37.692 28.811C41.12 27.009 45.824 27.715 45.824 27.715Z" fill="#12374F"/>
<path d="M36.387 41.4929C36.33 41.4929 36.274 41.4869 36.217 41.4739C36.033 41.4329 35.707 41.2869 35.578 40.7719C35.368 39.9329 35.054 39.2179 34.869 38.9539C34.639 39.0819 34.213 39.4199 33.852 39.7689C33.722 39.8949 33.534 39.9409 33.361 39.8889C33.188 39.8369 33.056 39.6959 33.016 39.5189C32.991 39.4029 32.385 36.6559 32.624 34.1359C32.878 31.4729 33.917 30.2339 37.46 28.3699C40.99 26.5129 45.699 27.1909 45.898 27.2199C45.916 27.2229 45.933 27.2259 45.95 27.2309C46.074 27.2629 48.98 28.0429 49.26 29.9959C49.502 31.6889 47.916 33.8389 42.74 34.7919C40.788 35.1509 39.5369 35.3349 38.7379 35.4259C38.9529 35.6769 39.123 35.9619 39.154 36.2549C39.184 36.5359 39.089 36.8029 38.886 37.0059L37.644 38.2489L37.854 40.2459C37.869 40.3789 37.829 40.5119 37.744 40.6149C37.517 40.8929 36.959 41.4929 36.387 41.4929ZM34.953 37.9039C35.051 37.9039 35.116 37.9259 35.163 37.9409C35.863 38.1739 36.348 39.7669 36.519 40.4129C36.614 40.3449 36.7299 40.2419 36.8369 40.1299L36.625 38.1149C36.609 37.9649 36.662 37.8159 36.769 37.7089L38.18 36.2979C38.141 36.1839 37.676 35.7299 37.204 35.4259C37.005 35.2969 36.9229 35.0469 37.0089 34.8249C37.0939 34.6039 37.323 34.4759 37.557 34.5119C37.57 34.5099 38.405 34.5719 42.559 33.8079C47.043 32.9819 48.438 31.3139 48.27 30.1369C48.118 29.0709 46.4079 28.3889 45.7249 28.2049C45.3559 28.1539 41.037 27.6169 37.926 29.2539C34.476 31.0689 33.8249 32.0879 33.6209 34.2299C33.4729 35.7799 33.677 37.4659 33.836 38.4509C34.411 37.9999 34.75 37.9039 34.953 37.9039Z" fill="#12374F"/>
<path d="M45.119 44.0609L46.648 43.8259L45.589 39.8269L45.942 37.8279" fill="white"/>
<path d="M45.119 44.3109C44.998 44.3109 44.89 44.2229 44.872 44.0989C44.851 43.9619 44.944 43.8349 45.081 43.8139L46.3351 43.6209L45.3481 39.8919C45.3381 39.8569 45.336 39.8199 45.343 39.7849L45.6971 37.7849C45.7201 37.6479 45.841 37.5559 45.987 37.5819C46.123 37.6059 46.2141 37.7359 46.1891 37.8719L45.845 39.8169L46.889 43.7619C46.907 43.8299 46.896 43.9039 46.857 43.9629C46.818 44.0229 46.756 44.0629 46.686 44.0729L45.158 44.3079C45.144 44.3099 45.132 44.3109 45.119 44.3109Z" fill="#12374F"/>
<path d="M46.765 39.1809C46.765 39.7329 46.976 40.1809 47.235 40.1809C47.495 40.1809 47.705 39.7329 47.705 39.1809C47.705 38.6289 47.494 38.1809 47.235 38.1809C46.976 38.1809 46.765 38.6289 46.765 39.1809Z" fill="#12374F"/>
<path d="M42.649 39.71C42.649 40.262 42.86 40.71 43.119 40.71C43.378 40.71 43.589 40.262 43.589 39.71C43.589 39.158 43.378 38.71 43.119 38.71C42.86 38.71 42.649 39.158 42.649 39.71Z" fill="#12374F"/>
<path d="M46.06 45.237C46.06 45.237 44.649 46.883 42.062 45.002Z" fill="white"/>
<path d="M44.396 46.1489C43.731 46.1489 42.898 45.9189 41.915 45.2039C41.804 45.1229 41.779 44.9659 41.86 44.8549C41.941 44.7429 42.096 44.7179 42.21 44.7999C44.585 46.5279 45.859 45.0899 45.871 45.0749C45.96 44.9709 46.117 44.9579 46.224 45.0479C46.328 45.1379 46.34 45.2949 46.25 45.4009C46.239 45.4119 45.586 46.1489 44.396 46.1489Z" fill="#12374F"/>
<path d="M48.059 37.1229C48.059 37.1229 47.471 36.1819 46.413 37.0049Z" fill="white"/>
<path d="M48.059 37.3729C47.976 37.3729 47.896 37.3319 47.848 37.2569C47.846 37.2549 47.665 36.9799 47.354 36.9269C47.11 36.8859 46.853 36.9809 46.566 37.2029C46.457 37.2879 46.299 37.2679 46.215 37.1589C46.13 37.0499 46.15 36.8929 46.259 36.8079C46.664 36.4929 47.064 36.3679 47.446 36.4349C47.978 36.5299 48.259 36.9719 48.271 36.9909C48.344 37.1079 48.309 37.2619 48.192 37.3349C48.149 37.3599 48.104 37.3729 48.059 37.3729Z" fill="#12374F"/>
<path d="M44.178 37.24C44.178 37.24 42.179 36.534 41.238 38.298Z" fill="white"/>
<path d="M41.2379 38.549C41.1979 38.549 41.1579 38.54 41.1209 38.52C40.9989 38.455 40.953 38.304 41.017 38.182C42.047 36.248 44.238 36.997 44.26 37.005C44.39 37.051 44.458 37.193 44.412 37.323C44.366 37.453 44.222 37.523 44.094 37.476C44.02 37.451 42.285 36.87 41.458 38.416C41.414 38.501 41.3269 38.549 41.2379 38.549Z" fill="#12374F"/>
<path d="M36.754 42.1081C36.754 42.1081 36.886 38.4851 35.005 38.4161C33.124 38.3481 33.505 39.4091 33.62 41.0681C33.76 43.0921 35.328 43.534 35.328 43.534" fill="white"/>
<path d="M35.328 44.034C35.283 44.034 35.237 44.028 35.192 44.015C35.114 43.993 33.284 43.451 33.121 41.102C33.106 40.891 33.088 40.689 33.069 40.498C32.988 39.637 32.917 38.893 33.394 38.387C33.723 38.037 34.245 37.883 35.022 37.915C35.736 37.941 36.669 38.355 37.073 40.178C37.287 41.144 37.255 42.085 37.254 42.125C37.244 42.4 37.017 42.606 36.736 42.606C36.46 42.596 36.244 42.364 36.254 42.088C36.282 41.277 36.111 38.955 34.986 38.914C34.384 38.888 34.185 39.004 34.122 39.073C33.956 39.249 34.009 39.81 34.065 40.404C34.084 40.602 34.103 40.812 34.119 41.032C34.232 42.659 35.418 43.037 35.469 43.053C35.731 43.133 35.883 43.409 35.806 43.673C35.742 43.892 35.544 44.034 35.328 44.034Z" fill="#12374F"/>
<path d="M83.801 64.658L86.754 63.216L90.265 59.705L93.531 60.195L95.736 64.605L95.083 65.503L92.552 65.013C92.552 65.013 90.837 67.381 90.429 67.708C90.021 68.035 84.795 68.198 84.795 68.198L83.801 64.658Z" fill="white"/>
<path d="M84.794 68.698C84.57 68.698 84.373 68.55 84.313 68.333L83.32 64.794C83.255 64.561 83.365 64.315 83.582 64.209L86.461 62.804L89.913 59.352C90.025 59.24 90.185 59.19 90.341 59.211L93.607 59.701C93.768 59.725 93.907 59.827 93.98 59.972L96.185 64.382C96.268 64.549 96.252 64.749 96.142 64.9L95.489 65.798C95.376 65.955 95.179 66.034 94.99 65.995L92.77 65.565C92.228 66.307 91.119 67.798 90.743 68.099C90.61 68.205 90.205 68.53 84.811 68.698C84.805 68.698 84.799 68.698 84.794 68.698ZM84.394 64.925L85.168 67.685C87.41 67.605 89.803 67.44 90.17 67.282C90.335 67.142 91.34 65.832 92.146 64.719C92.261 64.562 92.456 64.484 92.646 64.522L94.866 64.952L95.153 64.556L93.2 60.651L90.44 60.237L87.107 63.57C87.068 63.609 87.023 63.642 86.973 63.666L84.394 64.925Z" fill="#12374F"/>
<path d="M58.207 55.069L67.666 70.212L83.8 64.658L84.858 68.89L67.45 82.002C65.867 83.194 63.601 82.756 62.576 81.06L56.821 71.534L58.207 55.069Z" fill="#1E90FF"/>
<path d="M65.438 83.175C65.196 83.175 64.953 83.152 64.711 83.106C63.645 82.9 62.712 82.249 62.151 81.319L56.395 71.794C56.34 71.704 56.316 71.598 56.325 71.493L57.71 55.027C57.728 54.813 57.881 54.633 58.091 54.583C58.301 54.529 58.518 54.621 58.632 54.804L67.881 69.611L83.639 64.186C83.773 64.139 83.915 64.152 84.04 64.219C84.163 64.286 84.253 64.401 84.287 64.537L85.346 68.769C85.395 68.964 85.322 69.168 85.162 69.29L67.754 82.402C67.081 82.908 66.267 83.175 65.438 83.175ZM57.334 71.415L63.006 80.802C63.421 81.49 64.112 81.972 64.901 82.124C65.688 82.276 66.509 82.087 67.151 81.603L84.294 68.69L83.448 65.308L67.83 70.685C67.61 70.761 67.365 70.675 67.243 70.477L58.579 56.608L57.334 71.415Z" fill="#12374F"/>
<path d="M96.628 66.997C96.463 66.997 96.296 66.957 96.143 66.871L85.75 61.082C85.268 60.813 85.094 60.205 85.362 59.722C85.632 59.239 86.242 59.066 86.722 59.335L97.114 65.124C97.597 65.393 97.77 66.001 97.502 66.484C97.32 66.812 96.979 66.997 96.628 66.997Z" fill="#1E90FF"/>
<path d="M96.628 67.497C96.373 67.497 96.121 67.431 95.9 67.307L85.507 61.519C84.785 61.117 84.525 60.202 84.925 59.479C85.122 59.127 85.443 58.874 85.827 58.765C86.215 58.657 86.619 58.703 86.968 58.899L97.359 64.687C97.71 64.882 97.963 65.202 98.073 65.587C98.183 65.972 98.136 66.378 97.94 66.728C97.676 67.202 97.173 67.497 96.628 67.497ZM86.238 59.707C86.192 59.707 86.146 59.713 86.1 59.726C85.971 59.763 85.864 59.847 85.798 59.965C85.665 60.205 85.752 60.51 85.992 60.645L96.385 66.433C96.62 66.565 96.936 66.471 97.065 66.24C97.13 66.123 97.146 65.988 97.109 65.86C97.073 65.732 96.988 65.625 96.871 65.56L86.479 59.771C86.404 59.729 86.322 59.707 86.238 59.707Z" fill="#12374F"/>
<path d="M88.197 63.422C88.197 63.422 92.801 61.186 93.459 61.712C94.117 62.238 93.854 62.501 93.196 63.422C92.538 64.343 90.696 64.737 90.696 64.737L89.117 67.237L86.881 66.448" fill="white"/>
<path d="M89.117 67.736C89.061 67.736 89.006 67.727 88.951 67.708L86.715 66.919C86.454 66.827 86.318 66.542 86.409 66.281C86.502 66.021 86.792 65.886 87.047 65.976L88.907 66.633L90.273 64.47C90.345 64.357 90.46 64.277 90.59 64.248C91.051 64.148 92.343 63.754 92.787 63.131L92.913 62.956C93.106 62.688 93.324 62.386 93.339 62.282C93.333 62.282 93.294 62.221 93.146 62.102C92.743 62.012 90.35 62.932 88.416 63.871C88.169 63.993 87.868 63.889 87.747 63.64C87.627 63.392 87.73 63.093 87.978 62.972C91.22 61.397 93.168 60.84 93.771 61.321C94.756 62.11 94.279 62.772 93.725 63.54L93.602 63.712C92.971 64.595 91.563 65.033 91.01 65.176L89.539 67.504C89.446 67.652 89.285 67.736 89.117 67.736Z" fill="#12374F"/>
<path d="M40.994 53.127L41.473 49.706L49.054 48.584L50.226 50.489L49.054 51.368C49.054 51.368 48.761 55.178 48.468 55.618C48.175 56.058 44.365 57.23 44.365 57.23L41.874 59.282L38.796 55.325L40.994 53.127Z" fill="white"/>
<path d="M41.873 59.783C41.855 59.783 41.836 59.782 41.818 59.78C41.683 59.765 41.561 59.696 41.478 59.59L38.401 55.633C38.246 55.434 38.263 55.151 38.442 54.972L40.5219 52.892L40.978 49.637C41.008 49.417 41.18 49.244 41.4 49.212L48.981 48.09C49.176 48.062 49.376 48.153 49.48 48.323L50.652 50.228C50.788 50.448 50.733 50.735 50.526 50.89L49.5349 51.634C49.3949 53.388 49.1729 55.463 48.8839 55.897C48.6269 56.282 47.188 56.882 44.606 57.681L42.192 59.67C42.101 59.743 41.988 59.783 41.873 59.783ZM39.4619 55.367L41.952 58.57L44.047 56.845C44.097 56.804 44.155 56.772 44.217 56.753C45.861 56.248 47.807 55.548 48.086 55.3C48.192 55.046 48.426 53.023 48.557 51.33C48.568 51.186 48.64 51.055 48.755 50.969L49.562 50.363L48.802 49.127L41.917 50.146L41.489 53.197C41.474 53.304 41.424 53.404 41.347 53.481L39.4619 55.367Z" fill="#12374F"/>
<path d="M38.796 55.3259L20.331 76.2829C20.331 76.2829 19.891 80.5329 21.503 82.5849C23.115 84.6369 27.512 82.5849 27.951 82.4389C28.391 82.2919 42.76 58.6629 42.76 58.6629L38.796 55.3259Z" fill="#1E90FF"/>
<path d="M23.738 83.9879C22.562 83.9879 21.683 83.6229 21.109 82.8929C19.392 80.7069 19.813 76.4129 19.833 76.2309C19.844 76.1269 19.886 76.0299 19.955 75.9519L38.421 54.9949C38.602 54.7909 38.911 54.7689 39.118 54.9429L43.083 58.2789C43.271 58.4379 43.316 58.7109 43.187 58.9219C28.722 82.7079 28.338 82.8359 28.109 82.9119C28.072 82.9249 28.004 82.9529 27.909 82.9909C26.254 83.6559 24.861 83.9879 23.738 83.9879ZM20.815 76.4889C20.759 77.2509 20.594 80.6169 21.897 82.2749C22.456 82.9869 23.888 83.5299 27.537 82.0629C27.589 82.0419 27.634 82.0239 27.673 82.0089C28.593 80.8589 36.665 67.7209 42.112 58.7689L38.849 56.0239L20.815 76.4889Z" fill="#12374F"/>
</svg>
