<svg width="210" height="155" viewBox="0 0 210 155" fill="none" xmlns="http://www.w3.org/2000/svg">
<path d="M208.938 153.912H1.354C1.078 153.912 0.854004 153.688 0.854004 153.412C0.854004 153.136 1.078 152.912 1.354 152.912H208.939C209.215 152.912 209.439 153.136 209.439 153.412C209.439 153.688 209.215 153.912 208.938 153.912Z" fill="#12374F"/>
<path d="M200.072 120.94C198.77 121.346 195.739 120.943 195.736 120.943C195.705 120.939 196.608 119.026 196.679 118.911C197.5 117.59 199.862 115.519 201.552 115.94C202.77 116.243 203.321 117.556 202.913 118.689C202.498 119.845 201.181 120.594 200.072 120.94Z" fill="#12374F"/>
<path d="M171.814 120.09C171.785 120.104 171.484 118.01 171.48 117.875C171.436 116.32 172.263 113.29 173.905 112.709C175.088 112.29 176.272 113.081 176.557 114.251C176.849 115.446 176.163 116.796 175.429 117.697C174.568 118.753 171.817 120.089 171.814 120.09Z" fill="#12374F"/>
<path d="M172.343 142.481C173.36 142.611 175.371 142.039 175.935 141.869C176.027 142.735 176.138 143.592 176.288 144.431C176.36 144.791 176.411 145.163 176.5 145.505C176.582 145.851 176.664 146.194 176.744 146.534C176.935 147.231 177.111 147.878 177.306 148.522C177.402 148.848 177.501 149.153 177.598 149.469C177.356 148.969 176.96 148.183 176.916 148.115C176.169 146.97 174.052 145.198 172.575 145.602C171.511 145.893 171.053 147.057 171.433 148.044C171.822 149.053 172.994 149.684 173.975 149.966C175.057 150.277 177.437 149.934 177.728 149.89C177.97 150.661 178.214 151.41 178.455 152.106C178.612 152.563 178.765 152.994 178.917 153.413H179.922C179.723 152.902 179.52 152.373 179.309 151.802C179.078 151.178 178.843 150.512 178.609 149.826C178.876 149.715 180.937 148.838 181.768 148.036C182.637 148.589 183.627 149.057 183.801 149.139C183.578 149.916 183.368 150.674 183.185 151.388C182.999 152.106 182.837 152.774 182.687 153.413H183.661C183.784 152.839 183.915 152.245 184.066 151.605C184.217 150.957 184.389 150.272 184.572 149.571C184.866 149.627 187.225 150.064 188.317 149.797C189.309 149.555 190.505 148.971 190.934 147.979C191.354 147.008 190.943 145.826 189.892 145.493C188.432 145.031 186.246 146.717 185.454 147.83C185.403 147.901 184.898 148.811 184.651 149.282C184.763 148.858 184.873 148.437 184.997 147.998C185.171 147.365 185.375 146.702 185.569 146.058C185.682 145.728 185.796 145.394 185.911 145.058C186.02 144.716 186.166 144.403 186.293 144.069C186.49 143.584 186.718 143.094 186.944 142.605C187.578 142.821 189.449 143.421 190.434 143.335C191.451 143.246 192.722 142.85 193.296 141.934C193.858 141.037 193.631 139.807 192.642 139.318C191.269 138.64 188.853 139.975 187.901 140.956C187.87 140.988 187.69 141.216 187.48 141.489C187.716 141.018 187.949 140.547 188.203 140.077C188.924 138.745 189.701 137.41 190.474 136.07C190.635 135.791 190.792 135.509 190.952 135.229C191.485 135.413 193.506 136.082 194.538 135.992C195.555 135.903 196.826 135.507 197.4 134.591C197.962 133.694 197.735 132.464 196.746 131.975C195.374 131.297 192.957 132.632 192.005 133.613C191.971 133.648 191.757 133.921 191.52 134.228C191.929 133.494 192.328 132.757 192.701 132.013C193.355 130.713 193.929 129.397 194.384 128.079C194.571 128.146 196.925 128.978 198.072 128.877C199.089 128.788 200.36 128.392 200.934 127.476C201.496 126.579 201.269 125.349 200.28 124.86C198.908 124.182 196.491 125.517 195.539 126.498C195.472 126.568 194.705 127.561 194.443 127.925C194.448 127.909 194.456 127.894 194.461 127.878C194.926 126.489 195.198 125.106 195.393 123.782C195.589 122.461 195.661 121.201 195.698 120.04C195.737 118.878 195.702 117.813 195.663 116.871C195.638 116.361 195.605 115.895 195.57 115.46C195.575 115.464 195.596 115.48 195.596 115.48C195.618 115.497 196.233 113.742 196.26 113.627C196.562 112.294 196.362 109.54 195.044 108.761C194.095 108.199 192.94 108.681 192.496 109.641C192.042 110.622 192.404 111.903 192.885 112.804C193.378 113.727 195.073 115.076 195.498 115.406C195.525 115.858 195.549 116.342 195.564 116.877C195.583 117.818 195.595 118.88 195.531 120.036C195.515 120.344 195.484 120.675 195.461 120.996C195.388 120.447 195.278 119.695 195.259 119.623C194.913 118.301 193.466 115.949 191.938 115.864C190.837 115.803 190.034 116.762 190.082 117.819C190.131 118.898 191.043 119.869 191.884 120.447C192.762 121.05 194.943 121.469 195.421 121.555C195.358 122.265 195.277 122.993 195.148 123.747C194.928 125.049 194.625 126.426 194.136 127.784C194.089 127.776 194.097 127.778 194.05 127.77C194.045 127.255 194.008 126.173 193.995 126.084C193.796 124.732 192.617 122.236 191.107 121.983C190.019 121.801 189.116 122.667 189.047 123.723C188.977 124.801 189.777 125.866 190.55 126.533C191.441 127.301 193.934 128.021 194.028 128.047C193.557 129.309 192.976 130.568 192.315 131.814C191.837 132.718 191.316 133.613 190.784 134.507C190.79 134.145 190.743 132.726 190.729 132.624C190.53 131.272 189.35 128.776 187.84 128.523C186.752 128.341 185.849 129.207 185.78 130.262C185.71 131.34 186.51 132.405 187.283 133.072C188.153 133.822 190.538 134.522 190.74 134.58C190.498 134.986 190.259 135.392 190.013 135.797C189.212 137.119 188.404 138.44 187.647 139.769C187.384 140.229 187.143 140.692 186.898 141.155C186.89 140.613 186.856 139.626 186.844 139.542C186.645 138.189 185.466 135.693 183.956 135.441C182.868 135.259 181.965 136.125 181.896 137.18C181.826 138.258 182.626 139.323 183.399 139.99C184.175 140.66 186.169 141.292 186.732 141.462C186.331 142.235 185.951 143.011 185.613 143.793C185.475 144.133 185.311 144.471 185.197 144.806C185.075 145.14 184.953 145.471 184.833 145.799C184.609 146.486 184.398 147.123 184.205 147.767C184.105 148.092 184.019 148.401 183.926 148.718C184 148.167 184.103 147.293 184.104 147.213C184.112 145.846 183.324 143.2 181.87 142.722C180.822 142.377 179.798 143.096 179.57 144.129C179.541 144.26 179.526 144.393 179.522 144.527C178.822 145.526 178.415 146.981 178.384 147.889C178.381 147.976 178.462 149.014 178.515 149.543C178.375 149.128 178.234 148.716 178.096 148.281C177.892 147.657 177.696 146.991 177.503 146.347C177.415 146.009 177.326 145.668 177.237 145.324C177.139 144.978 177.088 144.637 177.01 144.288C176.907 143.775 176.827 143.241 176.746 142.708C177.394 142.538 179.286 142.007 180.06 141.392C180.859 140.757 181.701 139.725 181.674 138.645C181.648 137.587 180.78 136.686 179.686 136.824C178.167 137.015 176.889 139.462 176.635 140.806C176.627 140.85 176.603 141.139 176.578 141.483C176.515 140.96 176.449 140.438 176.403 139.906C176.27 138.397 176.182 136.855 176.086 135.311C176.066 134.989 176.042 134.668 176.021 134.346C176.567 134.206 178.622 133.649 179.432 133.004C180.231 132.368 181.073 131.337 181.046 130.257C181.02 129.199 180.152 128.298 179.058 128.436C177.539 128.627 176.261 131.074 176.007 132.418C175.998 132.466 175.97 132.812 175.942 133.199C175.878 132.361 175.804 131.526 175.706 130.7C175.534 129.255 175.287 127.841 174.939 126.49C175.132 126.442 177.554 125.838 178.456 125.121C179.255 124.486 180.097 123.454 180.07 122.374C180.044 121.316 179.176 120.415 178.082 120.553C176.563 120.744 175.284 123.191 175.031 124.535C175.013 124.63 174.921 125.882 174.903 126.33C174.899 126.314 174.896 126.297 174.892 126.281C174.514 124.866 173.978 123.563 173.41 122.351C172.845 121.141 172.21 120.05 171.6 119.062C170.992 118.071 170.375 117.203 169.822 116.438C169.519 116.027 169.235 115.655 168.966 115.312C168.972 115.312 168.999 115.314 168.999 115.314C169.027 115.316 168.572 113.513 168.53 113.402C168.046 112.123 166.36 109.937 164.831 110.014C163.73 110.069 163.032 111.108 163.191 112.154C163.353 113.222 164.362 114.091 165.26 114.577C166.18 115.075 168.339 115.265 168.875 115.305C169.147 115.667 169.434 116.057 169.741 116.495C170.276 117.27 170.872 118.149 171.456 119.148C171.612 119.414 171.769 119.706 171.927 119.987C171.563 119.569 171.056 119.003 171.001 118.953C169.983 118.041 167.479 116.878 166.157 117.65C165.205 118.206 165.064 119.45 165.687 120.305C166.323 121.178 167.619 121.485 168.64 121.502C169.705 121.52 171.755 120.667 172.201 120.475C172.54 121.102 172.874 121.754 173.183 122.454C173.718 123.661 174.225 124.976 174.566 126.378C174.522 126.398 174.53 126.394 174.486 126.414C174.197 125.987 173.571 125.106 173.511 125.039C172.599 124.021 170.238 122.589 168.84 123.212C167.832 123.66 167.556 124.881 168.082 125.799C168.619 126.737 169.873 127.184 170.886 127.314C172.053 127.464 174.529 126.688 174.622 126.659C174.925 127.971 175.135 129.341 175.271 130.746C175.371 131.763 175.43 132.798 175.48 133.837C175.285 133.532 174.464 132.374 174.395 132.297C173.483 131.279 171.122 129.848 169.724 130.47C168.716 130.918 168.44 132.139 168.966 133.057C169.503 133.995 170.757 134.442 171.769 134.572C172.908 134.718 175.284 133.986 175.484 133.923C175.507 134.395 175.531 134.866 175.549 135.339C175.61 136.883 175.665 138.431 175.766 139.957C175.801 140.486 175.855 141.005 175.906 141.526C175.6 141.078 175.028 140.274 174.971 140.21C174.059 139.192 171.698 137.761 170.3 138.383C169.292 138.832 169.016 140.052 169.542 140.97C170.076 141.904 171.33 142.351 172.343 142.481Z" fill="#12374F"/>
<path d="M147.225 115.529C147.225 114.061 147.115 112.619 146.912 111.208L154.73 107.821L152.398 100.643L144.256 102.459C142.831 99.4979 140.932 96.8099 138.666 94.4819L143.002 87.1419L136.896 82.7059L131.375 88.9629C128.547 87.4339 125.445 86.3509 122.165 85.7899L121.359 77.3059H113.811L113.021 85.6239C109.716 86.0649 106.58 87.0359 103.703 88.4569L98.068 82.0709L91.962 86.5069L96.213 93.7029C93.861 95.9489 91.87 98.5679 90.339 101.47L82.024 99.6159L79.692 106.794L87.357 110.115C87.038 111.873 86.863 113.681 86.863 115.531C86.863 116.999 86.973 118.44 87.176 119.852L79.358 123.239L81.69 130.417L89.832 128.601C91.257 131.562 93.156 134.25 95.422 136.578L91.086 143.918L97.192 148.354L102.713 142.097C105.541 143.626 108.643 144.709 111.923 145.27L112.729 153.754H120.277L121.067 145.436C124.372 144.995 127.508 144.024 130.385 142.603L136.02 148.989L142.126 144.553L137.875 137.357C140.227 135.111 142.218 132.492 143.749 129.59L152.063 131.444L154.395 124.266L146.73 120.945C147.05 119.187 147.225 117.379 147.225 115.529ZM97.9 115.529C97.9 104.956 106.471 96.3849 117.044 96.3849C127.617 96.3849 136.188 104.956 136.188 115.529C136.188 126.102 127.617 134.673 117.044 134.673C106.471 134.673 97.9 126.102 97.9 115.529Z" fill="#12374F"/>
<path d="M120.277 154.253H112.73C112.472 154.253 112.257 154.057 112.232 153.8L111.461 145.696C108.436 145.14 105.535 144.142 102.827 142.724L97.567 148.685C97.395 148.878 97.106 148.911 96.898 148.758L90.792 144.321C90.584 144.17 90.524 143.885 90.655 143.663L94.798 136.65C92.674 134.415 90.913 131.903 89.556 129.174L81.798 130.903C81.546 130.955 81.293 130.814 81.214 130.569L78.882 123.391C78.802 123.146 78.922 122.88 79.159 122.778L86.628 119.542C86.452 118.195 86.362 116.847 86.362 115.528C86.362 113.84 86.508 112.123 86.796 110.414L79.493 107.25C79.256 107.147 79.137 106.882 79.216 106.637L81.548 99.459C81.628 99.214 81.88 99.071 82.132 99.125L90.076 100.897C91.537 98.211 93.387 95.763 95.58 93.616L91.53 86.759C91.399 86.537 91.458 86.252 91.667 86.101L97.773 81.664C97.981 81.513 98.271 81.544 98.442 81.737L103.826 87.838C106.586 86.52 109.52 85.627 112.56 85.182L113.313 77.257C113.337 77 113.553 76.804 113.81 76.804H121.357C121.615 76.804 121.83 77 121.855 77.257L122.626 85.362C125.651 85.918 128.552 86.916 131.26 88.334L136.52 82.373C136.691 82.179 136.981 82.148 137.189 82.3L143.295 86.736C143.504 86.887 143.563 87.172 143.432 87.394L139.289 94.407C141.413 96.642 143.174 99.154 144.532 101.883L152.289 100.154C152.538 100.1 152.793 100.242 152.873 100.488L155.206 107.666C155.286 107.911 155.166 108.177 154.929 108.279L147.459 111.515C147.636 112.861 147.725 114.209 147.725 115.529C147.725 117.215 147.579 118.933 147.291 120.643L154.594 123.806C154.831 123.909 154.951 124.174 154.871 124.419L152.538 131.598C152.458 131.844 152.206 131.986 151.954 131.932L144.01 130.16C142.55 132.846 140.701 135.292 138.506 137.441L142.557 144.298C142.688 144.52 142.629 144.805 142.42 144.956L136.314 149.393C136.106 149.544 135.816 149.513 135.645 149.32L130.261 143.218C127.502 144.537 124.567 145.43 121.526 145.875L120.773 153.799C120.75 154.057 120.535 154.253 120.277 154.253ZM113.184 153.253H119.822L120.569 145.389C120.591 145.157 120.77 144.971 121.001 144.94C124.202 144.514 127.285 143.577 130.165 142.155C130.366 142.053 130.61 142.102 130.761 142.272L136.096 148.318L141.466 144.417L137.445 137.611C137.327 137.411 137.362 137.156 137.531 136.996C139.866 134.766 141.81 132.196 143.307 129.357C143.412 129.158 143.634 129.053 143.858 129.102L151.729 130.858L153.78 124.545L146.532 121.405C146.319 121.312 146.198 121.086 146.239 120.857C146.562 119.078 146.725 117.285 146.725 115.53C146.725 114.134 146.621 112.704 146.417 111.28C146.385 111.056 146.506 110.84 146.713 110.75L154.113 107.543L152.062 101.23L144.364 102.947C144.136 102.996 143.906 102.884 143.804 102.676C142.417 99.793 140.567 97.154 138.306 94.831C138.149 94.67 138.119 94.423 138.234 94.228L142.339 87.279L136.969 83.378L131.748 89.294C131.593 89.468 131.34 89.514 131.135 89.402C128.312 87.877 125.265 86.827 122.079 86.283C121.856 86.245 121.686 86.062 121.665 85.837L120.902 77.806H114.264L113.516 85.671C113.494 85.903 113.315 86.089 113.084 86.12C109.884 86.546 106.802 87.483 103.921 88.904C103.718 89.005 103.475 88.956 103.325 88.787L97.99 82.742L92.62 86.644L96.64 93.449C96.758 93.649 96.723 93.904 96.555 94.064C94.221 96.292 92.278 98.862 90.779 101.703C90.674 101.902 90.446 102.003 90.228 101.958L82.357 100.202L80.306 106.515L87.554 109.656C87.767 109.749 87.888 109.975 87.847 110.204C87.524 111.982 87.361 113.775 87.361 115.531C87.361 116.927 87.465 118.356 87.669 119.781C87.701 120.005 87.58 120.221 87.373 120.311L79.973 123.518L82.024 129.831L89.723 128.114C89.952 128.065 90.182 128.177 90.283 128.385C91.671 131.269 93.52 133.908 95.781 136.23C95.938 136.391 95.968 136.638 95.853 136.833L91.748 143.782L97.118 147.683L102.339 141.767C102.493 141.592 102.746 141.547 102.952 141.659C105.775 143.184 108.822 144.234 112.008 144.778C112.231 144.816 112.401 144.999 112.422 145.224L113.184 153.253ZM117.044 135.173C106.212 135.173 97.4 126.36 97.4 115.529C97.4 104.698 106.212 95.885 117.044 95.885C127.875 95.885 136.688 104.698 136.688 115.529C136.688 126.36 127.875 135.173 117.044 135.173ZM117.044 96.886C106.764 96.886 98.4 105.249 98.4 115.53C98.4 125.811 106.763 134.174 117.044 134.174C127.324 134.174 135.688 125.811 135.688 115.53C135.688 105.249 127.324 96.886 117.044 96.886Z" fill="#12374F"/>
<path d="M191.858 66.701C191.858 65.411 191.761 64.1451 191.583 62.9051L198.451 59.929L196.402 53.623L189.249 55.218C187.997 52.617 186.329 50.2551 184.338 48.2101L188.147 41.7621L182.783 37.8651L177.932 43.3621C175.448 42.0191 172.723 41.0681 169.841 40.5751L169.133 33.1221H162.502L161.808 40.429C158.904 40.816 156.149 41.6701 153.622 42.9181L148.671 37.3081L143.307 41.205L147.042 47.5271C144.976 49.5001 143.227 51.8011 141.882 54.3501L134.578 52.7211L132.529 59.0271L139.263 61.9451C138.983 63.4891 138.829 65.0781 138.829 66.7031C138.829 67.9931 138.926 69.2591 139.104 70.4991L132.236 73.4751L134.285 79.7811L141.438 78.1861C142.69 80.7871 144.358 83.1491 146.349 85.1941L142.54 91.6421L147.904 95.5391L152.754 90.0421C155.238 91.3851 157.963 92.3361 160.845 92.8291L161.553 100.282H168.183L168.877 92.9751C171.781 92.5881 174.536 91.7341 177.063 90.4861L182.014 96.0961L187.378 92.1991L183.643 85.8771C185.709 83.9041 187.458 81.603 188.803 79.054L196.107 80.6831L198.156 74.3771L191.422 71.4591C191.704 69.9151 191.858 68.327 191.858 66.701ZM148.526 66.701C148.526 57.413 156.055 49.8831 165.344 49.8831C174.632 49.8831 182.162 57.413 182.162 66.701C182.162 75.989 174.633 83.5191 165.344 83.5191C156.055 83.5191 148.526 75.99 148.526 66.701Z" fill="#1E90FF"/>
<path d="M168.184 100.781H161.554C161.296 100.781 161.081 100.585 161.057 100.328L160.385 93.254C157.75 92.765 155.226 91.897 152.869 90.668L148.28 95.868C148.108 96.061 147.82 96.093 147.611 95.941L142.247 92.044C142.038 91.893 141.979 91.607 142.11 91.386L145.727 85.264C143.882 83.317 142.35 81.131 141.164 78.758L134.395 80.268C134.144 80.322 133.89 80.179 133.811 79.934L131.762 73.628C131.683 73.383 131.802 73.117 132.039 73.015L138.559 70.191C138.407 69.019 138.33 67.847 138.33 66.702C138.33 65.234 138.456 63.737 138.704 62.247L132.332 59.486C132.095 59.383 131.975 59.118 132.055 58.873L134.104 52.566C134.184 52.321 134.436 52.179 134.689 52.232L141.623 53.779C142.898 51.443 144.507 49.315 146.413 47.442L142.878 41.459C142.747 41.237 142.806 40.952 143.015 40.801L148.379 36.904C148.587 36.752 148.877 36.784 149.048 36.977L153.747 42.303C156.15 41.158 158.703 40.381 161.349 39.99L162.006 33.077C162.03 32.82 162.246 32.624 162.503 32.624H169.133C169.391 32.624 169.606 32.82 169.63 33.077L170.302 40.151C172.934 40.639 175.459 41.507 177.817 42.737L182.406 37.536C182.577 37.342 182.867 37.311 183.075 37.463L188.439 41.36C188.647 41.511 188.707 41.796 188.576 42.018L184.959 48.14C186.803 50.087 188.336 52.273 189.522 54.646L196.291 53.136C196.541 53.08 196.795 53.224 196.875 53.47L198.924 59.777C199.003 60.022 198.884 60.288 198.647 60.39L192.127 63.214C192.278 64.382 192.355 65.554 192.355 66.702C192.355 68.173 192.229 69.67 191.981 71.158L198.353 73.919C198.59 74.022 198.709 74.287 198.63 74.532L196.581 80.838C196.501 81.083 196.249 81.225 195.996 81.172L189.062 79.625C187.788 81.959 186.179 84.088 184.272 85.963L187.807 91.945C187.938 92.167 187.879 92.452 187.67 92.603L182.306 96.5C182.098 96.652 181.808 96.62 181.637 96.427L176.938 91.101C174.535 92.246 171.982 93.022 169.336 93.415L168.679 100.329C168.657 100.585 168.442 100.781 168.184 100.781ZM162.008 99.781H167.729L168.38 92.926C168.402 92.694 168.581 92.508 168.812 92.477C171.618 92.104 174.319 91.283 176.843 90.037C177.044 89.935 177.289 89.985 177.439 90.154L182.089 95.424L186.717 92.062L183.213 86.131C183.095 85.932 183.13 85.676 183.298 85.516C185.345 83.56 187.049 81.308 188.361 78.821C188.466 78.622 188.69 78.516 188.912 78.566L195.772 80.096L197.54 74.656L191.224 71.919C191.011 71.826 190.889 71.6 190.93 71.371C191.213 69.813 191.356 68.242 191.356 66.702C191.356 65.476 191.265 64.223 191.086 62.977C191.054 62.753 191.175 62.537 191.382 62.447L197.833 59.652L196.065 54.211L189.356 55.708C189.127 55.757 188.898 55.645 188.796 55.436C187.58 52.908 185.958 50.594 183.977 48.56C183.82 48.399 183.79 48.152 183.905 47.957L187.484 41.9L182.856 38.537L178.306 43.693C178.152 43.867 177.898 43.913 177.693 43.801C175.219 42.464 172.548 41.544 169.756 41.068C169.533 41.03 169.363 40.847 169.342 40.622L168.677 33.622H162.956L162.305 40.475C162.283 40.707 162.104 40.893 161.873 40.924C159.068 41.297 156.366 42.118 153.842 43.364C153.64 43.465 153.395 43.417 153.246 43.247L148.596 37.977L143.968 41.34L147.472 47.271C147.59 47.471 147.555 47.726 147.387 47.886C145.341 49.839 143.638 52.091 142.324 54.58C142.219 54.779 141.992 54.88 141.773 54.835L134.913 53.305L133.145 58.746L139.461 61.482C139.674 61.575 139.796 61.801 139.755 62.03C139.472 63.592 139.329 65.162 139.329 66.699C139.329 67.921 139.42 69.175 139.599 70.425C139.631 70.649 139.51 70.865 139.303 70.955L132.853 73.75L134.621 79.19L141.331 77.693C141.558 77.645 141.79 77.756 141.891 77.964C143.107 80.491 144.728 82.805 146.709 84.84C146.866 85.001 146.896 85.248 146.781 85.443L143.202 91.501L147.83 94.863L152.38 89.708C152.534 89.534 152.788 89.488 152.993 89.6C155.465 90.935 158.135 91.855 160.931 92.333C161.154 92.371 161.323 92.554 161.344 92.779L162.008 99.781ZM165.344 84.02C155.795 84.02 148.026 76.252 148.026 66.702C148.026 57.153 155.795 49.385 165.344 49.385C174.893 49.385 182.661 57.154 182.661 66.702C182.661 76.251 174.893 84.02 165.344 84.02ZM165.344 50.384C156.346 50.384 149.026 57.704 149.026 66.701C149.026 75.699 156.346 83.019 165.344 83.019C174.341 83.019 181.661 75.699 181.661 66.701C181.661 57.704 174.341 50.384 165.344 50.384Z" fill="#12374F"/>
<path d="M71.651 27.0551L84.065 36.9351L94.012 24.7361L97.953 27.5511L85.191 48.0071L70.553 41.6261L71.651 27.0551Z" fill="#1E90FF"/>
<path d="M85.191 48.507C85.124 48.507 85.056 48.493 84.991 48.465L70.353 42.084C70.158 41.999 70.038 41.801 70.054 41.589L71.152 27.018C71.166 26.832 71.281 26.671 71.45 26.597C71.619 26.522 71.816 26.548 71.962 26.663L83.99 36.235L93.624 24.419C93.791 24.216 94.086 24.175 94.302 24.328L98.243 27.142C98.458 27.295 98.516 27.59 98.377 27.814L85.615 48.27C85.522 48.422 85.359 48.507 85.191 48.507ZM71.079 41.31L84.996 47.376L97.281 27.685L94.104 25.416L84.454 37.251C84.281 37.463 83.971 37.497 83.755 37.326L72.08 28.034L71.079 41.31Z" fill="#12374F"/>
<path d="M68.061 64.775H38.973L37.397 143.959H44.45L53.517 83.765L62.584 143.959H69.636L68.061 64.775Z" fill="#12374F"/>
<path d="M69.636 144.459H62.584C62.336 144.459 62.126 144.278 62.089 144.033L53.517 87.122L44.945 144.033C44.908 144.278 44.698 144.459 44.45 144.459H37.398C37.264 144.459 37.135 144.405 37.041 144.309C36.947 144.213 36.895 144.083 36.898 143.95L38.473 64.766C38.478 64.494 38.701 64.276 38.973 64.276H68.061C68.333 64.276 68.556 64.494 68.561 64.766L70.136 143.95C70.139 144.084 70.087 144.214 69.993 144.309C69.899 144.405 69.77 144.459 69.636 144.459ZM63.014 143.459H69.126L67.571 65.275H39.463L37.908 143.459H44.02L53.023 83.691C53.06 83.446 53.27 83.265 53.518 83.265C53.766 83.265 53.975 83.446 54.013 83.691L63.014 143.459Z" fill="#12374F"/>
<path d="M58.703 21.927L53.547 23.015L48.392 21.927L35.444 27.055L38.973 64.775H68.122L71.651 27.055L58.703 21.927Z" fill="#1E90FF"/>
<path d="M68.123 65.275H38.973C38.715 65.275 38.499 65.079 38.475 64.822L34.946 27.101C34.925 26.879 35.053 26.671 35.26 26.589L48.208 21.461C48.3 21.424 48.401 21.418 48.495 21.437L53.547 22.503L58.6 21.437C58.695 21.418 58.795 21.424 58.887 21.461L71.835 26.589C72.041 26.671 72.169 26.879 72.149 27.101L68.621 64.822C68.596 65.079 68.381 65.275 68.123 65.275ZM39.428 64.275H67.667L71.118 27.381L58.659 22.446L53.65 23.503C53.583 23.517 53.511 23.517 53.444 23.503L48.436 22.446L35.977 27.381L39.428 64.275Z" fill="#12374F"/>
<path d="M50.334 29.7611L52.438 34.9671L50.777 57.4281L53.435 62.3021L56.536 57.2071L53.989 35.1891L56.204 30.6471L53.314 26.4341L50.334 29.7611Z" fill="#12374F"/>
<path d="M53.435 62.802C53.431 62.802 53.427 62.802 53.423 62.802C53.244 62.798 53.081 62.698 52.996 62.541L50.338 57.668C50.292 57.584 50.271 57.487 50.278 57.392L51.93 35.046L49.869 29.948C49.797 29.771 49.833 29.569 49.96 29.427L52.941 26.1C53.044 25.987 53.192 25.923 53.346 25.935C53.499 25.945 53.639 26.025 53.726 26.151L56.616 30.365C56.718 30.513 56.732 30.706 56.653 30.867L54.502 35.277L57.033 57.15C57.046 57.26 57.021 57.373 56.964 57.467L53.862 62.562C53.771 62.711 53.609 62.802 53.435 62.802ZM51.286 57.318L53.459 61.3L56.02 57.093L53.492 35.245C53.481 35.15 53.497 35.054 53.539 34.969L55.626 30.69L53.261 27.241L50.913 29.862L52.9 34.779C52.929 34.85 52.941 34.926 52.935 35.004L51.286 57.318Z" fill="#12374F"/>
<path d="M58.563 21.927L53.399 28.454L48.559 21.927V16.047H58.563V21.927Z" fill="white"/>
<path d="M53.399 28.953C53.397 28.953 53.394 28.953 53.391 28.953C53.235 28.95 53.09 28.876 52.997 28.751L48.156 22.225C48.092 22.139 48.057 22.035 48.057 21.927V16.047C48.057 15.771 48.281 15.547 48.557 15.547H58.561C58.837 15.547 59.061 15.771 59.061 16.047V21.927C59.061 22.039 59.023 22.149 58.953 22.238L53.79 28.764C53.697 28.884 53.552 28.953 53.399 28.953ZM49.059 21.762L53.413 27.631L58.063 21.753V16.547H49.059V21.762Z" fill="#12374F"/>
<path d="M48.008 21.011L46.632 22.704L48.186 32.339L53.399 28.454L59.064 32.183L59.996 22.704L58.641 21.343L53.314 26.434L48.008 21.011Z" fill="#1E90FF"/>
<path d="M48.186 32.839C48.123 32.839 48.059 32.827 47.998 32.802C47.836 32.737 47.72 32.591 47.692 32.419L46.138 22.784C46.116 22.642 46.154 22.499 46.243 22.388L47.618 20.695C47.708 20.585 47.841 20.517 47.983 20.511C48.124 20.501 48.264 20.558 48.363 20.66L53.324 25.729L58.293 20.981C58.489 20.793 58.801 20.797 58.992 20.99L60.347 22.35C60.452 22.455 60.505 22.603 60.491 22.751L59.559 32.23C59.542 32.405 59.435 32.557 59.277 32.632C59.119 32.706 58.933 32.695 58.787 32.599L53.415 29.061L48.483 32.738C48.397 32.805 48.292 32.839 48.186 32.839ZM47.162 22.846L48.549 31.446L53.101 28.052C53.269 27.928 53.499 27.92 53.675 28.035L58.648 31.31L59.476 22.889L58.632 22.043L53.66 26.794C53.462 26.985 53.149 26.98 52.957 26.782L48.043 21.76L47.162 22.846Z" fill="#12374F"/>
<path d="M37.3969 143.959C37.3969 143.959 34.4059 153.198 34.8509 153.346C35.2949 153.494 44.9169 153.346 44.9169 153.346L44.4489 143.959H37.3969Z" fill="white"/>
<path d="M37.978 153.913C36.197 153.913 34.897 153.889 34.692 153.82C34.162 153.643 33.778 153.516 36.921 143.804C36.988 143.598 37.18 143.458 37.397 143.458H44.449C44.716 143.458 44.935 143.667 44.949 143.934L45.417 153.321C45.424 153.456 45.375 153.589 45.282 153.687C45.189 153.786 45.06 153.843 44.925 153.845C42.583 153.882 39.978 153.913 37.978 153.913ZM35.336 152.894C36.638 152.941 41.206 152.9 44.392 152.854L43.974 144.46H37.762C36.639 147.949 35.532 151.714 35.336 152.894Z" fill="#12374F"/>
<path d="M69.757 143.959C69.757 143.959 72.748 153.198 72.303 153.346C71.859 153.494 62.237 153.346 62.237 153.346L62.705 143.959H69.757Z" fill="white"/>
<path d="M69.181 153.913C67.181 153.913 64.574 153.882 62.23 153.846C62.095 153.844 61.966 153.786 61.873 153.688C61.78 153.589 61.731 153.457 61.738 153.322L62.206 143.935C62.219 143.668 62.439 143.459 62.706 143.459H69.758C69.975 143.459 70.167 143.599 70.234 143.805C73.377 153.517 73.013 153.637 72.463 153.821C72.257 153.889 70.96 153.913 69.181 153.913ZM62.763 152.853C65.929 152.899 70.458 152.939 71.818 152.886C71.619 151.701 70.514 147.944 69.393 144.458H63.181L62.763 152.853Z" fill="#12374F"/>
<path d="M64.102 4.28601C64.102 4.28601 66.55 5.58501 66.763 7.17001C66.976 8.75501 63.942 11.946 63.942 11.946L64.056 6.24301L64.102 4.28601Z" fill="#12374F"/>
<path d="M63.942 12.446C63.878 12.446 63.814 12.433 63.752 12.409C63.562 12.33 63.439 12.142 63.442 11.936L63.602 4.274C63.606 4.101 63.7 3.94202 63.85 3.85402C63.999 3.76602 64.184 3.76201 64.337 3.84401C64.611 3.98901 67.019 5.31502 67.259 7.10402C67.497 8.87602 64.632 11.946 64.304 12.29C64.209 12.393 64.077 12.446 63.942 12.446ZM64.582 5.17403L64.47 10.586C65.419 9.42101 66.368 7.97702 66.268 7.23702C66.164 6.45802 65.294 5.67603 64.582 5.17403Z" fill="#12374F"/>
<path d="M61.559 2.04299C62.61 2.51399 63.507 3.23098 64.102 4.28698C65.614 6.96898 64.372 9.90898 63.691 12.74C63.305 14.345 61.258 23.065 59.731 23.645C58.204 24.226 56.232 23.897 54.395 22.757C52.558 21.617 49.464 18.718 48.806 17.655C48.149 16.593 48.726 13.118 48.727 13.112C48.8 12.675 48.309 11.744 48.224 11.293C48.036 10.292 47.904 9.225 47.989 8.208C48.277 4.754 50.694 2.08799 54.095 1.52599C56.428 1.14099 59.362 1.05799 61.559 2.04299Z" fill="white"/>
<path d="M58.11 24.43C56.837 24.43 55.457 24.005 54.131 23.182C52.216 21.994 49.069 19.031 48.381 17.918C47.602 16.658 48.231 13.041 48.239 13.007C48.255 12.88 48.07 12.389 47.971 12.125C47.869 11.853 47.773 11.597 47.733 11.385C47.492 10.105 47.415 9.08101 47.491 8.16701C47.798 4.49301 50.419 1.627 54.013 1.033C55.789 0.738002 59.159 0.421018 61.763 1.58702C62.997 2.14002 63.931 2.965 64.537 4.041C65.9 6.458 65.209 9.001 64.541 11.46C64.414 11.928 64.288 12.394 64.176 12.856L64.136 13.022C61.635 23.456 60.38 23.932 59.907 24.112C59.349 24.325 58.743 24.43 58.11 24.43ZM57.241 1.757C56.051 1.757 54.953 1.892 54.177 2.02C50.993 2.545 48.76 4.99201 48.487 8.25001C48.419 9.07201 48.491 10.01 48.716 11.2C48.744 11.348 48.825 11.554 48.908 11.773C49.095 12.272 49.288 12.788 49.221 13.193C49.039 14.266 48.804 16.701 49.232 17.392C49.856 18.4 52.876 21.225 54.659 22.331C56.352 23.381 58.181 23.698 59.554 23.176C59.76 23.098 60.902 22.23 63.165 12.789L63.205 12.621C63.319 12.149 63.448 11.674 63.577 11.197C64.221 8.828 64.828 6.59101 63.667 4.53001C63.168 3.64501 62.39 2.962 61.355 2.498C60.092 1.934 58.605 1.757 57.241 1.757Z" fill="#12374F"/>
<path d="M62.296 1.77802C62.296 1.77802 64.848 2.918 64.81 4.581C64.772 6.244 62.626 7.675 58.083 7.754C53.54 7.833 52.863 7.60102 52.863 7.60102C52.863 7.60102 54.314 8.91499 53.637 9.39899C52.961 9.88299 52.013 10.56 52.013 10.56L51.878 12.803C51.878 12.803 50.622 13.905 50.544 12.939C50.466 11.972 50.195 10.735 49.867 10.561C49.538 10.387 48.224 11.295 48.224 11.295C48.224 11.295 48.068 8.47399 48.705 6.07599C49.342 3.67799 50.418 2.74402 54.094 1.52802C57.771 0.310017 62.296 1.77802 62.296 1.77802Z" fill="#12374F"/>
<path d="M50.869 13.832C50.764 13.832 50.66 13.815 50.56 13.774C50.386 13.704 50.088 13.506 50.046 12.976C49.977 12.115 49.783 11.358 49.645 11.067C49.397 11.155 48.922 11.419 48.509 11.704C48.36 11.807 48.167 11.822 48.005 11.742C47.842 11.662 47.735 11.501 47.726 11.32C47.719 11.202 47.573 8.39104 48.223 5.94504C48.911 3.36004 50.139 2.30803 53.938 1.05103C57.728 -0.203972 62.259 1.24003 62.45 1.30103C62.467 1.30703 62.484 1.31305 62.5 1.32105C62.617 1.37305 65.355 2.62004 65.31 4.59204C65.271 6.30204 63.354 8.16202 58.092 8.25302C56.107 8.28802 54.844 8.26402 54.041 8.22302C54.211 8.50502 54.332 8.81403 54.315 9.10803C54.299 9.39003 54.161 9.63803 53.927 9.80503L52.498 10.827L52.377 12.832C52.369 12.965 52.308 13.09 52.208 13.178C51.961 13.394 51.396 13.832 50.869 13.832ZM49.777 10.035C49.948 10.035 50.042 10.085 50.101 10.116C50.754 10.462 50.971 12.111 51.033 12.777C51.137 12.725 51.268 12.642 51.393 12.55L51.515 10.527C51.524 10.377 51.6 10.238 51.724 10.15L53.347 8.99002C53.327 8.87102 52.943 8.34603 52.528 7.96903C52.353 7.81003 52.313 7.54903 52.434 7.34503C52.555 7.14003 52.803 7.05004 53.026 7.12604C53.037 7.12704 53.85 7.32604 58.076 7.25104C62.635 7.17304 64.284 5.75604 64.312 4.56604C64.337 3.49504 62.762 2.53904 62.119 2.24304C61.759 2.13304 57.592 0.895026 54.255 1.99903C50.553 3.22403 49.744 4.12202 49.192 6.20102C48.793 7.70202 48.716 9.40002 48.711 10.399C49.235 10.113 49.565 10.035 49.777 10.035Z" fill="#12374F"/>
<path d="M58.918 17.7869L60.464 17.8059L60.076 13.6879L60.752 11.7739" fill="white"/>
<path d="M60.464 18.056H60.461L58.914 18.037C58.776 18.035 58.665 17.922 58.667 17.784C58.668 17.647 58.78 17.537 58.917 17.537H58.92L60.189 17.553L59.827 13.711C59.824 13.675 59.828 13.639 59.84 13.605L60.516 11.691C60.563 11.561 60.705 11.495 60.835 11.539C60.965 11.585 61.033 11.728 60.987 11.857L60.329 13.719L60.712 17.782C60.718 17.852 60.695 17.923 60.647 17.974C60.601 18.026 60.534 18.056 60.464 18.056Z" fill="#12374F"/>
<path d="M61.342 13.243C61.252 13.788 61.386 14.264 61.642 14.306C61.898 14.349 62.179 13.942 62.27 13.397C62.361 12.852 62.226 12.376 61.97 12.334C61.714 12.291 61.433 12.698 61.342 13.243Z" fill="#12374F"/>
<path d="M57.195 13.09C57.105 13.635 57.239 14.111 57.495 14.153C57.751 14.196 58.032 13.789 58.123 13.244C58.214 12.699 58.079 12.223 57.823 12.181C57.567 12.139 57.286 12.545 57.195 13.09Z" fill="#12374F"/>
<path d="M59.653 19.102C59.653 19.102 57.991 20.494 55.747 18.214Z" fill="white"/>
<path d="M58.317 19.766C57.583 19.766 56.628 19.466 55.568 18.388C55.471 18.29 55.472 18.132 55.571 18.035C55.67 17.939 55.828 17.94 55.925 18.039C57.967 20.114 59.432 18.96 59.493 18.91C59.599 18.822 59.757 18.836 59.845 18.943C59.933 19.049 59.919 19.206 59.814 19.294C59.803 19.302 59.23 19.766 58.317 19.766Z" fill="#12374F"/>
<path d="M62.956 11.425C62.956 11.425 62.53 10.401 61.351 11.039Z" fill="white"/>
<path d="M62.956 11.675C62.858 11.675 62.766 11.617 62.726 11.523C62.72 11.509 62.587 11.217 62.293 11.117C62.068 11.038 61.79 11.087 61.471 11.26C61.349 11.324 61.198 11.281 61.132 11.159C61.066 11.038 61.111 10.886 61.233 10.82C61.685 10.576 62.1 10.52 62.465 10.646C62.974 10.827 63.179 11.309 63.188 11.33C63.241 11.457 63.181 11.603 63.053 11.656C63.021 11.669 62.989 11.675 62.956 11.675Z" fill="#12374F"/>
<path d="M59.109 10.904C59.109 10.904 57.253 9.87997 56.035 11.466Z" fill="white"/>
<path d="M56.035 11.716C55.982 11.716 55.928 11.699 55.883 11.664C55.774 11.58 55.753 11.423 55.837 11.313C57.17 9.57799 59.211 10.673 59.23 10.685C59.351 10.752 59.394 10.903 59.328 11.024C59.262 11.145 59.11 11.191 58.989 11.123C58.921 11.087 57.303 10.225 56.233 11.618C56.184 11.683 56.109 11.716 56.035 11.716Z" fill="#12374F"/>
<path d="M50.987 14.488C50.987 14.488 51.712 10.935 49.867 10.559C48.022 10.183 48.224 11.293 48.066 12.948C47.872 14.968 49.346 15.661 49.346 15.661" fill="white"/>
<path d="M49.344 16.1601C49.273 16.1601 49.201 16.1441 49.133 16.1121C49.06 16.0781 47.343 15.2431 47.568 12.9001C47.588 12.6891 47.602 12.4871 47.616 12.2961C47.677 11.4331 47.729 10.6881 48.283 10.2671C48.666 9.97607 49.2 9.91407 49.967 10.0691C51.81 10.4461 51.783 13.0871 51.476 14.5881C51.421 14.8581 51.159 15.0351 50.887 14.9791C50.616 14.9231 50.442 14.6601 50.497 14.3891C50.658 13.5941 50.869 11.2751 49.767 11.0501C49.179 10.9301 48.963 11.0081 48.888 11.0651C48.696 11.2111 48.656 11.7731 48.614 12.3681C48.6 12.5671 48.585 12.7771 48.564 12.9981C48.408 14.6221 49.516 15.1881 49.563 15.2121C49.809 15.3331 49.914 15.6311 49.794 15.8781C49.707 16.0551 49.53 16.1601 49.344 16.1601Z" fill="#12374F"/>
<path d="M114.847 51.354C114.847 49.886 114.737 48.444 114.534 47.033L122.352 43.646L120.02 36.468L111.877 38.284C110.452 35.323 108.553 32.635 106.287 30.307L110.623 22.967L104.517 18.531L98.9949 24.788C96.1669 23.259 93.065 22.176 89.785 21.615L88.9789 13.131H81.4309L80.6409 21.449C77.3359 21.89 74.1999 22.861 71.3229 24.282L65.688 17.896L59.5819 22.332L63.8329 29.528C61.4809 31.774 59.4909 34.393 57.9589 37.295L49.6449 35.441L47.313 42.619L54.9779 45.94C54.6589 47.698 54.4839 49.506 54.4839 51.356C54.4839 52.824 54.5939 54.265 54.7969 55.677L46.9789 59.064L49.3109 66.242L57.4539 64.426C58.8789 67.387 60.7779 70.075 63.0439 72.403L58.7079 79.743L64.8139 84.179L70.3349 77.922C73.1629 79.451 76.2649 80.534 79.5449 81.095L80.3509 89.579H87.8989L88.6889 81.261C91.9939 80.82 95.13 79.849 98.007 78.428L103.642 84.814L109.748 80.378L105.497 73.182C107.849 70.936 109.84 68.317 111.371 65.415L119.685 67.269L122.017 60.091L114.352 56.77C114.672 55.012 114.847 53.204 114.847 51.354ZM65.5219 51.354C65.5219 40.781 74.0929 32.21 84.6659 32.21C95.2389 32.21 103.81 40.781 103.81 51.354C103.81 61.927 95.2389 70.498 84.6659 70.498C74.0929 70.498 65.5219 61.927 65.5219 51.354Z" fill="#B2B2B2"/>
<path d="M87.899 90.078H80.352C80.094 90.078 79.879 89.882 79.854 89.625L79.084 81.52C76.056 80.964 73.155 79.965 70.45 78.548L65.19 84.509C65.019 84.702 64.729 84.735 64.521 84.582L58.415 80.147C58.206 79.996 58.147 79.71 58.278 79.489L62.422 72.475C60.298 70.24 58.537 67.728 57.179 64.999L49.421 66.728C49.17 66.782 48.916 66.64 48.836 66.394L46.504 59.216C46.424 58.971 46.544 58.705 46.781 58.603L54.25 55.367C54.074 54.021 53.984 52.673 53.984 51.353C53.984 49.667 54.13 47.949 54.418 46.24L47.115 43.076C46.878 42.973 46.759 42.708 46.838 42.463L49.17 35.284C49.25 35.038 49.503 34.895 49.755 34.95L57.699 36.722C59.16 34.036 61.009 31.59 63.203 29.441L59.152 22.584C59.021 22.362 59.08 22.077 59.289 21.926L65.395 17.49C65.603 17.339 65.893 17.37 66.064 17.563L71.448 23.664C74.206 22.345 77.141 21.452 80.182 21.007L80.935 13.083C80.959 12.826 81.175 12.63 81.433 12.63H88.98C89.238 12.63 89.453 12.826 89.478 13.083L90.249 21.187C93.277 21.744 96.178 22.743 98.883 24.159L104.143 18.198C104.315 18.004 104.604 17.973 104.812 18.125L110.918 22.561C111.127 22.712 111.186 22.997 111.055 23.219L106.911 30.232C109.035 32.467 110.796 34.979 112.154 37.709L119.912 35.978C120.163 35.923 120.416 36.066 120.497 36.312L122.829 43.491C122.909 43.736 122.789 44.002 122.552 44.104L115.083 47.339C115.259 48.686 115.349 50.034 115.349 51.353C115.349 53.041 115.203 54.758 114.915 56.467L122.218 59.631C122.455 59.734 122.574 59.999 122.495 60.244L120.163 67.422C120.083 67.668 119.828 67.812 119.578 67.756L111.634 65.984C110.174 68.669 108.324 71.117 106.13 73.266L110.181 80.122C110.312 80.344 110.253 80.629 110.044 80.78L103.938 85.216C103.731 85.367 103.441 85.336 103.269 85.143L97.885 79.042C95.126 80.36 92.191 81.253 89.15 81.699L88.397 89.623C88.372 89.882 88.157 90.078 87.899 90.078ZM80.806 89.078H87.444L88.191 81.214C88.213 80.982 88.392 80.796 88.622 80.766C91.823 80.338 94.906 79.401 97.786 77.98C97.987 77.878 98.231 77.927 98.382 78.097L103.716 84.142L109.086 80.241L105.065 73.436C104.947 73.236 104.982 72.981 105.15 72.821C107.485 70.591 109.429 68.021 110.927 65.181C111.032 64.982 111.257 64.877 111.478 64.926L119.349 66.682L121.4 60.369L114.152 57.228C113.939 57.135 113.817 56.909 113.858 56.68C114.181 54.902 114.344 53.109 114.344 51.353C114.344 49.958 114.24 48.528 114.036 47.103C114.004 46.879 114.125 46.663 114.332 46.573L121.732 43.367L119.681 37.054L111.982 38.772C111.755 38.822 111.524 38.71 111.423 38.5C110.035 35.616 108.185 32.977 105.925 30.654C105.768 30.493 105.738 30.246 105.853 30.051L109.958 23.102L104.588 19.201L99.367 25.117C99.213 25.291 98.959 25.337 98.754 25.225C95.933 23.701 92.886 22.652 89.697 22.106C89.474 22.068 89.305 21.885 89.284 21.66L88.521 13.63H81.883L81.136 21.494C81.114 21.726 80.935 21.912 80.704 21.943C77.503 22.369 74.42 23.306 71.541 24.728C71.339 24.828 71.094 24.78 70.945 24.611L65.61 18.566L60.24 22.467L64.261 29.272C64.379 29.472 64.344 29.727 64.176 29.887C61.841 32.116 59.897 34.687 58.399 37.526C58.293 37.724 58.067 37.828 57.848 37.781L49.977 36.025L47.926 42.339L55.173 45.48C55.386 45.573 55.508 45.799 55.467 46.028C55.144 47.806 54.981 49.598 54.981 51.354C54.981 52.751 55.085 54.18 55.289 55.604C55.321 55.828 55.2 56.044 54.993 56.134L47.593 59.341L49.644 65.654L57.343 63.937C57.572 63.887 57.801 63.998 57.903 64.209C59.29 67.092 61.14 69.731 63.401 72.054C63.558 72.215 63.588 72.462 63.473 72.657L59.368 79.606L64.738 83.507L69.959 77.591C70.114 77.417 70.368 77.371 70.572 77.483C73.393 79.007 76.44 80.057 79.628 80.602C79.851 80.64 80.021 80.823 80.042 81.048L80.806 89.078ZM84.666 70.998C73.834 70.998 65.022 62.185 65.022 51.353C65.022 40.522 73.834 31.71 84.666 31.71C95.498 31.71 104.31 40.523 104.31 51.353C104.31 62.185 95.497 70.998 84.666 70.998ZM84.666 32.71C74.386 32.71 66.022 41.073 66.022 51.353C66.022 61.633 74.385 69.998 84.666 69.998C94.946 69.998 103.31 61.634 103.31 51.353C103.31 41.073 94.946 32.71 84.666 32.71Z" fill="#12374F"/>
<path d="M35.444 27.0551C35.444 27.0551 33.445 38.8361 33.445 39.8581C33.445 40.8801 37.412 56.0161 37.412 56.0161L59.441 72.5001L61.281 67.593L46.327 49.6741L43.464 34.7471" fill="#1E90FF"/>
<path d="M59.441 73C59.334 73 59.229 72.966 59.142 72.9L37.114 56.417C37.023 56.35 36.958 56.253 36.929 56.144C36.264 53.606 32.946 40.893 32.946 39.859C32.946 38.824 34.746 28.182 34.951 26.971C34.997 26.699 35.257 26.514 35.528 26.562C35.8 26.609 35.984 26.867 35.938 27.139C35.137 31.858 33.946 39.139 33.946 39.859C33.962 40.609 36.331 49.912 37.853 55.721L59.206 71.7L60.71 67.689L45.943 49.993C45.889 49.928 45.852 49.85 45.836 49.766L42.973 34.839C42.921 34.568 43.099 34.306 43.37 34.254C43.639 34.205 43.903 34.379 43.955 34.651L46.793 49.451L61.664 67.271C61.779 67.409 61.811 67.598 61.748 67.767L59.908 72.674C59.853 72.821 59.731 72.934 59.58 72.978C59.535 72.993 59.488 73 59.441 73Z" fill="#12374F"/>
<path d="M61.281 67.592L64.248 68.305L67.849 69.955L67.549 71.305L65.149 71.005L68.75 74.305L67.55 75.955L64.85 75.655C64.85 75.655 62.3 75.055 61.85 74.905C61.4 74.755 59.443 72.498 59.443 72.498L61.281 67.592Z" fill="white"/>
<path d="M67.548 76.4561C67.53 76.4561 67.511 76.4551 67.493 76.4531L64.793 76.1531C64.47 76.0811 62.148 75.5341 61.689 75.3811C61.21 75.2221 59.996 73.9041 59.063 72.8271C58.943 72.6891 58.908 72.4961 58.973 72.3241L60.813 67.4171C60.902 67.1821 61.151 67.0501 61.398 67.1061L64.365 67.8191L68.057 69.5021C68.271 69.6001 68.388 69.8341 68.337 70.0651L68.037 71.4151C67.981 71.6671 67.744 71.8381 67.487 71.8031L66.642 71.6981L69.087 73.9401C69.275 74.1121 69.303 74.3971 69.153 74.6021L67.953 76.2511C67.858 76.3811 67.707 76.4561 67.548 76.4561ZM60.014 72.3961C60.829 73.3221 61.778 74.3131 62.029 74.4421C62.358 74.5501 64.259 75.0051 64.963 75.1701L67.315 75.4281L68.082 74.3731L64.811 71.3741C64.651 71.2281 64.604 70.9931 64.695 70.7961C64.786 70.5991 64.992 70.4791 65.211 70.5101L67.16 70.7531L67.274 70.2421L64.041 68.7601L61.596 68.1811L60.014 72.3961Z" fill="#12374F"/>
<path d="M93.261 22.672L95.513 20.795L100.017 22.484L98.996 24.786L93.261 22.672Z" fill="white"/>
<path d="M98.996 25.2861C98.938 25.2861 98.88 25.2761 98.823 25.2551L93.088 23.141C92.921 23.08 92.798 22.933 92.768 22.757C92.738 22.581 92.803 22.4031 92.94 22.2881L95.192 20.4111C95.33 20.2951 95.519 20.2641 95.688 20.3271L100.192 22.0171C100.321 22.0651 100.424 22.164 100.477 22.291C100.53 22.418 100.529 22.562 100.473 22.688L99.452 24.99C99.371 25.175 99.188 25.2861 98.996 25.2861ZM94.246 22.5021L98.729 24.1551L99.345 22.766L95.61 21.365L94.246 22.5021Z" fill="#12374F"/>
</svg>
