<svg width="180" height="195" viewBox="0 0 180 195" fill="none" xmlns="http://www.w3.org/2000/svg">
<path d="M178.977 194.926H1.354C1.078 194.926 0.854004 194.702 0.854004 194.426C0.854004 194.15 1.078 193.926 1.354 193.926H178.978C179.254 193.926 179.478 194.15 179.478 194.426C179.477 194.702 179.254 194.926 178.977 194.926Z" fill="#12374F"/>
<path d="M159.763 68.0691L172.123 93.4461C172.123 93.4461 170.77 96.1531 170.018 96.7551C169.266 97.3571 167.762 97.8081 166.709 97.2061C165.656 96.6051 158.767 86.6951 158.767 86.6951L159.763 68.0691Z" fill="#1E90FF"/>
<path d="M167.86 97.99C167.379 97.99 166.896 97.889 166.461 97.64C165.366 97.014 159.518 88.65 158.356 86.98C158.293 86.889 158.261 86.779 158.267 86.667L159.263 68.041C159.275 67.813 159.44 67.623 159.663 67.578C159.886 67.533 160.112 67.644 160.212 67.849L172.572 93.226C172.64 93.366 172.639 93.529 172.569 93.668C172.426 93.955 171.143 96.492 170.329 97.144C169.783 97.583 168.825 97.99 167.86 97.99ZM159.275 86.551C162.541 91.243 166.316 96.383 166.958 96.773C167.809 97.259 169.101 96.849 169.705 96.365C170.157 96.004 171.038 94.467 171.565 93.443L160.159 70.025L159.275 86.551Z" fill="#12374F"/>
<path d="M156.172 105.789H127.084L125.509 184.973H132.561L141.628 124.78L150.695 184.973H157.747L156.172 105.789Z" fill="#12374F"/>
<path d="M157.747 185.473H150.695C150.448 185.473 150.237 185.292 150.2 185.048L141.627 128.137L133.055 185.048C133.018 185.293 132.808 185.473 132.56 185.473H125.508C125.374 185.473 125.245 185.419 125.151 185.323C125.057 185.227 125.005 185.097 125.008 184.963L126.583 105.78C126.588 105.507 126.81 105.29 127.083 105.29H156.171C156.443 105.29 156.666 105.508 156.671 105.78L158.246 184.963C158.248 185.097 158.197 185.227 158.103 185.323C158.01 185.419 157.881 185.473 157.747 185.473ZM151.126 184.473H157.237L155.682 106.29H127.574L126.019 184.473H132.131L141.133 124.705C141.17 124.46 141.38 124.28 141.628 124.28C141.876 124.28 142.086 124.461 142.123 124.705L151.126 184.473Z" fill="#12374F"/>
<path d="M146.815 62.941L141.659 64.029L136.503 62.941L123.555 68.069L127.084 105.789H156.234L159.763 68.069L146.815 62.941Z" fill="#1E90FF"/>
<path d="M156.234 106.29H127.084C126.826 106.29 126.61 106.094 126.586 105.836L123.057 68.116C123.037 67.895 123.164 67.6871 123.371 67.6051L136.319 62.477C136.411 62.441 136.511 62.4321 136.606 62.4531L141.659 63.519L146.711 62.4531C146.806 62.4321 146.907 62.441 146.998 62.477L159.946 67.6051C160.153 67.6871 160.281 67.895 160.26 68.116L156.731 105.836C156.708 106.093 156.492 106.29 156.234 106.29ZM127.54 105.29H155.779L159.231 68.3961L146.771 63.462L141.763 64.519C141.696 64.534 141.624 64.534 141.557 64.519L136.548 63.462L124.089 68.3961L127.54 105.29Z" fill="#12374F"/>
<path d="M138.445 70.775L140.55 75.981L138.888 98.443L141.547 103.316L144.648 98.221L142.1 76.203L144.316 71.662L141.426 67.448L138.445 70.775Z" fill="#12374F"/>
<path d="M141.546 103.816C141.542 103.816 141.538 103.816 141.534 103.816C141.355 103.812 141.192 103.712 141.107 103.555L138.449 98.681C138.403 98.597 138.382 98.501 138.389 98.405L140.042 76.06L137.981 70.963C137.909 70.786 137.945 70.584 138.072 70.442L141.052 67.114C141.155 67 141.309 66.945 141.457 66.948C141.61 66.958 141.751 67.038 141.837 67.164L144.727 71.378C144.829 71.526 144.843 71.718 144.764 71.88L142.614 76.29L145.144 98.163C145.157 98.274 145.132 98.386 145.075 98.48L141.973 103.575C141.883 103.725 141.721 103.816 141.546 103.816ZM139.398 98.332L141.571 102.315L144.132 98.108L141.605 76.26C141.594 76.165 141.61 76.069 141.652 75.983L143.739 71.704L141.374 68.255L139.026 70.877L141.013 75.794C141.042 75.865 141.054 75.942 141.048 76.019L139.398 98.332Z" fill="#12374F"/>
<path d="M146.674 62.941L141.511 69.468L136.67 62.941V57.061H146.674V62.941Z" fill="white"/>
<path d="M141.511 69.968C141.509 69.968 141.506 69.968 141.503 69.968C141.347 69.966 141.202 69.891 141.11 69.766L136.269 63.24C136.205 63.154 136.17 63.049 136.17 62.942V57.062C136.17 56.786 136.394 56.562 136.67 56.562H146.674C146.95 56.562 147.174 56.786 147.174 57.062V62.942C147.174 63.055 147.136 63.164 147.066 63.252L141.902 69.778C141.808 69.898 141.664 69.968 141.511 69.968ZM137.17 62.776L141.524 68.645L146.175 62.767V57.56H137.171V62.776H137.17Z" fill="#12374F"/>
<path d="M136.119 62.025L134.744 63.718L136.298 73.353L141.511 69.468L147.176 73.198L148.108 63.718L146.752 62.358L141.426 67.448L136.119 62.025Z" fill="#1E90FF"/>
<path d="M136.298 73.853C136.235 73.853 136.17 73.841 136.11 73.816C135.948 73.75 135.832 73.605 135.804 73.432L134.25 63.797C134.227 63.656 134.266 63.513 134.355 63.402L135.73 61.709C135.82 61.599 135.953 61.532 136.095 61.525C136.238 61.519 136.376 61.572 136.475 61.675L141.435 66.744L146.405 61.995C146.601 61.807 146.913 61.811 147.104 62.003L148.459 63.363C148.564 63.469 148.617 63.617 148.603 63.765L147.671 73.244C147.654 73.418 147.547 73.571 147.389 73.646C147.231 73.722 147.045 73.709 146.899 73.612L141.526 70.075L136.594 73.751C136.509 73.819 136.404 73.853 136.298 73.853ZM135.273 63.86L136.66 72.46L141.212 69.067C141.381 68.941 141.61 68.935 141.786 69.05L146.76 72.324L147.588 63.904L146.744 63.057L141.771 67.808C141.573 67.998 141.26 67.992 141.068 67.796L136.154 62.775L135.273 63.86Z" fill="#12374F"/>
<path d="M125.509 184.973C125.509 184.973 122.519 194.212 122.963 194.36C123.407 194.508 133.029 194.36 133.029 194.36L132.561 184.973H125.509Z" fill="white"/>
<path d="M126.088 194.928C124.308 194.928 123.009 194.903 122.805 194.835C122.274 194.658 121.89 194.53 125.034 184.819C125.1 184.613 125.293 184.473 125.51 184.473H132.562C132.829 184.473 133.048 184.682 133.061 184.948L133.529 194.336C133.536 194.471 133.487 194.604 133.394 194.703C133.301 194.802 133.172 194.859 133.037 194.861C130.694 194.896 128.087 194.928 126.088 194.928ZM123.447 193.908C124.749 193.955 129.316 193.915 132.503 193.868L132.085 185.473H125.873C124.75 188.964 123.643 192.728 123.447 193.908Z" fill="#12374F"/>
<path d="M157.869 184.973C157.869 184.973 160.859 194.212 160.415 194.36C159.971 194.508 150.349 194.36 150.349 194.36L150.817 184.973H157.869Z" fill="white"/>
<path d="M157.29 194.928C155.291 194.928 152.685 194.897 150.342 194.861C150.207 194.859 150.078 194.802 149.985 194.703C149.892 194.604 149.843 194.472 149.85 194.336L150.317 184.948C150.33 184.682 150.55 184.473 150.817 184.473H157.869C158.086 184.473 158.278 184.613 158.344 184.819C161.488 194.531 161.104 194.658 160.573 194.835C160.369 194.903 159.07 194.928 157.29 194.928ZM150.874 193.868C154.04 193.914 158.569 193.953 159.929 193.902C159.731 192.715 158.625 188.958 157.504 185.473H151.292L150.874 193.868Z" fill="#12374F"/>
<path d="M123.555 68.0691L121.084 89.4711L105.971 86.8531L105.591 91.3291L122.711 100.473L126.206 98.4031L123.555 68.0691Z" fill="#1E90FF"/>
<path d="M122.711 100.973C122.63 100.973 122.549 100.953 122.476 100.914L105.355 91.7701C105.179 91.6761 105.075 91.4861 105.092 91.2871L105.472 86.8101C105.484 86.6701 105.554 86.5421 105.664 86.4561C105.775 86.3711 105.917 86.3351 106.055 86.3591L120.646 88.8871L123.057 68.0111C123.086 67.7561 123.301 67.5541 123.56 67.5681C123.817 67.5721 124.029 67.7691 124.051 68.0251L126.702 98.3581C126.719 98.5491 126.624 98.7341 126.459 98.8321L122.964 100.902C122.888 100.949 122.8 100.973 122.711 100.973ZM106.117 91.0441L122.699 99.8991L125.681 98.1331L123.487 73.0241L121.581 89.5281C121.565 89.6651 121.494 89.7891 121.384 89.8711C121.274 89.9531 121.134 89.9871 120.999 89.9631L106.424 87.4381L106.117 91.0441Z" fill="#12374F"/>
<path d="M159.787 75.9451H147.441V95.8241H159.787V75.9451Z" fill="#12374F"/>
<path d="M159.787 96.324H147.441C147.165 96.324 146.941 96.1 146.941 95.824V75.946C146.941 75.67 147.165 75.446 147.441 75.446H159.787C160.063 75.446 160.287 75.67 160.287 75.946V95.824C160.287 96.1 160.064 96.324 159.787 96.324ZM147.941 95.324H159.287V76.446H147.941V95.324Z" fill="#12374F"/>
<path d="M162.076 84.2891L171.372 91.0401C171.372 91.0401 172.575 93.2961 171.823 95.4011C171.071 97.5061 168.966 98.4091 167.161 98.4091C165.356 98.4091 162.227 92.1091 161.926 91.6581C161.625 91.2071 158.768 86.6951 158.768 86.6951L162.076 84.2891Z" fill="#1E90FF"/>
<path d="M167.16 98.9101C165.874 98.9101 164.268 96.9761 161.792 92.4421C161.648 92.1791 161.551 91.9981 161.509 91.9361C161.208 91.4851 158.461 87.1481 158.344 86.9631C158.203 86.7401 158.259 86.4461 158.472 86.2911L161.781 83.8851C161.956 83.7571 162.193 83.7571 162.369 83.8841L171.664 90.6351C171.725 90.6801 171.776 90.7381 171.812 90.8051C171.865 90.9051 173.109 93.2831 172.292 95.5701C171.413 98.0351 168.978 98.9101 167.16 98.9101ZM159.44 86.8241C160.144 87.9351 162.099 91.0181 162.341 91.3811C162.388 91.4521 162.504 91.6601 162.669 91.9631C165.496 97.1381 166.696 97.9101 167.16 97.9101C168.653 97.9101 170.646 97.2091 171.351 95.2341C171.935 93.5991 171.179 91.8041 170.977 91.3721L162.076 84.9071L159.44 86.8241Z" fill="#12374F"/>
<path d="M160.572 82.184L156.511 84.44L156.661 87.899C156.661 87.899 161.624 88.952 162.075 88.501C162.527 88.049 162.527 81.281 160.572 82.184Z" fill="white"/>
<path d="M161.387 89.103C160.594 89.103 159.171 88.942 156.558 88.388C156.335 88.341 156.172 88.148 156.162 87.92L156.012 84.461C156.004 84.272 156.103 84.094 156.269 84.003L160.33 81.747C160.341 81.741 160.352 81.735 160.363 81.73C160.974 81.448 161.56 81.629 161.974 82.222C162.922 83.581 163.097 88.187 162.43 88.854C162.341 88.941 162.18 89.103 161.387 89.103ZM157.144 87.488C159.049 87.876 161.186 88.196 161.738 88.102C161.946 87.421 161.876 83.498 161.064 82.683C160.979 82.598 160.925 82.576 160.797 82.631L157.025 84.727L157.144 87.488Z" fill="#12374F"/>
<path d="M134.657 42.493C134.657 42.493 132.029 43.373 131.558 44.902C131.087 46.431 133.557 50.076 133.557 50.076L134.38 44.431L134.657 42.493Z" fill="#12374F"/>
<path d="M133.558 50.5761C133.394 50.5761 133.238 50.4961 133.144 50.3561C132.877 49.9631 130.555 46.4631 131.081 44.7541C131.612 43.0291 134.205 42.1171 134.499 42.0181C134.663 41.9631 134.845 41.9981 134.978 42.1081C135.111 42.2191 135.177 42.3911 135.153 42.5631L134.053 50.1471C134.023 50.3511 133.871 50.5161 133.67 50.5621C133.632 50.5721 133.595 50.5761 133.558 50.5761ZM134.039 43.2901C133.254 43.6691 132.268 44.2971 132.037 45.0481C131.817 45.7611 132.516 47.3411 133.261 48.6471L134.039 43.2901Z" fill="#12374F"/>
<path d="M137.534 40.697C136.42 40.989 135.417 41.549 134.657 42.493C132.726 44.89 133.468 47.994 133.675 50.899C133.793 52.545 134.381 61.483 135.792 62.306C137.203 63.129 139.202 63.129 141.202 62.306C143.201 61.483 146.729 59.131 147.552 58.19C148.374 57.25 148.375 53.728 148.375 53.721C148.375 53.278 149.012 52.44 149.17 52.009C149.52 51.053 149.825 50.022 149.908 49.004C150.191 45.549 148.244 42.523 144.981 41.411C142.743 40.65 139.863 40.087 137.534 40.697Z" fill="white"/>
<path d="M138.275 63.428C137.263 63.428 136.328 63.198 135.54 62.738C135.104 62.484 133.944 61.807 133.189 51.108L133.177 50.934C133.143 50.459 133.094 49.979 133.046 49.497C132.791 46.961 132.526 44.339 134.268 42.178C135.042 41.216 136.099 40.555 137.407 40.212H137.408C140.164 39.491 143.437 40.357 145.143 40.939C148.592 42.114 150.707 45.372 150.407 49.046C150.332 49.96 150.089 50.957 149.64 52.182C149.566 52.384 149.429 52.62 149.284 52.872C149.143 53.116 148.88 53.57 148.876 53.722C148.876 54.342 148.831 57.489 147.929 58.519C147.068 59.502 143.478 61.91 141.392 62.768C140.324 63.209 139.263 63.428 138.275 63.428ZM137.661 41.181C136.564 41.468 135.684 42.015 135.047 42.806C133.563 44.648 133.795 46.955 134.041 49.398C134.091 49.889 134.14 50.379 134.174 50.863L134.187 51.037C134.871 60.719 135.854 61.763 136.044 61.874C137.312 62.613 139.169 62.601 141.011 61.843C142.953 61.043 146.396 58.752 147.176 57.86C147.658 57.309 147.875 55.108 147.876 53.72C147.876 53.308 148.152 52.831 148.418 52.37C148.536 52.166 148.649 51.978 148.7 51.837C149.117 50.699 149.342 49.786 149.409 48.963C149.676 45.703 147.874 42.925 144.82 41.884C143.221 41.342 140.165 40.525 137.661 41.181Z" fill="#12374F"/>
<path d="M136.85 40.315C136.85 40.315 134.145 41.021 133.91 42.667C133.675 44.313 135.556 46.077 140.025 46.901C144.494 47.724 145.199 47.607 145.199 47.607C145.199 47.607 143.553 48.665 144.141 49.253C144.729 49.841 145.552 50.664 145.552 50.664L145.317 52.898C145.317 52.898 146.376 54.192 146.611 53.251C146.846 52.31 147.317 51.134 147.669 51.017C148.021 50.9 149.169 52.01 149.169 52.01C149.169 52.01 149.786 49.253 149.551 46.783C149.316 44.313 148.407 43.215 144.981 41.412C141.555 39.609 136.85 40.315 136.85 40.315Z" fill="#12374F"/>
<path d="M146.288 54.093C145.716 54.093 145.158 53.492 144.931 53.214C144.847 53.111 144.807 52.978 144.821 52.845L145.031 50.848L143.788 49.605C143.585 49.402 143.49 49.135 143.52 48.854C143.551 48.561 143.721 48.277 143.936 48.026C143.138 47.935 141.887 47.751 139.935 47.392C134.76 46.439 133.174 44.289 133.415 42.596C133.694 40.643 136.601 39.863 136.725 39.831C136.742 39.827 136.759 39.823 136.777 39.82C136.977 39.79 141.684 39.112 145.215 40.97C148.757 42.834 149.797 44.073 150.05 46.736C150.29 49.256 149.685 52.004 149.659 52.12C149.619 52.296 149.488 52.438 149.315 52.49C149.141 52.541 148.954 52.495 148.824 52.37C148.453 52.012 148.014 51.664 147.789 51.545C147.648 51.762 147.316 52.5 147.098 53.373C146.969 53.889 146.643 54.035 146.46 54.076C146.402 54.087 146.345 54.093 146.288 54.093ZM145.838 52.731C145.944 52.842 146.059 52.944 146.153 53.012C146.346 52.3 146.825 50.771 147.511 50.542C147.654 50.494 147.987 50.383 148.838 51.051C148.997 50.065 149.2 48.378 149.053 46.83C148.849 44.689 148.199 43.67 144.747 41.854C141.632 40.214 137.322 40.754 136.95 40.805C136.267 40.991 134.556 41.676 134.405 42.737C134.237 43.914 135.632 45.582 140.116 46.408C144.277 47.175 145.108 47.112 145.139 47.109C145.377 47.086 145.59 47.226 145.664 47.443C145.739 47.661 145.663 47.901 145.47 48.026C144.999 48.33 144.534 48.785 144.514 48.961L145.906 50.31C146.013 50.416 146.066 50.566 146.05 50.716L145.838 52.731Z" fill="#12374F"/>
<path d="M137.556 56.6621L136.027 56.4261L137.086 52.4281L136.733 50.4291" fill="white"/>
<path d="M137.557 56.9121C137.544 56.9121 137.532 56.9111 137.519 56.9091L135.99 56.6741C135.92 56.6631 135.858 56.6231 135.819 56.5641C135.78 56.5051 135.768 56.4321 135.786 56.3631L136.83 52.4181L136.487 50.4731C136.463 50.3371 136.554 50.2071 136.69 50.1831C136.823 50.1541 136.956 50.2491 136.98 50.3861L137.332 52.3851C137.338 52.4211 137.337 52.4571 137.328 52.4921L136.341 56.2221L137.595 56.4151C137.731 56.4361 137.825 56.5631 137.804 56.7001C137.784 56.8231 137.678 56.9121 137.557 56.9121Z" fill="#12374F"/>
<path d="M135.439 52.781C135.699 52.781 135.909 52.3333 135.909 51.781C135.909 51.2287 135.699 50.781 135.439 50.781C135.179 50.781 134.969 51.2287 134.969 51.781C134.969 52.3333 135.179 52.781 135.439 52.781Z" fill="#12374F"/>
<path d="M139.555 53.3101C139.815 53.3101 140.025 52.8623 140.025 52.3101C140.025 51.7578 139.815 51.3101 139.555 51.3101C139.295 51.3101 139.085 51.7578 139.085 52.3101C139.085 52.8623 139.295 53.3101 139.555 53.3101Z" fill="#12374F"/>
<path d="M136.615 57.838C136.615 57.838 138.026 59.484 140.613 57.603Z" fill="white"/>
<path d="M138.28 58.7491C137.089 58.7491 136.436 58.0121 136.425 58.0001C136.335 57.8951 136.347 57.7371 136.452 57.6471C136.555 57.5581 136.713 57.5691 136.804 57.6731C136.857 57.7341 138.112 59.1111 140.467 57.4001C140.578 57.3191 140.735 57.3431 140.816 57.4551C140.897 57.5671 140.873 57.7231 140.761 57.8041C139.778 58.5191 138.945 58.7491 138.28 58.7491Z" fill="#12374F"/>
<path d="M134.616 49.723C134.616 49.723 135.204 48.782 136.262 49.605Z" fill="white"/>
<path d="M134.616 49.972C134.571 49.972 134.524 49.959 134.483 49.933C134.367 49.86 134.332 49.707 134.404 49.591C134.416 49.572 134.698 49.13 135.229 49.035C135.611 48.969 136.011 49.093 136.415 49.408C136.524 49.493 136.544 49.65 136.459 49.759C136.373 49.868 136.216 49.887 136.108 49.803C135.82 49.579 135.556 49.489 135.32 49.527C135.008 49.58 134.828 49.855 134.826 49.857C134.779 49.931 134.698 49.972 134.616 49.972Z" fill="#12374F"/>
<path d="M138.497 49.8411C138.497 49.8411 140.496 49.1351 141.437 50.8991Z" fill="white"/>
<path d="M141.437 51.1491C141.348 51.1491 141.261 51.1011 141.216 51.0171C140.39 49.4681 138.653 50.0511 138.579 50.0771C138.45 50.1231 138.306 50.0541 138.261 49.9241C138.216 49.7941 138.284 49.6521 138.414 49.6061C138.435 49.5981 140.627 48.8501 141.658 50.7821C141.723 50.9031 141.677 51.0551 141.555 51.1201C141.517 51.1401 141.477 51.1491 141.437 51.1491Z" fill="#12374F"/>
<path d="M145.921 54.708C145.921 54.708 145.789 51.085 147.67 51.016C149.551 50.948 149.17 52.009 149.055 53.668C148.915 55.692 147.347 56.134 147.347 56.134" fill="white"/>
<path d="M147.346 56.635C147.128 56.635 146.927 56.491 146.865 56.271C146.79 56.005 146.945 55.729 147.211 55.654C147.257 55.64 148.443 55.262 148.556 53.635C148.572 53.415 148.591 53.205 148.61 53.007C148.666 52.413 148.719 51.852 148.553 51.676C148.489 51.608 148.287 51.496 147.688 51.517C146.564 51.558 146.392 53.881 146.42 54.691C146.43 54.967 146.214 55.199 145.939 55.209C145.662 55.212 145.431 55.004 145.421 54.728C145.42 54.688 145.388 53.748 145.601 52.782C146.004 50.958 146.938 50.545 147.651 50.519C148.424 50.487 148.949 50.64 149.279 50.991C149.756 51.496 149.686 52.24 149.604 53.102C149.586 53.292 149.567 53.494 149.552 53.706C149.388 56.054 147.558 56.597 147.481 56.619C147.437 56.629 147.391 56.635 147.346 56.635Z" fill="#12374F"/>
<path d="M105.971 86.853L103.607 84.338L99.777 83.457C99.777 83.457 99.202 84.317 99.545 84.92C99.888 85.523 101.565 86.832 101.565 86.832L98.193 86.755C98.193 86.755 95.786 84.398 95.483 85.502C95.18 86.606 96.195 89.09 97.757 90.198C99.319 91.305 105.59 91.33 105.59 91.33L105.971 86.853Z" fill="white"/>
<path d="M105.591 91.829H105.589C104.931 91.827 99.113 91.77 97.469 90.605C95.709 89.357 94.641 86.683 95.002 85.369C95.091 85.044 95.305 84.82 95.605 84.739C96.402 84.523 97.645 85.54 98.401 86.259L100.151 86.299C99.719 85.91 99.29 85.48 99.112 85.168C98.63 84.32 99.286 83.293 99.363 83.179C99.478 83.007 99.686 82.921 99.891 82.969L103.721 83.85C103.817 83.872 103.905 83.923 103.973 83.995L106.337 86.51C106.434 86.613 106.483 86.753 106.471 86.895L106.091 91.372C106.067 91.63 105.851 91.829 105.591 91.829ZM95.949 85.721C95.798 86.641 96.662 88.808 98.048 89.79C99.129 90.556 103.17 90.787 105.132 90.824L105.454 87.033L103.347 84.792L100.042 84.031C99.953 84.25 99.89 84.515 99.98 84.674C100.183 85.03 101.209 85.92 101.873 86.439C102.043 86.571 102.109 86.798 102.036 87.001C101.964 87.205 101.748 87.338 101.554 87.333L98.182 87.256C98.055 87.253 97.934 87.202 97.844 87.113C97.15 86.433 96.307 85.82 95.949 85.721Z" fill="#12374F"/>
<path d="M86.734 118.439L87.273 124.865C87.273 124.865 84.702 126.019 84.328 126.019C83.954 126.019 83.351 125.042 83.351 125.042C82.434 125.103 81.713 124.268 81.909 123.37L82.98 118.44H86.734V118.439Z" fill="#B2B2B2"/>
<path d="M84.328 126.518C83.863 126.518 83.411 126.026 83.076 125.535C82.597 125.49 82.156 125.264 81.834 124.89C81.444 124.438 81.293 123.845 81.42 123.261L82.491 118.332C82.541 118.102 82.744 117.938 82.98 117.938H86.734C86.994 117.938 87.211 118.137 87.232 118.396L87.771 124.822C87.789 125.033 87.671 125.233 87.478 125.32C86.26 125.867 84.725 126.518 84.328 126.518ZM83.351 124.54C83.523 124.54 83.685 124.629 83.776 124.777C83.964 125.081 84.227 125.403 84.366 125.506C84.703 125.419 85.767 124.983 86.745 124.552L86.274 118.939H83.383L82.398 123.475C82.338 123.748 82.409 124.027 82.592 124.238C82.775 124.45 83.045 124.565 83.319 124.542C83.329 124.541 83.34 124.54 83.351 124.54Z" fill="#12374F"/>
<path d="M81.661 68.069L87.735 95.247L86.698 118.439H82.944L80.257 94.023L81.661 68.069Z" fill="#1E90FF"/>
<path d="M86.698 118.939H82.944C82.689 118.939 82.475 118.747 82.447 118.494L79.76 94.0779L81.161 68.0429C81.175 67.7929 81.37 67.5919 81.619 67.5719C81.865 67.5459 82.094 67.7179 82.148 67.9609L88.222 95.1389C88.232 95.1819 88.236 95.2259 88.234 95.2699L87.197 118.461C87.186 118.728 86.965 118.939 86.698 118.939ZM83.392 117.939H86.22L87.232 95.2909L81.964 71.7189L80.756 94.0499L83.392 117.939Z" fill="#12374F"/>
<path d="M79.7539 105.789H50.6659L49.0909 184.973H56.1429L65.2099 124.78L74.2769 184.973H81.3289L79.7539 105.789Z" fill="#12374F"/>
<path d="M81.329 185.473H74.277C74.03 185.473 73.82 185.292 73.782 185.048L65.209 128.137L56.637 185.048C56.6 185.293 56.39 185.473 56.142 185.473H49.09C48.956 185.473 48.827 185.419 48.733 185.323C48.639 185.227 48.587 185.097 48.59 184.963L50.165 105.78C50.17 105.507 50.393 105.29 50.665 105.29H79.753C80.025 105.29 80.248 105.508 80.253 105.78L81.828 184.963C81.83 185.097 81.779 185.227 81.685 185.323C81.592 185.419 81.463 185.473 81.329 185.473ZM74.707 184.473H80.818L79.263 106.29H51.156L49.601 184.473H55.713L64.715 124.705C64.752 124.46 64.962 124.28 65.21 124.28C65.457 124.28 65.668 124.461 65.705 124.705L74.707 184.473Z" fill="#12374F"/>
<path d="M48.954 68.069L43.236 86.552C43.236 86.552 40.673 99.119 42.494 100.759C44.315 102.398 50.157 92.266 50.157 92.266L48.954 68.069Z" fill="#1E90FF"/>
<path d="M42.967 101.438C42.662 101.438 42.386 101.334 42.16 101.13C40.224 99.388 42.309 88.597 42.746 86.452L48.476 67.921C48.548 67.689 48.779 67.544 49.016 67.573C49.257 67.603 49.441 67.802 49.453 68.044L50.657 92.24C50.662 92.336 50.638 92.431 50.591 92.514C49.772 93.935 45.565 101.042 43.192 101.419C43.115 101.432 43.04 101.438 42.967 101.438ZM48.595 70.921L43.714 86.7C42.686 91.754 41.72 99.388 42.829 100.387C42.866 100.42 42.912 100.45 43.034 100.432C44.488 100.201 47.828 95.28 49.651 92.142L48.595 70.921Z" fill="#12374F"/>
<path d="M70.397 62.941L65.241 64.029L60.085 62.941L48.954 68.069L50.666 105.789H79.816L81.541 68.069L70.397 62.941Z" fill="#1E90FF"/>
<path d="M79.816 106.29H50.666C50.399 106.29 50.179 106.08 50.166 105.812L48.454 68.092C48.445 67.889 48.559 67.7 48.745 67.615L59.876 62.487C59.974 62.442 60.083 62.428 60.188 62.452L65.241 63.518L70.293 62.452C70.396 62.43 70.507 62.442 70.605 62.487L81.75 67.615C81.935 67.7 82.05 67.889 82.041 68.092L80.316 105.812C80.303 106.08 80.083 106.29 79.816 106.29ZM51.144 105.29H79.338L81.026 68.383L70.338 63.465L65.344 64.519C65.277 64.534 65.205 64.534 65.138 64.519L60.144 63.465L49.469 68.383L51.144 105.29Z" fill="#12374F"/>
<path d="M62.027 70.775L64.132 75.981L62.47 98.443L65.129 103.316L68.23 98.221L65.682 76.203L67.898 71.662L65.008 67.448L62.027 70.775Z" fill="#12374F"/>
<path d="M65.128 103.816C65.124 103.816 65.12 103.816 65.116 103.816C64.937 103.812 64.774 103.712 64.689 103.555L62.031 98.681C61.985 98.597 61.964 98.501 61.972 98.405L63.625 76.06L61.565 70.963C61.493 70.786 61.529 70.584 61.656 70.442L64.636 67.114C64.739 67 64.89 66.945 65.041 66.948C65.194 66.958 65.335 67.038 65.421 67.164L68.311 71.378C68.413 71.526 68.427 71.718 68.348 71.88L66.198 76.29L68.728 98.163C68.741 98.274 68.716 98.386 68.659 98.48L65.557 103.575C65.465 103.725 65.303 103.816 65.128 103.816ZM62.979 98.332L65.152 102.315L67.713 98.108L65.186 76.26C65.175 76.165 65.191 76.069 65.233 75.983L67.32 71.704L64.955 68.255L62.607 70.877L64.594 75.794C64.623 75.865 64.635 75.942 64.629 76.019L62.979 98.332Z" fill="#12374F"/>
<path d="M70.256 62.941L65.093 69.468L60.252 62.941V57.061H70.256V62.941Z" fill="#B2B2B2"/>
<path d="M65.093 69.968C65.091 69.968 65.088 69.968 65.085 69.968C64.929 69.966 64.784 69.891 64.691 69.766L59.85 63.24C59.786 63.154 59.751 63.049 59.751 62.942V57.062C59.751 56.786 59.975 56.562 60.251 56.562H70.255C70.531 56.562 70.755 56.786 70.755 57.062V62.942C70.755 63.055 70.717 63.164 70.647 63.252L65.484 69.778C65.39 69.898 65.246 69.968 65.093 69.968ZM60.752 62.776L65.106 68.645L69.756 62.767V57.56H60.752V62.776Z" fill="#12374F"/>
<path d="M59.701 62.025L58.326 63.718L59.88 73.353L65.093 69.468L70.757 73.198L71.69 63.718L70.334 62.358L65.008 67.448L59.701 62.025Z" fill="#1E90FF"/>
<path d="M59.88 73.853C59.817 73.853 59.753 73.841 59.692 73.816C59.53 73.75 59.414 73.605 59.386 73.432L57.832 63.797C57.81 63.656 57.848 63.513 57.937 63.402L59.313 61.709C59.403 61.599 59.536 61.532 59.678 61.525C59.822 61.519 59.959 61.572 60.058 61.675L65.019 66.744L69.989 61.995C70.186 61.807 70.497 61.811 70.688 62.003L72.043 63.363C72.148 63.469 72.201 63.617 72.187 63.765L71.254 73.244C71.237 73.418 71.13 73.571 70.972 73.646C70.814 73.722 70.628 73.709 70.482 73.612L65.11 70.075L60.178 73.751C60.091 73.819 59.986 73.853 59.88 73.853ZM58.855 63.86L60.242 72.46L64.794 69.067C64.962 68.941 65.193 68.935 65.368 69.05L70.341 72.324L71.17 63.904L70.326 63.057L65.353 67.808C65.155 67.998 64.842 67.992 64.65 67.796L59.735 62.775L58.855 63.86Z" fill="#12374F"/>
<path d="M49.091 184.973C49.091 184.973 46.101 194.212 46.545 194.36C46.989 194.508 56.611 194.36 56.611 194.36L56.143 184.973H49.091Z" fill="white"/>
<path d="M49.67 194.928C47.89 194.928 46.591 194.903 46.387 194.835C45.856 194.658 45.472 194.53 48.615 184.819C48.681 184.613 48.874 184.473 49.091 184.473H56.143C56.41 184.473 56.629 184.682 56.643 184.948L57.111 194.336C57.118 194.471 57.069 194.604 56.976 194.703C56.883 194.802 56.754 194.859 56.619 194.861C54.276 194.896 51.669 194.928 49.67 194.928ZM47.029 193.908C48.332 193.955 52.898 193.915 56.085 193.868L55.667 185.473H49.455C48.332 188.964 47.225 192.728 47.029 193.908Z" fill="#12374F"/>
<path d="M81.451 184.973C81.451 184.973 84.442 194.212 83.997 194.36C83.552 194.508 73.931 194.36 73.931 194.36L74.399 184.973H81.451Z" fill="white"/>
<path d="M80.872 194.928C78.873 194.928 76.267 194.897 73.923 194.861C73.788 194.859 73.659 194.802 73.566 194.703C73.473 194.604 73.424 194.472 73.431 194.336L73.899 184.948C73.912 184.682 74.132 184.473 74.398 184.473H81.45C81.667 184.473 81.859 184.613 81.926 184.819C85.07 194.531 84.686 194.658 84.155 194.835C83.951 194.903 82.651 194.928 80.872 194.928ZM74.456 193.868C77.622 193.914 82.152 193.953 83.511 193.902C83.313 192.715 82.207 188.958 81.086 185.473H74.874L74.456 193.868Z" fill="#12374F"/>
<path d="M70.048 40.6969C71.162 40.9889 72.165 41.5489 72.925 42.4929C74.856 44.8899 72.751 49.6929 73.62 52.4729C74.397 54.9599 73.201 61.4839 71.79 62.3069C70.379 63.1299 68.38 63.1299 66.38 62.3069C64.381 61.4839 60.853 59.1319 60.029 58.1909C59.207 57.2509 59.206 53.7289 59.206 53.7219C59.206 53.2789 58.569 52.4409 58.411 52.0099C58.061 51.0539 57.756 50.0229 57.673 49.0049C57.391 45.5499 58.806 41.6599 62.069 40.5479C64.307 39.7859 67.718 40.0869 70.048 40.6969Z" fill="#B2B2B2"/>
<path d="M69.307 63.428C68.319 63.428 67.258 63.208 66.19 62.769C64.105 61.911 60.514 59.503 59.653 58.52C58.752 57.491 58.706 54.343 58.706 53.722C58.702 53.571 58.439 53.117 58.298 52.872C58.153 52.62 58.016 52.384 57.942 52.182C57.494 50.957 57.25 49.961 57.175 49.046C56.894 45.598 58.254 41.319 61.908 40.075C64.229 39.282 67.732 39.573 70.175 40.213C71.483 40.556 72.539 41.217 73.314 42.179C74.561 43.726 74.316 46.031 74.079 48.26C73.915 49.798 73.761 51.25 74.097 52.323C74.894 54.872 73.759 61.737 72.042 62.739C71.253 63.198 70.318 63.428 69.307 63.428ZM65.344 40.598C64.205 40.598 63.11 40.722 62.23 41.021C59.084 42.093 57.92 45.89 58.172 48.964C58.239 49.786 58.465 50.699 58.881 51.838C58.932 51.979 59.046 52.168 59.163 52.371C59.43 52.832 59.706 53.309 59.706 53.721C59.706 55.108 59.924 57.31 60.406 57.861C61.186 58.753 64.629 61.045 66.57 61.844C68.413 62.603 70.269 62.614 71.537 61.875C72.642 61.23 73.898 55.04 73.142 52.621C72.745 51.35 72.917 49.725 73.084 48.154C73.299 46.128 73.522 44.032 72.535 42.806C71.897 42.014 71.017 41.468 69.921 41.181C68.624 40.841 66.941 40.598 65.344 40.598Z" fill="#12374F"/>
<path d="M64.845 42.4409C67.748 41.5579 70.649 42.1369 71.786 42.3149C72.081 42.3609 72.401 42.3379 72.705 42.2649C71.974 41.4669 71.062 40.9619 70.047 40.6969C67.717 40.0869 64.306 39.7859 62.068 40.5479C58.805 41.6599 57.39 45.5499 57.672 49.0049C57.755 50.0229 58.06 51.0529 58.41 52.0099C58.438 52.0869 58.494 52.1869 58.545 52.2849L59.669 52.5379C59.669 52.5379 61.562 53.1689 61.815 52.6639C62.068 52.1589 62.068 51.2759 62.194 50.8969C62.32 50.5179 64.844 49.7609 64.844 48.6249C64.844 47.4889 63.203 44.5859 63.203 44.5859C63.203 44.5859 61.943 43.3249 64.845 42.4409Z" fill="#12374F"/>
<path d="M61.238 53.36C60.708 53.36 60.071 53.198 59.513 53.012L58.437 52.772C58.294 52.74 58.173 52.647 58.105 52.518C58.027 52.372 57.972 52.264 57.941 52.179C57.493 50.956 57.25 49.96 57.174 49.045C56.893 45.597 58.254 41.318 61.907 40.074C64.229 39.282 67.733 39.573 70.174 40.212C71.336 40.517 72.311 41.094 73.074 41.927C73.194 42.057 73.235 42.241 73.183 42.411C73.131 42.58 72.994 42.71 72.821 42.751C72.439 42.842 72.053 42.861 71.709 42.809L71.433 42.764C70.179 42.559 67.572 42.132 64.991 42.919C63.67 43.321 63.47 43.741 63.441 43.86C63.394 44.048 63.557 44.231 63.558 44.232C63.59 44.264 63.618 44.3 63.64 44.339C63.815 44.648 65.346 47.392 65.346 48.624C65.346 49.669 64.112 50.33 63.211 50.812C63.017 50.916 62.76 51.054 62.648 51.134C62.62 51.255 62.602 51.413 62.579 51.584C62.521 52.015 62.455 52.504 62.265 52.887C62.09 53.234 61.706 53.36 61.238 53.36ZM58.885 51.848L59.781 52.05C60.438 52.266 61.152 52.397 61.406 52.355C61.498 52.114 61.547 51.751 61.587 51.452C61.625 51.173 61.657 50.931 61.721 50.739C61.827 50.42 62.151 50.247 62.739 49.932C63.301 49.631 64.346 49.072 64.346 48.625C64.346 47.905 63.407 45.968 62.796 44.88C62.653 44.712 62.316 44.236 62.471 43.618C62.649 42.906 63.378 42.364 64.7 41.962C67.278 41.178 69.819 41.495 71.243 41.72C70.843 41.486 70.401 41.305 69.92 41.179C67.623 40.578 64.354 40.297 62.229 41.02C59.083 42.092 57.919 45.889 58.171 48.963C58.238 49.786 58.464 50.698 58.88 51.836C58.882 51.841 58.884 51.845 58.885 51.848Z" fill="#12374F"/>
<path d="M70.025 56.912C69.904 56.912 69.797 56.824 69.778 56.7C69.757 56.563 69.851 56.436 69.987 56.415L71.241 56.222L70.254 52.492C70.245 52.457 70.243 52.42 70.25 52.385L70.603 50.386C70.627 50.25 70.76 50.155 70.893 50.183C71.029 50.207 71.12 50.337 71.096 50.473L70.753 52.418L71.797 56.363C71.815 56.431 71.803 56.505 71.764 56.564C71.725 56.624 71.663 56.664 71.593 56.674L70.064 56.909C70.051 56.911 70.038 56.912 70.025 56.912Z" fill="#12374F"/>
<path d="M72.142 52.781C72.4016 52.781 72.612 52.3333 72.612 51.781C72.612 51.2287 72.4016 50.781 72.142 50.781C71.8824 50.781 71.672 51.2287 71.672 51.781C71.672 52.3333 71.8824 52.781 72.142 52.781Z" fill="#12374F"/>
<path d="M68.026 53.3099C68.2856 53.3099 68.496 52.8622 68.496 52.3099C68.496 51.7577 68.2856 51.3099 68.026 51.3099C67.7664 51.3099 67.556 51.7577 67.556 52.3099C67.556 52.8622 67.7664 53.3099 68.026 53.3099Z" fill="#12374F"/>
<path d="M69.301 58.749C68.636 58.749 67.803 58.519 66.821 57.805C66.709 57.724 66.685 57.568 66.766 57.456C66.848 57.344 67.004 57.32 67.115 57.401C69.489 59.126 70.765 57.691 70.777 57.675C70.868 57.571 71.026 57.559 71.13 57.648C71.235 57.738 71.247 57.896 71.157 58.001C71.146 58.012 70.493 58.749 69.301 58.749Z" fill="#12374F"/>
<path d="M72.965 49.973C72.882 49.973 72.802 49.932 72.754 49.857C72.752 49.855 72.571 49.58 72.26 49.527C72.027 49.489 71.76 49.579 71.472 49.803C71.363 49.887 71.205 49.868 71.121 49.759C71.036 49.65 71.056 49.4929 71.165 49.4079C71.57 49.0919 71.971 48.968 72.352 49.035C72.884 49.13 73.165 49.572 73.177 49.591C73.25 49.708 73.215 49.8619 73.098 49.9349C73.057 49.9609 73.011 49.973 72.965 49.973Z" fill="#12374F"/>
<path d="M66.145 51.1489C66.105 51.1489 66.065 51.1399 66.027 51.1199C65.905 51.0549 65.859 50.9029 65.924 50.7819C66.954 48.8499 69.146 49.5979 69.168 49.6059C69.298 49.6519 69.366 49.7939 69.321 49.9239C69.276 50.0549 69.132 50.1239 69.003 50.0769C68.93 50.0519 67.192 49.4689 66.366 51.0169C66.32 51.1009 66.234 51.1489 66.145 51.1489Z" fill="#12374F"/>
<path d="M60.672 53.9559C60.672 53.9559 60.277 50.3519 58.405 50.5579C56.534 50.7629 57.065 51.7589 57.42 53.3829C57.853 55.3649 59.468 55.5749 59.468 55.5749" fill="#B2B2B2"/>
<path d="M59.469 56.074C59.448 56.074 59.426 56.073 59.404 56.07C59.324 56.06 57.435 55.789 56.932 53.49C56.887 53.283 56.838 53.086 56.793 52.9C56.587 52.06 56.41 51.334 56.808 50.764C57.084 50.369 57.575 50.146 58.351 50.061C59.061 49.986 60.045 50.257 60.708 52.002C61.06 52.926 61.165 53.862 61.169 53.901C61.199 54.175 61.001 54.422 60.727 54.452C60.451 54.49 60.206 54.285 60.175 54.011C60.085 53.205 59.579 50.918 58.46 51.055C57.861 51.121 57.681 51.26 57.627 51.337C57.488 51.535 57.622 52.083 57.764 52.662C57.811 52.856 57.862 53.061 57.909 53.277C58.258 54.87 59.486 55.072 59.537 55.08C59.808 55.12 59.999 55.372 59.961 55.644C59.926 55.893 59.714 56.074 59.469 56.074Z" fill="#12374F"/>
<path d="M38.67 83.4559C38.67 83.4559 37.577 94.7479 37.577 96.2059C37.577 97.6639 41.038 100.577 42.495 100.759C43.952 100.941 45.956 99.1199 46.138 98.0269C46.32 96.9339 43.588 82.9099 43.588 82.9099L38.67 83.4559Z" fill="#1E90FF"/>
<path d="M42.704 101.271C42.613 101.271 42.522 101.266 42.433 101.254C40.838 101.055 37.077 97.993 37.077 96.205C37.077 94.741 38.127 83.87 38.172 83.407C38.194 83.172 38.38 82.985 38.614 82.958L43.532 82.412C43.788 82.387 44.029 82.558 44.078 82.813C44.537 85.17 46.818 96.983 46.63 98.108C46.426 99.334 44.433 101.271 42.704 101.271ZM39.128 83.908C38.933 85.936 38.076 94.943 38.076 96.205C38.076 97.371 41.291 100.104 42.556 100.262C43.722 100.404 45.501 98.797 45.643 97.944C45.745 97.148 44.224 88.826 43.184 83.457L39.128 83.908Z" fill="#12374F"/>
<path d="M43.587 80.3599C43.587 80.3599 41.401 77.0819 40.855 76.3529C40.309 75.6239 38.305 75.6239 37.394 74.3489C36.483 73.0739 35.573 74.3489 35.755 75.6239C35.937 76.8989 38.305 79.0849 38.305 79.0849L34.48 77.8099C34.48 77.8099 33.934 75.0779 32.841 76.3529C31.748 77.6279 32.841 81.4529 33.387 82.1809C33.933 82.9099 38.669 84.9129 40.49 85.2769C42.311 85.6409 43.586 83.8199 43.586 82.9089C43.586 81.9979 43.587 80.3599 43.587 80.3599Z" fill="#B2B2B2"/>
<path d="M40.956 85.824C40.769 85.824 40.581 85.805 40.392 85.768C38.568 85.403 33.671 83.393 32.987 82.481C32.396 81.693 31.139 77.57 32.461 76.027C32.918 75.493 33.35 75.469 33.638 75.544C34.376 75.737 34.75 76.816 34.904 77.424L36.56 77.976C35.952 77.25 35.358 76.388 35.259 75.695C35.112 74.665 35.527 73.678 36.225 73.398C36.482 73.294 37.153 73.152 37.8 74.059C38.229 74.66 39.02 74.941 39.717 75.189C40.34 75.411 40.929 75.62 41.253 76.053C41.801 76.784 43.912 79.948 44.002 80.082C44.057 80.164 44.086 80.261 44.086 80.359V82.909C44.086 83.617 43.582 84.524 42.859 85.116C42.294 85.581 41.633 85.824 40.956 85.824ZM33.39 76.514C33.388 76.523 33.325 76.557 33.221 76.678C32.368 77.673 33.306 81.239 33.788 81.882C34.205 82.427 38.674 84.404 40.589 84.788C41.319 84.934 41.882 84.627 42.227 84.344C42.814 83.863 43.087 83.204 43.087 82.91V80.511C42.681 79.904 40.926 77.282 40.455 76.653C40.311 76.462 39.84 76.294 39.383 76.132C38.589 75.849 37.599 75.497 36.987 74.641C36.816 74.401 36.663 74.304 36.597 74.328C36.423 74.398 36.159 74.917 36.25 75.555C36.364 76.356 37.779 77.921 38.644 78.719C38.817 78.879 38.855 79.137 38.735 79.341C38.615 79.544 38.369 79.635 38.146 79.561L34.321 78.286C34.151 78.229 34.025 78.086 33.989 77.911C33.864 77.285 33.57 76.603 33.39 76.514Z" fill="#12374F"/>
<path d="M38.921 161.954C37.619 162.36 34.588 161.957 34.585 161.957C34.553 161.953 35.457 160.04 35.528 159.925C36.349 158.604 38.711 156.533 40.401 156.954C41.619 157.257 42.17 158.57 41.762 159.703C41.347 160.859 40.03 161.608 38.921 161.954Z" fill="#12374F"/>
<path d="M10.664 161.104C10.635 161.118 10.334 159.024 10.33 158.889C10.286 157.334 11.113 154.304 12.755 153.723C13.938 153.304 15.122 154.095 15.407 155.264C15.699 156.459 15.013 157.809 14.279 158.71C13.417 159.767 10.666 161.103 10.664 161.104Z" fill="#12374F"/>
<path d="M11.192 183.495C12.209 183.625 14.22 183.053 14.784 182.883C14.876 183.749 14.987 184.606 15.137 185.445C15.209 185.805 15.26 186.178 15.349 186.519C15.431 186.865 15.513 187.208 15.593 187.548C15.785 188.244 15.96 188.892 16.155 189.536C16.251 189.862 16.35 190.167 16.447 190.483C16.205 189.983 15.809 189.197 15.765 189.129C15.018 187.984 12.901 186.212 11.424 186.616C10.36 186.907 9.902 188.071 10.282 189.058C10.671 190.066 11.843 190.698 12.824 190.98C13.906 191.291 16.286 190.948 16.577 190.904C16.82 191.675 17.063 192.424 17.304 193.12C17.461 193.577 17.614 194.008 17.766 194.427H18.771C18.572 193.916 18.369 193.387 18.159 192.816C17.928 192.192 17.693 191.526 17.459 190.84C17.726 190.729 19.787 189.852 20.618 189.05C21.487 189.603 22.477 190.071 22.651 190.153C22.428 190.93 22.218 191.688 22.035 192.402C21.849 193.12 21.687 193.788 21.537 194.427H22.511C22.634 193.853 22.765 193.259 22.916 192.619C23.067 191.971 23.239 191.286 23.422 190.585C23.716 190.642 26.075 191.078 27.167 190.811C28.159 190.569 29.355 189.985 29.784 188.993C30.204 188.022 29.793 186.84 28.742 186.507C27.283 186.045 25.096 187.731 24.304 188.844C24.253 188.915 23.748 189.825 23.5 190.296C23.612 189.872 23.722 189.451 23.847 189.012C24.021 188.379 24.225 187.716 24.419 187.072C24.532 186.742 24.646 186.408 24.761 186.071C24.87 185.729 25.016 185.416 25.143 185.082C25.34 184.597 25.568 184.108 25.794 183.618C26.428 183.834 28.299 184.434 29.284 184.348C30.301 184.259 31.572 183.863 32.146 182.947C32.708 182.05 32.481 180.82 31.492 180.331C30.12 179.653 27.703 180.988 26.751 181.969C26.72 182.001 26.54 182.229 26.33 182.502C26.565 182.031 26.799 181.559 27.053 181.09C27.775 179.758 28.551 178.423 29.324 177.083C29.485 176.804 29.642 176.522 29.802 176.242C30.335 176.426 32.356 177.095 33.388 177.005C34.405 176.916 35.676 176.52 36.25 175.604C36.812 174.707 36.585 173.477 35.596 172.988C34.224 172.31 31.807 173.645 30.855 174.626C30.821 174.661 30.607 174.934 30.37 175.241C30.779 174.507 31.178 173.77 31.551 173.026C32.205 171.726 32.779 170.411 33.234 169.092C33.421 169.159 35.775 169.991 36.922 169.89C37.939 169.801 39.21 169.405 39.784 168.489C40.346 167.592 40.119 166.362 39.13 165.873C37.758 165.195 35.341 166.53 34.389 167.511C34.322 167.581 33.555 168.574 33.293 168.937C33.298 168.921 33.306 168.906 33.311 168.89C33.776 167.502 34.048 166.119 34.243 164.794C34.439 163.473 34.511 162.213 34.547 161.052C34.586 159.89 34.551 158.825 34.512 157.883C34.487 157.373 34.454 156.907 34.419 156.472C34.424 156.476 34.445 156.492 34.445 156.492C34.467 156.509 35.082 154.754 35.109 154.639C35.411 153.306 35.211 150.552 33.893 149.773C32.944 149.211 31.789 149.693 31.345 150.653C30.891 151.634 31.253 152.915 31.734 153.816C32.227 154.739 33.922 156.088 34.347 156.418C34.374 156.87 34.398 157.353 34.413 157.889C34.432 158.83 34.444 159.892 34.38 161.048C34.363 161.356 34.333 161.687 34.31 162.008C34.237 161.459 34.127 160.707 34.108 160.635C33.762 159.313 32.315 156.961 30.787 156.876C29.686 156.815 28.883 157.774 28.931 158.831C28.98 159.91 29.892 160.881 30.733 161.459C31.611 162.062 33.792 162.481 34.27 162.567C34.207 163.277 34.126 164.005 33.997 164.759C33.777 166.062 33.474 167.438 32.985 168.796C32.938 168.788 32.946 168.789 32.899 168.782C32.894 168.267 32.857 167.185 32.844 167.096C32.645 165.744 31.466 163.248 29.956 162.995C28.868 162.813 27.965 163.679 27.896 164.734C27.826 165.812 28.626 166.877 29.399 167.544C30.29 168.313 32.783 169.032 32.877 169.059C32.406 170.32 31.825 171.58 31.164 172.826C30.686 173.73 30.165 174.625 29.633 175.519C29.639 175.158 29.592 173.738 29.577 173.636C29.378 172.284 28.199 169.788 26.688 169.535C25.6 169.353 24.697 170.219 24.628 171.274C24.558 172.353 25.358 173.417 26.131 174.084C27.001 174.834 29.386 175.535 29.588 175.592C29.346 175.998 29.107 176.404 28.861 176.809C28.061 178.131 27.252 179.452 26.495 180.781C26.232 181.241 25.991 181.704 25.746 182.167C25.738 181.625 25.704 180.638 25.692 180.554C25.493 179.202 24.314 176.705 22.804 176.453C21.716 176.271 20.813 177.137 20.744 178.192C20.674 179.27 21.474 180.335 22.247 181.002C23.023 181.672 25.017 182.304 25.581 182.474C25.18 183.247 24.8 184.023 24.462 184.805C24.324 185.145 24.16 185.483 24.046 185.818C23.924 186.152 23.802 186.483 23.682 186.811C23.458 187.498 23.247 188.135 23.054 188.779C22.954 189.104 22.868 189.413 22.775 189.73C22.849 189.179 22.952 188.305 22.953 188.225C22.961 186.858 22.174 184.212 20.719 183.734C19.671 183.39 18.647 184.108 18.419 185.141C18.39 185.272 18.375 185.405 18.371 185.54C17.671 186.539 17.264 187.994 17.233 188.902C17.23 188.989 17.311 190.027 17.364 190.556C17.224 190.141 17.083 189.729 16.945 189.294C16.741 188.67 16.545 188.004 16.352 187.36C16.264 187.022 16.175 186.681 16.086 186.337C15.988 185.991 15.937 185.65 15.859 185.301C15.756 184.788 15.676 184.254 15.595 183.72C16.243 183.55 18.135 183.019 18.909 182.404C19.708 181.769 20.55 180.737 20.523 179.657C20.497 178.599 19.629 177.698 18.535 177.836C17.016 178.027 15.737 180.474 15.484 181.818C15.476 181.862 15.452 182.151 15.427 182.494C15.364 181.972 15.298 181.449 15.252 180.918C15.119 179.409 15.031 177.867 14.935 176.323C14.915 176.001 14.891 175.68 14.87 175.358C15.416 175.218 17.471 174.66 18.281 174.016C19.08 173.381 19.922 172.349 19.895 171.269C19.869 170.211 19.001 169.31 17.907 169.448C16.388 169.639 15.11 172.086 14.857 173.43C14.848 173.478 14.82 173.824 14.792 174.211C14.728 173.373 14.654 172.538 14.556 171.712C14.384 170.267 14.137 168.853 13.789 167.503C13.982 167.455 16.404 166.851 17.306 166.134C18.105 165.499 18.947 164.467 18.92 163.387C18.894 162.329 18.026 161.428 16.932 161.566C15.413 161.757 14.134 164.204 13.881 165.548C13.863 165.643 13.771 166.895 13.753 167.343C13.749 167.327 13.746 167.31 13.742 167.294C13.364 165.879 12.828 164.576 12.26 163.364C11.695 162.154 11.06 161.063 10.45 160.075C9.842 159.084 9.225 158.215 8.672 157.451C8.369 157.04 8.085 156.669 7.816 156.326C7.822 156.326 7.84899 156.328 7.84899 156.328C7.87699 156.33 7.422 154.527 7.38 154.416C6.896 153.138 5.20999 150.951 3.68099 151.028C2.57999 151.083 1.88199 152.122 2.04099 153.168C2.20299 154.236 3.21199 155.105 4.10999 155.591C5.02999 156.089 7.18899 156.279 7.72499 156.319C7.99699 156.681 8.28399 157.071 8.59099 157.509C9.12599 158.283 9.72199 159.163 10.306 160.162C10.462 160.428 10.619 160.72 10.777 161.001C10.413 160.583 9.906 160.017 9.851 159.967C8.833 159.055 6.32899 157.892 5.00699 158.664C4.05499 159.22 3.91399 160.464 4.53699 161.319C5.17299 162.192 6.469 162.499 7.49 162.516C8.555 162.535 10.605 161.681 11.051 161.489C11.39 162.116 11.724 162.768 12.033 163.468C12.568 164.675 13.075 165.991 13.416 167.392C13.372 167.412 13.38 167.408 13.336 167.428C13.047 167.002 12.421 166.12 12.361 166.053C11.449 165.035 9.08799 163.604 7.68999 164.226C6.68299 164.675 6.40599 165.895 6.93199 166.813C7.46899 167.751 8.72299 168.198 9.73599 168.327C10.903 168.477 13.379 167.701 13.472 167.672C13.775 168.984 13.985 170.354 14.121 171.759C14.221 172.776 14.28 173.811 14.33 174.85C14.135 174.545 13.314 173.387 13.245 173.31C12.333 172.292 9.972 170.861 8.574 171.483C7.566 171.932 7.29 173.152 7.816 174.07C8.353 175.008 9.60699 175.455 10.62 175.584C11.759 175.73 14.135 174.998 14.335 174.935C14.358 175.407 14.382 175.878 14.4 176.351C14.462 177.895 14.516 179.443 14.618 180.969C14.653 181.498 14.707 182.017 14.758 182.538C14.452 182.09 13.88 181.286 13.823 181.223C12.911 180.205 10.55 178.774 9.151 179.396C8.143 179.845 7.867 181.065 8.393 181.983C8.925 182.918 10.179 183.365 11.192 183.495Z" fill="#12374F"/>
<path d="M166.868 1.47205H123.37C120.514 1.47205 118.199 3.78705 118.199 6.64305V27.955C118.199 30.811 120.514 33.126 123.37 33.126H156.952V40.521L161.882 33.126H166.868C169.724 33.126 172.039 30.811 172.039 27.955V6.64204C172.038 3.78604 169.723 1.47205 166.868 1.47205Z" fill="white"/>
<path d="M156.952 41.02C156.904 41.02 156.855 41.013 156.807 40.999C156.596 40.935 156.452 40.741 156.452 40.52V33.625H123.37C120.244 33.625 117.7 31.081 117.7 27.954V6.64204C117.7 3.51504 120.244 0.972046 123.37 0.972046H166.868C169.995 0.972046 172.539 3.51604 172.539 6.64204V27.954C172.539 31.081 169.995 33.625 166.868 33.625H162.15L157.368 40.798C157.273 40.939 157.116 41.02 156.952 41.02ZM123.37 1.97205C120.795 1.97205 118.7 4.06704 118.7 6.64204V27.954C118.7 30.53 120.795 32.625 123.37 32.625H156.952C157.228 32.625 157.452 32.849 157.452 33.125V38.869L161.466 32.848C161.559 32.709 161.715 32.625 161.882 32.625H166.868C169.444 32.625 171.539 30.53 171.539 27.954V6.64204C171.539 4.06704 169.444 1.97205 166.868 1.97205H123.37Z" fill="#12374F"/>
<path d="M135.511 19.0191C136.573 19.0191 137.433 18.1585 137.433 17.097C137.433 16.0356 136.573 15.175 135.511 15.175C134.45 15.175 133.589 16.0356 133.589 17.097C133.589 18.1585 134.45 19.0191 135.511 19.0191Z" fill="#12374F"/>
<path d="M145.119 19.0191C146.181 19.0191 147.041 18.1585 147.041 17.097C147.041 16.0356 146.181 15.175 145.119 15.175C144.058 15.175 143.197 16.0356 143.197 17.097C143.197 18.1585 144.058 19.0191 145.119 19.0191Z" fill="#12374F"/>
<path d="M154.727 19.0191C155.788 19.0191 156.649 18.1585 156.649 17.097C156.649 16.0356 155.788 15.175 154.727 15.175C153.666 15.175 152.805 16.0356 152.805 17.097C152.805 18.1585 153.666 19.0191 154.727 19.0191Z" fill="#12374F"/>
<path d="M33.121 1.47205H76.619C79.475 1.47205 81.79 3.78705 81.79 6.64305V27.955C81.79 30.811 79.475 33.126 76.619 33.126H43.037V40.521L38.107 33.126H33.121C30.265 33.126 27.95 30.811 27.95 27.955V6.64204C27.95 3.78604 30.265 1.47205 33.121 1.47205Z" fill="#12374F"/>
<path d="M43.037 41.02C42.873 41.02 42.715 40.939 42.621 40.797L37.839 33.624H33.121C29.995 33.624 27.451 31.08 27.451 27.953V6.64204C27.451 3.51504 29.995 0.972046 33.121 0.972046H76.62C79.746 0.972046 82.29 3.51604 82.29 6.64204V27.954C82.29 31.081 79.746 33.625 76.62 33.625H43.537V40.52C43.537 40.74 43.393 40.935 43.182 40.999C43.134 41.013 43.085 41.02 43.037 41.02ZM33.121 1.97205C30.546 1.97205 28.451 4.06704 28.451 6.64204V27.954C28.451 30.53 30.546 32.625 33.121 32.625H38.107C38.274 32.625 38.43 32.708 38.523 32.848L42.538 38.869V33.125C42.538 32.849 42.762 32.625 43.038 32.625H76.62C79.195 32.625 81.29 30.53 81.29 27.954V6.64204C81.29 4.06704 79.195 1.97205 76.62 1.97205H33.121Z" fill="#12374F"/>
<path d="M44.997 19.0191C46.0585 19.0191 46.919 18.1585 46.919 17.097C46.919 16.0356 46.0585 15.175 44.997 15.175C43.9355 15.175 43.075 16.0356 43.075 17.097C43.075 18.1585 43.9355 19.0191 44.997 19.0191Z" fill="white"/>
<path d="M54.605 19.0191C55.6665 19.0191 56.527 18.1585 56.527 17.097C56.527 16.0356 55.6665 15.175 54.605 15.175C53.5435 15.175 52.683 16.0356 52.683 17.097C52.683 18.1585 53.5435 19.0191 54.605 19.0191Z" fill="white"/>
<path d="M64.213 19.0191C65.2745 19.0191 66.135 18.1585 66.135 17.097C66.135 16.0356 65.2745 15.175 64.213 15.175C63.1515 15.175 62.291 16.0356 62.291 17.097C62.291 18.1585 63.1515 19.0191 64.213 19.0191Z" fill="white"/>
</svg>
