<svg width="245" height="154" viewBox="0 0 245 154" fill="none" xmlns="http://www.w3.org/2000/svg">
<path d="M243.743 153.912H0.48999C0.21399 153.912 -0.0100098 153.688 -0.0100098 153.412C-0.0100098 153.136 0.21399 152.912 0.48999 152.912H243.743C244.019 152.912 244.243 153.136 244.243 153.412C244.243 153.688 244.019 153.912 243.743 153.912Z" fill="#12374F"/>
<path d="M233.582 120.94C232.28 121.346 229.249 120.943 229.246 120.943C229.214 120.939 230.118 119.026 230.189 118.911C231.01 117.59 233.372 115.519 235.062 115.94C236.28 116.243 236.831 117.556 236.423 118.689C236.008 119.845 234.691 120.594 233.582 120.94Z" fill="#12374F"/>
<path d="M205.324 120.09C205.296 120.104 204.994 118.01 204.99 117.875C204.945 116.32 205.773 113.29 207.415 112.709C208.598 112.29 209.781 113.081 210.067 114.251C210.359 115.446 209.673 116.796 208.939 117.697C208.077 118.753 205.326 120.089 205.324 120.09Z" fill="#12374F"/>
<path d="M205.853 142.481C206.87 142.611 208.881 142.039 209.445 141.869C209.537 142.735 209.648 143.592 209.798 144.431C209.87 144.791 209.921 145.163 210.01 145.505C210.092 145.851 210.174 146.194 210.254 146.534C210.445 147.231 210.621 147.878 210.816 148.522C210.912 148.848 211.011 149.153 211.108 149.469C210.866 148.969 210.47 148.183 210.426 148.115C209.679 146.97 207.562 145.198 206.085 145.602C205.021 145.893 204.563 147.057 204.943 148.044C205.332 149.053 206.503 149.684 207.485 149.966C208.567 150.277 210.947 149.934 211.238 149.89C211.481 150.661 211.724 151.41 211.965 152.106C212.122 152.563 212.275 152.994 212.427 153.413H213.432C213.233 152.902 213.03 152.373 212.82 151.802C212.589 151.178 212.354 150.512 212.12 149.826C212.387 149.715 214.448 148.838 215.279 148.036C216.148 148.589 217.138 149.057 217.312 149.139C217.089 149.916 216.879 150.674 216.696 151.388C216.51 152.106 216.348 152.774 216.198 153.413H217.172C217.295 152.839 217.426 152.245 217.577 151.605C217.728 150.957 217.9 150.272 218.083 149.571C218.377 149.627 220.736 150.064 221.828 149.797C222.82 149.555 224.016 148.971 224.445 147.979C224.865 147.008 224.454 145.826 223.402 145.493C221.943 145.031 219.756 146.717 218.964 147.83C218.913 147.901 218.408 148.811 218.161 149.282C218.273 148.858 218.383 148.437 218.507 147.998C218.681 147.365 218.885 146.702 219.079 146.058C219.192 145.728 219.306 145.394 219.421 145.058C219.53 144.716 219.676 144.403 219.803 144.069C220 143.584 220.228 143.094 220.454 142.605C221.088 142.821 222.959 143.421 223.944 143.335C224.961 143.246 226.232 142.85 226.806 141.934C227.368 141.037 227.141 139.807 226.152 139.318C224.78 138.64 222.363 139.975 221.411 140.956C221.38 140.988 221.2 141.216 220.99 141.489C221.225 141.018 221.459 140.547 221.713 140.077C222.435 138.745 223.211 137.41 223.984 136.07C224.145 135.791 224.302 135.509 224.462 135.229C224.995 135.413 227.016 136.082 228.048 135.992C229.065 135.903 230.336 135.507 230.91 134.591C231.472 133.694 231.245 132.464 230.256 131.975C228.884 131.297 226.467 132.632 225.515 133.613C225.481 133.648 225.267 133.921 225.03 134.228C225.439 133.494 225.838 132.757 226.211 132.013C226.865 130.713 227.439 129.397 227.894 128.079C228.081 128.146 230.435 128.978 231.582 128.877C232.599 128.788 233.87 128.392 234.444 127.476C235.006 126.579 234.779 125.349 233.79 124.86C232.418 124.182 230.001 125.517 229.049 126.498C228.982 126.568 228.215 127.561 227.953 127.925C227.958 127.909 227.966 127.894 227.971 127.878C228.436 126.489 228.708 125.106 228.903 123.782C229.099 122.461 229.171 121.201 229.208 120.04C229.247 118.878 229.212 117.813 229.173 116.871C229.148 116.361 229.115 115.895 229.08 115.46C229.085 115.464 229.106 115.48 229.106 115.48C229.129 115.497 229.744 113.742 229.77 113.627C230.072 112.294 229.872 109.54 228.554 108.761C227.605 108.199 226.45 108.681 226.006 109.641C225.552 110.622 225.914 111.903 226.395 112.804C226.887 113.727 228.583 115.076 229.008 115.406C229.035 115.858 229.059 116.342 229.074 116.877C229.092 117.818 229.105 118.88 229.041 120.036C229.025 120.344 228.994 120.675 228.971 120.996C228.898 120.447 228.787 119.695 228.769 119.623C228.423 118.301 226.976 115.949 225.448 115.864C224.347 115.803 223.544 116.762 223.592 117.819C223.641 118.898 224.553 119.869 225.394 120.447C226.272 121.05 228.453 121.469 228.931 121.555C228.868 122.265 228.787 122.993 228.658 123.747C228.438 125.049 228.135 126.426 227.646 127.784C227.599 127.776 227.607 127.778 227.56 127.77C227.555 127.255 227.518 126.173 227.505 126.084C227.306 124.732 226.127 122.236 224.617 121.983C223.529 121.801 222.625 122.667 222.557 123.723C222.487 124.801 223.287 125.866 224.06 126.533C224.951 127.301 227.444 128.021 227.538 128.047C227.066 129.309 226.486 130.568 225.825 131.814C225.347 132.718 224.826 133.613 224.294 134.507C224.3 134.145 224.253 132.726 224.238 132.624C224.039 131.272 222.86 128.776 221.35 128.523C220.262 128.341 219.359 129.207 219.29 130.262C219.22 131.34 220.02 132.405 220.793 133.072C221.663 133.822 224.048 134.522 224.25 134.58C224.008 134.986 223.769 135.392 223.523 135.797C222.723 137.119 221.914 138.44 221.157 139.769C220.894 140.229 220.653 140.692 220.408 141.155C220.4 140.613 220.366 139.626 220.354 139.542C220.155 138.189 218.976 135.693 217.466 135.441C216.378 135.259 215.475 136.125 215.406 137.18C215.336 138.258 216.136 139.323 216.909 139.99C217.685 140.66 219.679 141.292 220.243 141.462C219.842 142.235 219.462 143.011 219.124 143.793C218.986 144.133 218.822 144.471 218.708 144.806C218.586 145.14 218.464 145.471 218.344 145.799C218.12 146.486 217.909 147.123 217.716 147.767C217.616 148.092 217.53 148.401 217.437 148.718C217.511 148.167 217.614 147.293 217.615 147.213C217.623 145.846 216.836 143.2 215.381 142.722C214.333 142.377 213.309 143.096 213.081 144.129C213.052 144.26 213.037 144.393 213.033 144.527C212.333 145.526 211.926 146.981 211.895 147.889C211.892 147.976 211.973 149.014 212.026 149.543C211.886 149.128 211.745 148.716 211.607 148.281C211.403 147.657 211.207 146.991 211.014 146.347C210.926 146.009 210.837 145.668 210.747 145.324C210.649 144.978 210.598 144.637 210.52 144.288C210.417 143.775 210.337 143.241 210.256 142.708C210.904 142.538 212.796 142.007 213.57 141.392C214.369 140.757 215.211 139.725 215.184 138.645C215.158 137.587 214.29 136.686 213.196 136.824C211.677 137.015 210.399 139.462 210.145 140.806C210.137 140.85 210.113 141.139 210.088 141.483C210.025 140.96 209.959 140.438 209.913 139.906C209.78 138.397 209.692 136.855 209.596 135.311C209.576 134.989 209.552 134.668 209.531 134.346C210.077 134.206 212.132 133.649 212.942 133.004C213.741 132.368 214.583 131.337 214.556 130.257C214.53 129.199 213.662 128.298 212.568 128.436C211.049 128.627 209.771 131.074 209.518 132.418C209.509 132.466 209.481 132.812 209.453 133.199C209.389 132.361 209.315 131.526 209.216 130.7C209.044 129.255 208.797 127.841 208.449 126.49C208.642 126.442 211.064 125.838 211.966 125.121C212.765 124.486 213.607 123.454 213.58 122.374C213.554 121.316 212.686 120.415 211.592 120.553C210.073 120.744 208.795 123.191 208.542 124.535C208.524 124.63 208.432 125.882 208.414 126.33C208.41 126.314 208.407 126.297 208.403 126.281C208.025 124.866 207.489 123.563 206.921 122.351C206.356 121.141 205.721 120.05 205.111 119.062C204.503 118.071 203.886 117.203 203.333 116.438C203.031 116.027 202.746 115.655 202.477 115.312C202.483 115.312 202.51 115.314 202.51 115.314C202.538 115.316 202.083 113.513 202.041 113.402C201.557 112.123 199.871 109.937 198.342 110.014C197.241 110.069 196.543 111.108 196.702 112.154C196.865 113.222 197.873 114.091 198.771 114.577C199.691 115.075 201.85 115.265 202.386 115.305C202.658 115.667 202.945 116.057 203.252 116.495C203.786 117.27 204.383 118.149 204.967 119.148C205.123 119.414 205.281 119.706 205.438 119.987C205.074 119.569 204.567 119.003 204.512 118.953C203.494 118.041 200.99 116.878 199.668 117.65C198.716 118.206 198.575 119.45 199.198 120.305C199.834 121.178 201.13 121.485 202.151 121.502C203.216 121.52 205.266 120.667 205.712 120.475C206.051 121.102 206.385 121.754 206.694 122.454C207.229 123.661 207.736 124.976 208.077 126.378C208.033 126.398 208.041 126.394 207.997 126.414C207.708 125.987 207.082 125.106 207.022 125.039C206.11 124.021 203.749 122.589 202.351 123.212C201.344 123.66 201.067 124.881 201.593 125.799C202.13 126.737 203.384 127.184 204.397 127.314C205.564 127.464 208.04 126.688 208.133 126.659C208.436 127.971 208.646 129.341 208.782 130.746C208.882 131.763 208.941 132.798 208.991 133.837C208.796 133.532 207.975 132.374 207.906 132.297C206.994 131.279 204.633 129.848 203.235 130.47C202.227 130.918 201.951 132.139 202.477 133.057C203.014 133.995 204.268 134.442 205.28 134.572C206.419 134.718 208.795 133.986 208.995 133.923C209.018 134.395 209.042 134.866 209.06 135.339C209.122 136.883 209.176 138.431 209.277 139.957C209.312 140.486 209.366 141.005 209.417 141.526C209.111 141.078 208.539 140.274 208.482 140.21C207.57 139.192 205.209 137.761 203.81 138.383C202.802 138.832 202.526 140.052 203.052 140.97C203.586 141.904 204.84 142.351 205.853 142.481Z" fill="#12374F"/>
<path d="M164.609 87.5039C164.898 89.3529 165.826 91.0479 167.181 92.3919C169.139 94.3339 170.353 97.0229 170.353 99.9999C170.353 106.336 164.864 111.39 158.382 110.666C153.654 110.138 149.743 106.413 149.016 101.711C148.44 97.9839 149.785 94.5519 152.211 92.2409C153.532 90.9819 154.33 89.2949 154.611 87.5039H127.201V115.519C129.174 115.317 131.057 114.493 132.431 113.051C134.742 110.626 138.174 109.28 141.901 109.856C146.602 110.583 150.328 114.494 150.856 119.222C151.58 125.704 146.526 131.193 140.19 131.193C137.214 131.193 134.524 129.979 132.582 128.021C131.12 126.547 129.242 125.571 127.2 125.384V153.412H192.036V87.5039H164.609Z" fill="#12374F"/>
<path d="M192.036 153.912H127.199C126.923 153.912 126.699 153.688 126.699 153.412V125.384C126.699 125.243 126.759 125.11 126.862 125.015C126.966 124.919 127.103 124.876 127.245 124.886C129.323 125.077 131.345 126.066 132.935 127.669C134.871 129.619 137.446 130.692 140.188 130.692C143.096 130.692 145.877 129.448 147.819 127.278C149.786 125.079 150.688 122.237 150.357 119.276C149.856 114.791 146.266 111.036 141.823 110.349C138.426 109.826 135.136 110.934 132.792 113.394C131.394 114.862 129.426 115.792 127.25 116.015C127.11 116.029 126.969 115.983 126.864 115.889C126.759 115.794 126.699 115.66 126.699 115.518V87.5029C126.699 87.2269 126.923 87.0029 127.199 87.0029H154.609C154.755 87.0029 154.894 87.0669 154.989 87.1779C155.084 87.2889 155.126 87.4369 155.103 87.5799C154.789 89.5749 153.909 91.311 152.554 92.601C150.094 94.945 148.984 98.2369 149.509 101.632C150.196 106.075 153.95 109.665 158.436 110.166C161.396 110.497 164.239 109.596 166.438 107.629C168.608 105.688 169.852 102.906 169.852 99.9969C169.852 97.2549 168.778 94.6789 166.828 92.7439C165.353 91.2809 164.415 89.4949 164.115 87.5789C164.093 87.4339 164.135 87.2879 164.229 87.1769C164.324 87.0659 164.462 87.002 164.609 87.002H192.036C192.312 87.002 192.536 87.226 192.536 87.502V153.41C192.536 153.689 192.313 153.912 192.036 153.912ZM127.699 152.912H191.536V88.0039H165.217C165.568 89.4889 166.361 90.8739 167.533 92.0369C169.674 94.1599 170.852 96.9879 170.852 99.9989C170.852 103.192 169.486 106.245 167.104 108.376C164.69 110.535 161.571 111.524 158.325 111.162C153.399 110.611 149.276 106.668 148.521 101.786C147.946 98.0619 149.164 94.4509 151.865 91.8779C152.927 90.8659 153.66 89.5359 154.005 88.0039H127.699V114.947C129.416 114.661 130.952 113.876 132.067 112.705C134.641 110.006 138.255 108.787 141.975 109.361C146.857 110.116 150.8 114.239 151.351 119.165C151.713 122.413 150.723 125.531 148.564 127.945C146.433 130.327 143.38 131.692 140.188 131.692C137.177 131.692 134.35 130.513 132.226 128.374C130.941 127.078 129.351 126.231 127.699 125.953V152.912Z" fill="#12374F"/>
<path d="M192.036 21.5959H127.2V49.6109C129.173 49.4089 131.056 48.5849 132.43 47.1429C134.741 44.7179 138.173 43.3719 141.9 43.9479C146.601 44.6749 150.327 48.5859 150.855 53.3139C151.579 59.7959 146.526 65.2859 140.189 65.2859C137.213 65.2859 134.523 64.072 132.581 62.114C131.119 60.64 129.241 59.6639 127.2 59.4769V87.5049H154.61C154.329 89.2959 153.531 90.9829 152.21 92.2419C149.785 94.5529 148.439 97.9849 149.015 101.712C149.742 106.413 153.653 110.138 158.381 110.667C164.863 111.391 170.352 106.337 170.352 100.001C170.352 97.0249 169.138 94.3349 167.18 92.3929C165.826 91.0499 164.898 89.3539 164.608 87.5049H192.035V21.5959H192.036Z" fill="#1E90FF"/>
<path d="M159.636 111.235C159.202 111.235 158.765 111.21 158.326 111.162C153.4 110.611 149.277 106.668 148.522 101.786C147.947 98.062 149.165 94.451 151.866 91.878C152.928 90.866 153.661 89.536 154.006 88.004H127.2C126.924 88.004 126.7 87.78 126.7 87.504V59.476C126.7 59.335 126.76 59.202 126.863 59.107C126.967 59.011 127.104 58.971 127.246 58.978C129.324 59.169 131.346 60.158 132.936 61.761C134.872 63.711 137.447 64.784 140.189 64.784C143.098 64.784 145.879 63.54 147.821 61.37C149.788 59.17 150.689 56.328 150.358 53.368C149.857 48.883 146.267 45.128 141.824 44.441C138.432 43.919 135.137 45.026 132.793 47.486C131.395 48.954 129.427 49.884 127.251 50.107C127.111 50.124 126.97 50.076 126.865 49.981C126.76 49.886 126.7 49.752 126.7 49.61V21.595C126.7 21.319 126.924 21.095 127.2 21.095H192.037C192.313 21.095 192.537 21.319 192.537 21.595V87.503C192.537 87.779 192.313 88.003 192.037 88.003H165.218C165.569 89.488 166.362 90.873 167.534 92.036C169.675 94.159 170.853 96.987 170.853 99.998C170.853 103.191 169.487 106.244 167.105 108.375C165.018 110.243 162.404 111.235 159.636 111.235ZM127.699 87.004H154.609C154.755 87.004 154.894 87.068 154.989 87.179C155.084 87.29 155.126 87.438 155.103 87.581C154.789 89.576 153.909 91.312 152.554 92.602C150.094 94.946 148.984 98.238 149.509 101.633C150.196 106.076 153.95 109.666 158.436 110.167C161.396 110.498 164.239 109.597 166.438 107.63C168.608 105.689 169.852 102.907 169.852 99.998C169.852 97.256 168.778 94.68 166.828 92.745C165.353 91.282 164.415 89.496 164.115 87.58C164.093 87.435 164.135 87.289 164.229 87.178C164.324 87.067 164.462 87.003 164.609 87.003H191.536V22.095H127.699V49.038C129.416 48.752 130.952 47.967 132.067 46.796C134.641 44.097 138.255 42.877 141.975 43.452C146.857 44.207 150.8 48.33 151.351 53.256C151.714 56.503 150.724 59.621 148.565 62.035C146.434 64.417 143.381 65.783 140.188 65.783C137.177 65.783 134.35 64.604 132.226 62.465C130.941 61.169 129.351 60.322 127.699 60.044V87.004Z" fill="#12374F"/>
<path d="M150.854 119.221C150.326 114.493 146.601 110.582 141.899 109.855C138.172 109.279 134.74 110.624 132.429 113.05C131.055 114.492 129.172 115.317 127.199 115.518V87.5029H99.772C100.061 89.3519 100.989 91.0469 102.344 92.3909C104.302 94.3329 105.516 97.0219 105.516 99.9989C105.516 106.335 100.027 111.389 93.545 110.665C88.817 110.137 84.906 106.412 84.179 101.71C83.603 97.9829 84.948 94.5509 87.374 92.2399C88.695 90.9809 89.493 89.2939 89.774 87.5029H62.364V153.411H127.2V125.383C129.242 125.571 131.119 126.546 132.582 128.02C134.524 129.978 137.213 131.192 140.19 131.192C146.525 131.193 151.578 125.703 150.854 119.221Z" fill="#B2B2B2"/>
<path d="M127.199 153.912H62.363C62.087 153.912 61.863 153.688 61.863 153.412V87.5039C61.863 87.2279 62.087 87.0039 62.363 87.0039H89.773C89.919 87.0039 90.058 87.0679 90.153 87.1789C90.248 87.2899 90.29 87.4379 90.267 87.5809C89.954 89.5749 89.072 91.3109 87.717 92.6019C85.257 94.9469 84.148 98.2389 84.672 101.633C85.358 106.076 89.113 109.666 93.6 110.167C96.56 110.498 99.402 109.597 101.601 107.63C103.771 105.69 105.015 102.907 105.015 99.9979C105.015 97.2549 103.942 94.6799 101.992 92.7449C100.517 91.2819 99.579 89.4959 99.278 87.5799C99.256 87.4359 99.298 87.2889 99.392 87.1779C99.487 87.0669 99.625 87.0029 99.772 87.0029H127.199C127.475 87.0029 127.699 87.2269 127.699 87.5029V114.946C129.416 114.66 130.952 113.875 132.067 112.704C134.641 110.005 138.255 108.786 141.975 109.36C146.857 110.115 150.8 114.238 151.351 119.164C151.713 122.412 150.723 125.53 148.564 127.944C146.433 130.326 143.38 131.691 140.188 131.691C137.177 131.691 134.35 130.512 132.226 128.373C130.941 127.077 129.351 126.23 127.699 125.952V153.411C127.699 153.689 127.476 153.912 127.199 153.912ZM62.863 152.912H126.699V125.384C126.699 125.243 126.759 125.11 126.862 125.015C126.966 124.919 127.103 124.876 127.245 124.886C129.323 125.077 131.345 126.066 132.935 127.669C134.871 129.619 137.446 130.692 140.188 130.692C143.096 130.692 145.877 129.448 147.819 127.278C149.786 125.079 150.688 122.237 150.357 119.276C149.856 114.791 146.266 111.036 141.823 110.349C138.426 109.826 135.136 110.934 132.792 113.394C131.394 114.862 129.426 115.792 127.25 116.015C127.11 116.029 126.969 115.983 126.864 115.889C126.759 115.794 126.699 115.66 126.699 115.518V88.0029H100.38C100.732 89.4879 101.525 90.8729 102.697 92.0359C104.837 94.1589 106.015 96.9859 106.015 99.9979C106.015 103.191 104.649 106.245 102.267 108.375C99.853 110.535 96.733 111.524 93.489 111.161C88.562 110.61 84.439 106.668 83.684 101.785C83.109 98.0619 84.327 94.451 87.028 91.877C88.091 90.865 88.824 89.5339 89.169 88.0029H62.863V152.912Z" fill="#12374F"/>
<path d="M52.214 64.7749H23.125L21.55 143.959H28.602L37.669 83.7649L46.737 143.959H53.789L52.214 64.7749Z" fill="#12374F"/>
<path d="M53.789 144.459H46.736C46.489 144.459 46.278 144.278 46.242 144.033L37.67 87.1219L29.097 144.033C29.061 144.278 28.85 144.459 28.603 144.459H21.55C21.415 144.459 21.287 144.405 21.193 144.309C21.099 144.213 21.048 144.083 21.05 143.95L22.625 64.7659C22.631 64.4939 22.852 64.2759 23.125 64.2759H52.214C52.486 64.2759 52.708 64.4939 52.714 64.7659L54.289 143.95C54.292 144.084 54.24 144.214 54.146 144.309C54.052 144.405 53.924 144.459 53.789 144.459ZM47.167 143.459H53.279L51.723 65.2749H23.615L22.059 143.459H28.171L37.175 83.6909C37.211 83.4459 37.422 83.2649 37.669 83.2649C37.916 83.2649 38.127 83.4459 38.163 83.6909L47.167 143.459Z" fill="#12374F"/>
<path d="M55.804 27.0549L63.656 39.7459L78.07 32.8519L81.413 35.1499L59.896 54.5769L54.674 46.8479L55.804 27.0549Z" fill="#1E90FF"/>
<path d="M59.896 55.0769C59.875 55.0769 59.856 55.0759 59.835 55.0729C59.692 55.0549 59.563 54.9769 59.481 54.8569L54.258 47.1279C54.196 47.0369 54.166 46.9289 54.173 46.8189L55.303 27.0259C55.316 26.8079 55.467 26.624 55.679 26.57C55.888 26.513 56.113 26.6039 56.227 26.7919L63.844 39.101L77.853 32.4009C78.015 32.3259 78.205 32.3379 78.352 32.4399L81.695 34.7379C81.821 34.8249 81.901 34.9649 81.911 35.1169C81.921 35.2699 81.86 35.4189 81.747 35.5209L60.23 54.9489C60.14 55.0309 60.019 55.0769 59.896 55.0769ZM55.183 46.708L59.989 53.82L80.609 35.2029L78.026 33.428L63.873 40.1969C63.644 40.3049 63.367 40.2269 63.232 40.0089L56.214 28.6669L55.183 46.708Z" fill="#12374F"/>
<path d="M42.856 21.927L37.7 23.015L32.545 21.927L19.597 27.055L23.125 64.775H52.275L55.804 27.055L42.856 21.927Z" fill="#1E90FF"/>
<path d="M52.275 65.275H23.125C22.867 65.275 22.651 65.079 22.627 64.822L19.099 27.101C19.078 26.879 19.206 26.671 19.412 26.589L32.36 21.461C32.453 21.425 32.551 21.417 32.648 21.437L37.7 22.503L42.752 21.437C42.849 21.417 42.947 21.425 43.04 21.461L55.988 26.589C56.194 26.671 56.322 26.879 56.302 27.101L52.774 64.822C52.749 65.079 52.533 65.275 52.275 65.275ZM23.58 64.275H51.82L55.27 27.381L42.811 22.446L37.803 23.503C37.735 23.517 37.664 23.517 37.596 23.503L32.588 22.446L20.129 27.381L23.58 64.275Z" fill="#12374F"/>
<path d="M34.487 29.7608L36.591 34.9669L34.93 57.4279L37.588 62.3018L40.689 57.2068L38.142 35.1888L40.357 30.6469L37.467 26.4338L34.487 29.7608Z" fill="#12374F"/>
<path d="M37.588 62.8019C37.584 62.8019 37.58 62.8019 37.576 62.8019C37.397 62.7979 37.234 62.6979 37.149 62.5409L34.491 57.6679C34.444 57.5839 34.424 57.4869 34.431 57.3919L36.084 35.0459L34.022 29.9479C33.951 29.7709 33.986 29.5689 34.114 29.4269L37.094 26.0999C37.197 25.9869 37.35 25.9229 37.498 25.9349C37.651 25.9449 37.791 26.0249 37.878 26.1509L40.768 30.3649C40.87 30.5129 40.884 30.7059 40.805 30.8669L38.655 35.2769L41.186 57.1499C41.199 57.2599 41.174 57.3729 41.116 57.4669L38.014 62.5619C37.924 62.7109 37.762 62.8019 37.588 62.8019ZM35.439 57.3179L37.611 61.2999L40.173 57.0929L37.645 35.2449C37.634 35.1499 37.651 35.0539 37.693 34.9689L39.78 30.6899L37.415 27.2409L35.067 29.8619L37.055 34.7789C37.083 34.8499 37.095 34.9259 37.09 35.0039L35.439 57.3179Z" fill="#12374F"/>
<path d="M42.716 21.9269L37.552 28.4539L32.711 21.9269V16.0469H42.716V21.9269Z" fill="white"/>
<path d="M37.552 28.9529C37.549 28.9529 37.547 28.9529 37.544 28.9529C37.389 28.9499 37.243 28.8759 37.151 28.7509L32.311 22.2249C32.247 22.1389 32.212 22.0349 32.212 21.9269V16.0469C32.212 15.7709 32.436 15.5469 32.712 15.5469H42.716C42.992 15.5469 43.216 15.7709 43.216 16.0469V21.9269C43.216 22.0389 43.178 22.1489 43.109 22.2379L37.945 28.7639C37.849 28.8839 37.704 28.9529 37.552 28.9529ZM33.212 21.7619L37.565 27.6309L42.216 21.7529V16.5469H33.212V21.7619Z" fill="#12374F"/>
<path d="M32.161 21.0109L30.785 22.7039L32.339 32.3389L37.552 28.4539L43.217 32.1829L44.149 22.7039L42.794 21.3429L37.467 26.4339L32.161 21.0109Z" fill="#1E90FF"/>
<path d="M32.339 32.8389C32.275 32.8389 32.212 32.8269 32.151 32.8019C31.989 32.7369 31.873 32.5909 31.845 32.4189L30.291 22.7839C30.268 22.6419 30.307 22.4989 30.396 22.3879L31.772 20.6949C31.862 20.5849 31.995 20.5169 32.136 20.5109C32.285 20.4939 32.417 20.5579 32.517 20.6599L37.477 25.7289L42.447 20.9809C42.643 20.7929 42.955 20.7959 43.147 20.9899L44.503 22.3499C44.608 22.4549 44.661 22.6029 44.647 22.7509L43.714 32.2299C43.696 32.4049 43.589 32.5569 43.431 32.6319C43.273 32.7069 43.086 32.6949 42.941 32.5989L37.569 29.0609L32.637 32.7369C32.55 32.8049 32.445 32.8389 32.339 32.8389ZM31.314 22.8459L32.701 31.4459L37.253 28.0519C37.423 27.9279 37.651 27.9199 37.827 28.0349L42.8 31.3099L43.629 22.8889L42.785 22.0429L37.812 26.7939C37.614 26.9849 37.3 26.9799 37.109 26.7819L32.195 21.7599L31.314 22.8459Z" fill="#12374F"/>
<path d="M21.55 143.959C21.55 143.959 18.56 153.198 19.004 153.346C19.448 153.494 29.07 153.346 29.07 153.346L28.602 143.959H21.55Z" fill="white"/>
<path d="M22.131 153.913C20.35 153.913 19.05 153.889 18.846 153.82C18.316 153.643 17.931 153.516 21.074 143.804C21.14 143.598 21.333 143.458 21.55 143.458H28.603C28.87 143.458 29.089 143.667 29.102 143.934L29.57 153.321C29.577 153.456 29.529 153.589 29.436 153.687C29.343 153.786 29.214 153.843 29.079 153.845C26.735 153.882 24.13 153.913 22.131 153.913ZM19.488 152.894C20.791 152.94 25.358 152.9 28.545 152.854L28.127 144.46H21.914C20.791 147.949 19.685 151.714 19.488 152.894Z" fill="#12374F"/>
<path d="M53.91 143.959C53.91 143.959 56.9 153.198 56.456 153.346C56.012 153.494 46.39 153.346 46.39 153.346L46.858 143.959H53.91Z" fill="white"/>
<path d="M53.335 153.913C51.335 153.913 48.727 153.882 46.383 153.846C46.247 153.844 46.118 153.786 46.026 153.688C45.934 153.59 45.885 153.457 45.892 153.322L46.36 143.935C46.373 143.668 46.592 143.459 46.859 143.459H53.911C54.128 143.459 54.32 143.599 54.386 143.805C57.53 153.517 57.145 153.644 56.614 153.821C56.41 153.889 55.112 153.913 53.335 153.913ZM46.916 152.853C50.08 152.898 54.608 152.937 55.971 152.886C55.773 151.701 54.667 147.944 53.546 144.458H47.334L46.916 152.853Z" fill="#12374F"/>
<path d="M48.255 4.28589C48.255 4.28589 50.703 5.58489 50.916 7.16989C51.129 8.75489 48.095 11.9459 48.095 11.9459L48.209 6.24289L48.255 4.28589Z" fill="#12374F"/>
<path d="M48.096 12.4459C48.032 12.4459 47.967 12.4329 47.906 12.4089C47.716 12.3299 47.593 12.1419 47.596 11.9359L47.755 4.27389C47.759 4.10089 47.853 3.94191 48.002 3.85391C48.151 3.76691 48.335 3.7619 48.489 3.8439C48.762 3.9889 51.171 5.31491 51.412 7.10391C51.65 8.87591 48.785 11.9459 48.458 12.2899C48.361 12.3929 48.229 12.4459 48.096 12.4459ZM48.734 5.17291L48.623 10.5859C49.571 9.4199 50.521 7.9769 50.422 7.2369C50.316 6.4549 49.446 5.67391 48.734 5.17291Z" fill="#12374F"/>
<path d="M45.712 2.04299C46.763 2.51399 47.66 3.23098 48.255 4.28698C49.767 6.96898 48.525 9.90898 47.844 12.74C47.458 14.345 45.411 23.065 43.884 23.645C42.357 24.226 40.385 23.897 38.548 22.757C36.711 21.617 33.617 18.718 32.959 17.655C32.302 16.593 32.879 13.118 32.88 13.112C32.953 12.675 32.462 11.744 32.377 11.293C32.189 10.292 32.057 9.225 32.142 8.208C32.43 4.754 34.847 2.08799 38.248 1.52599C40.581 1.14099 43.514 1.05799 45.712 2.04299Z" fill="white"/>
<path d="M42.264 24.43C40.991 24.43 39.611 24.005 38.285 23.182C36.369 21.994 33.222 19.031 32.535 17.918C31.823 16.769 32.287 13.647 32.387 13.033C32.409 12.879 32.224 12.387 32.124 12.123C32.018 11.841 31.922 11.575 31.887 11.386C31.646 10.101 31.57 9.07799 31.646 8.16599C31.952 4.49299 34.573 1.627 38.168 1.033C39.944 0.739999 43.314 0.419015 45.917 1.58702C47.152 2.14002 48.086 2.96499 48.691 4.04099C50.054 6.45699 49.364 9.00002 48.697 11.459C48.57 11.927 48.443 12.393 48.332 12.856L48.29 13.029C45.788 23.456 44.535 23.932 44.063 24.112C43.503 24.325 42.896 24.43 42.264 24.43ZM41.394 1.757C40.203 1.757 39.106 1.892 38.33 2.02C35.145 2.546 32.912 4.99201 32.641 8.25001C32.573 9.06901 32.645 10.007 32.869 11.201C32.897 11.347 32.977 11.552 33.06 11.771C33.248 12.271 33.442 12.788 33.373 13.194C33.111 14.798 33.026 16.814 33.384 17.392C34.008 18.399 37.027 21.224 38.812 22.331C40.504 23.383 42.336 23.698 43.708 23.176C43.914 23.098 45.054 22.231 47.317 12.795L47.359 12.621C47.473 12.148 47.602 11.673 47.731 11.195C48.375 8.82702 48.982 6.59102 47.82 4.53102C47.321 3.64502 46.544 2.962 45.509 2.498C44.245 1.934 42.759 1.757 41.394 1.757Z" fill="#12374F"/>
<path d="M46.449 1.77802C46.449 1.77802 49.001 2.918 48.963 4.581C48.925 6.244 46.779 7.675 42.236 7.754C37.693 7.833 37.016 7.60102 37.016 7.60102C37.016 7.60102 38.467 8.91499 37.79 9.39899C37.113 9.88299 36.166 10.56 36.166 10.56L36.031 12.803C36.031 12.803 34.775 13.905 34.697 12.939C34.619 11.972 34.348 10.735 34.02 10.561C33.691 10.387 32.377 11.295 32.377 11.295C32.377 11.295 32.221 8.47399 32.859 6.07599C33.496 3.67799 34.572 2.74402 38.248 1.52802C41.924 0.310017 46.449 1.77802 46.449 1.77802Z" fill="#12374F"/>
<path d="M35.021 13.8319C34.917 13.8319 34.812 13.8149 34.712 13.7739C34.539 13.7039 34.241 13.5059 34.198 12.9759C34.129 12.1159 33.935 11.3589 33.797 11.0669C33.548 11.1569 33.065 11.4239 32.66 11.7039C32.512 11.8069 32.317 11.8219 32.156 11.7419C31.993 11.6619 31.886 11.5009 31.877 11.3199C31.87 11.2019 31.725 8.39095 32.374 5.94595C33.062 3.35995 34.29 2.30793 38.09 1.05093C41.878 -0.205074 46.411 1.23893 46.603 1.30093C46.62 1.30693 46.636 1.31295 46.653 1.32095C46.769 1.37295 49.507 2.61994 49.463 4.59194C49.424 6.30194 47.507 8.16192 42.245 8.25292C40.26 8.28892 38.996 8.26392 38.194 8.22292C38.364 8.50492 38.485 8.81393 38.467 9.10793C38.451 9.38993 38.314 9.63792 38.08 9.80492L36.649 10.8269L36.529 12.8319C36.521 12.9649 36.46 13.0899 36.36 13.1779C36.114 13.3939 35.549 13.8319 35.021 13.8319ZM33.931 10.0349C34.101 10.0349 34.196 10.0849 34.254 10.1159C34.908 10.4629 35.124 12.1119 35.186 12.7769C35.291 12.7249 35.421 12.6419 35.545 12.5499L35.667 10.5269C35.676 10.3769 35.753 10.2379 35.875 10.1499L37.499 8.98992C37.478 8.87092 37.095 8.34693 36.68 7.96893C36.504 7.80993 36.465 7.54893 36.585 7.34493C36.707 7.13993 36.953 7.04894 37.178 7.12594C37.189 7.12694 37.994 7.32394 42.228 7.25094C46.787 7.17294 48.436 5.75594 48.463 4.56594C48.487 3.49494 46.913 2.53894 46.271 2.24294C45.909 2.13294 41.742 0.893924 38.406 1.99892C34.705 3.22392 33.895 4.12192 33.343 6.20092C32.944 7.70192 32.867 9.39992 32.863 10.3989C33.388 10.1129 33.719 10.0349 33.931 10.0349Z" fill="#12374F"/>
<path d="M43.07 17.7869L44.617 17.8059L44.229 13.6879L44.905 11.7739" fill="white"/>
<path d="M44.617 18.056H44.614L43.067 18.037C42.929 18.035 42.818 17.922 42.82 17.784C42.822 17.647 42.933 17.537 43.07 17.537H43.073L44.342 17.553L43.981 13.711C43.978 13.675 43.982 13.639 43.995 13.605L44.671 11.691C44.716 11.561 44.86 11.491 44.989 11.539C45.12 11.585 45.187 11.728 45.141 11.857L44.484 13.719L44.867 17.782C44.874 17.852 44.849 17.923 44.802 17.974C44.754 18.026 44.686 18.056 44.617 18.056Z" fill="#12374F"/>
<path d="M45.495 13.2429C45.405 13.7879 45.539 14.2639 45.795 14.3059C46.051 14.3489 46.332 13.9419 46.423 13.3969C46.514 12.8519 46.379 12.3759 46.123 12.3339C45.867 12.2909 45.586 12.6979 45.495 13.2429Z" fill="#12374F"/>
<path d="M41.348 13.09C41.258 13.635 41.392 14.111 41.648 14.153C41.904 14.196 42.185 13.789 42.276 13.244C42.367 12.699 42.232 12.223 41.976 12.181C41.72 12.139 41.439 12.545 41.348 13.09Z" fill="#12374F"/>
<path d="M43.806 19.1019C43.806 19.1019 42.144 20.4939 39.9 18.2139Z" fill="white"/>
<path d="M42.471 19.7659C41.737 19.7659 40.782 19.4659 39.721 18.3889C39.624 18.2899 39.626 18.1319 39.724 18.0349C39.823 17.9389 39.98 17.9399 40.078 18.0379C42.119 20.1139 43.584 18.9589 43.646 18.9099C43.752 18.8219 43.909 18.8379 43.998 18.9429C44.085 19.0489 44.071 19.2059 43.966 19.2939C43.956 19.3019 43.384 19.7659 42.471 19.7659Z" fill="#12374F"/>
<path d="M47.109 11.4249C47.109 11.4249 46.683 10.4009 45.504 11.0389Z" fill="white"/>
<path d="M47.109 11.675C47.011 11.675 46.919 11.617 46.879 11.523C46.873 11.509 46.739 11.217 46.446 11.117C46.22 11.038 45.944 11.087 45.623 11.26C45.501 11.326 45.35 11.28 45.284 11.159C45.219 11.038 45.263 10.886 45.385 10.82C45.837 10.576 46.254 10.518 46.617 10.647C47.126 10.827 47.332 11.309 47.34 11.33C47.394 11.457 47.333 11.603 47.205 11.656C47.174 11.669 47.142 11.675 47.109 11.675Z" fill="#12374F"/>
<path d="M43.262 10.904C43.262 10.904 41.406 9.87997 40.188 11.466Z" fill="white"/>
<path d="M40.188 11.7159C40.134 11.7159 40.082 11.6989 40.036 11.6639C39.927 11.5799 39.906 11.4229 39.99 11.3129C41.324 9.57692 43.363 10.6729 43.383 10.6849C43.503 10.7519 43.547 10.9029 43.481 11.0239C43.416 11.1439 43.2641 11.1929 43.1421 11.1229C43.0741 11.0869 41.455 10.2249 40.386 11.6179C40.337 11.6829 40.263 11.7159 40.188 11.7159Z" fill="#12374F"/>
<path d="M35.14 14.488C35.14 14.488 35.865 10.935 34.02 10.559C32.176 10.183 32.377 11.293 32.219 12.948C32.025 14.968 33.499 15.661 33.499 15.661" fill="white"/>
<path d="M33.497 16.1599C33.427 16.1599 33.354 16.1439 33.286 16.1119C33.213 16.0779 31.497 15.2439 31.721 12.8999C31.741 12.6899 31.755 12.488 31.769 12.298C31.83 11.434 31.882 10.6879 32.436 10.2669C32.82 9.97494 33.356 9.91395 34.121 10.0689C35.964 10.4459 35.936 13.087 35.631 14.588C35.575 14.859 35.314 15.032 35.041 14.979C34.77 14.923 34.596 14.66 34.65 14.389C34.811 13.594 35.022 11.2749 33.921 11.0499C33.333 10.9289 33.117 11.0079 33.042 11.0649C32.849 11.2109 32.81 11.7739 32.768 12.3699C32.753 12.5679 32.739 12.7779 32.718 12.9979C32.562 14.6219 33.67 15.188 33.717 15.212C33.963 15.333 34.068 15.6309 33.949 15.8779C33.861 16.0549 33.684 16.1599 33.497 16.1599Z" fill="#12374F"/>
<path d="M140.031 41.943C139.503 37.215 135.777 33.304 131.076 32.577C127.349 32.001 123.917 33.346 121.606 35.772C120.232 37.214 118.349 38.039 116.376 38.24V10.225H88.98C89.301 12.002 90.212 13.629 91.521 14.928C93.479 16.87 94.693 19.559 94.693 22.536C94.693 28.872 89.204 33.926 82.722 33.202C77.994 32.674 74.083 28.949 73.356 24.247C72.78 20.52 74.125 17.088 76.551 14.777C77.827 13.561 78.619 11.948 78.925 10.225H51.54V76.133H78.95C78.669 77.924 77.871 79.611 76.55 80.87C74.125 83.181 72.779 86.613 73.355 90.34C74.082 95.041 77.993 98.766 82.721 99.295C89.203 100.019 94.692 94.965 94.692 88.629C94.692 85.653 93.478 82.963 91.52 81.021C90.166 79.678 89.238 77.982 88.948 76.133H116.375V48.105C118.417 48.293 120.294 49.268 121.756 50.742C123.698 52.7 126.387 53.914 129.364 53.914C135.701 53.914 140.755 48.425 140.031 41.943Z" fill="white"/>
<path d="M83.976 99.865C83.542 99.865 83.106 99.841 82.666 99.792C77.739 99.241 73.616 95.299 72.861 90.416C72.286 86.693 73.505 83.082 76.205 80.508C77.268 79.496 78.001 78.165 78.346 76.633H51.54C51.264 76.633 51.04 76.409 51.04 76.133V10.226C51.04 9.94998 51.264 9.72598 51.54 9.72598H78.924C79.072 9.72598 79.212 9.79097 79.307 9.90497C79.403 10.018 79.443 10.168 79.416 10.313C79.077 12.222 78.205 13.891 76.894 15.14C74.434 17.484 73.325 20.776 73.849 24.171C74.535 28.615 78.29 32.204 82.777 32.704C85.738 33.035 88.579 32.134 90.778 30.167C92.948 28.227 94.192 25.445 94.192 22.536C94.192 19.793 93.119 17.217 91.169 15.282C89.749 13.875 88.821 12.157 88.488 10.314C88.462 10.168 88.502 10.018 88.596 9.90497C88.691 9.79097 88.831 9.72498 88.98 9.72498H116.376C116.652 9.72498 116.876 9.94898 116.876 10.225V37.668C118.593 37.382 120.129 36.597 121.244 35.426C123.818 32.726 127.431 31.507 131.152 32.082C136.034 32.837 139.977 36.96 140.528 41.886C140.89 45.133 139.901 48.251 137.742 50.665C135.611 53.047 132.558 54.413 129.365 54.413C126.353 54.413 123.525 53.234 121.402 51.093C120.117 49.799 118.527 48.952 116.876 48.674V76.132C116.876 76.408 116.652 76.632 116.376 76.632H89.557C89.909 78.118 90.702 79.503 91.874 80.666C94.014 82.789 95.192 85.616 95.192 88.628C95.192 91.82 93.826 94.874 91.445 97.004C89.357 98.872 86.744 99.865 83.976 99.865ZM52.04 75.633H78.95C79.096 75.633 79.235 75.696 79.33 75.808C79.425 75.919 79.467 76.067 79.444 76.21C79.131 78.205 78.25 79.941 76.894 81.232C74.434 83.577 73.325 86.869 73.849 90.263C74.535 94.706 78.29 98.296 82.777 98.797C85.731 99.128 88.579 98.227 90.778 96.259C92.948 94.318 94.192 91.536 94.192 88.628C94.192 85.885 93.119 83.31 91.169 81.375C89.694 79.912 88.756 78.126 88.455 76.209C88.433 76.064 88.475 75.918 88.569 75.807C88.664 75.696 88.802 75.632 88.949 75.632H115.876V48.105C115.876 47.964 115.936 47.831 116.039 47.736C116.144 47.64 116.28 47.597 116.422 47.607C118.5 47.798 120.521 48.786 122.112 50.389C124.046 52.339 126.622 53.414 129.365 53.414C132.274 53.414 135.055 52.17 136.997 50C138.964 47.8 139.865 44.958 139.534 41.998C139.033 37.513 135.443 33.758 131 33.071C127.609 32.551 124.313 33.656 121.969 36.116C120.571 37.584 118.603 38.514 116.427 38.737C116.287 38.755 116.146 38.705 116.041 38.611C115.935 38.516 115.876 38.382 115.876 38.24V10.725H89.604C89.976 12.142 90.753 13.461 91.873 14.572C94.014 16.696 95.192 19.524 95.192 22.536C95.192 25.729 93.826 28.782 91.445 30.912C89.03 33.072 85.919 34.058 82.666 33.698C77.739 33.148 73.616 29.206 72.861 24.323C72.286 20.599 73.505 16.988 76.205 14.415C77.225 13.443 77.944 12.178 78.307 10.726H52.04V75.633Z" fill="#12374F"/>
<path d="M19.597 27.0549C19.597 27.0549 17.598 38.8359 17.598 39.8579C17.598 40.8799 23.592 60.6669 23.592 60.6669L46.994 74.2719L48.834 69.3649L30.856 51.95L27.617 34.7459" fill="#1E90FF"/>
<path d="M46.993 74.773C46.906 74.773 46.819 74.751 46.742 74.706L23.341 61.101C23.232 61.038 23.151 60.934 23.113 60.813C22.108 57.498 17.097 40.903 17.097 39.859C17.097 38.824 18.898 28.182 19.103 26.971C19.151 26.699 19.415 26.52 19.68 26.562C19.951 26.609 20.135 26.867 20.089 27.139C19.288 31.858 18.097 39.139 18.097 39.859C18.15 40.72 21.641 52.504 24.013 60.336L46.732 73.545L48.251 69.497L30.509 52.311C30.435 52.239 30.384 52.146 30.365 52.044L27.126 34.84C27.075 34.569 27.253 34.307 27.524 34.256C27.789 34.207 28.057 34.382 28.108 34.654L31.318 51.702L49.181 69.007C49.325 69.146 49.371 69.356 49.301 69.542L47.46 74.45C47.408 74.588 47.299 74.696 47.16 74.745C47.106 74.764 47.05 74.773 46.993 74.773Z" fill="#12374F"/>
<path d="M48.834 69.366L51.801 70.079L55.401 71.729L55.101 73.079L52.701 72.779L56.302 76.08L55.102 77.73L52.402 77.43C52.402 77.43 49.852 76.83 49.402 76.68C48.952 76.53 46.995 74.273 46.995 74.273L48.834 69.366Z" fill="white"/>
<path d="M55.102 78.2289C55.083 78.2289 55.065 78.228 55.047 78.226L52.346 77.9259C52.024 77.8539 49.7 77.3069 49.242 77.1539C48.763 76.9939 47.549 75.677 46.615 74.601C46.495 74.462 46.461 74.2689 46.525 74.0969L48.366 69.1889C48.454 68.9549 48.705 68.8239 48.951 68.8779L51.918 69.592L55.609 71.2749C55.824 71.3729 55.94 71.607 55.889 71.838L55.589 73.1879C55.532 73.4399 55.289 73.6079 55.039 73.5759L54.193 73.471L56.638 75.713C56.826 75.885 56.854 76.1699 56.705 76.3749L55.505 78.0239C55.411 78.1539 55.261 78.2289 55.102 78.2289ZM47.566 74.1689C48.381 75.0949 49.332 76.0859 49.582 76.2149C49.91 76.3229 51.813 76.7779 52.516 76.9439L54.869 77.2019L55.636 76.1469L52.365 73.148C52.205 73.002 52.158 72.767 52.249 72.57C52.341 72.373 52.553 72.2539 52.765 72.2839L54.714 72.527L54.827 72.0159L51.595 70.5339L49.15 69.954L47.566 74.1689Z" fill="#12374F"/>
<path d="M78.498 31.5479L80.317 29.9099L84.684 30.5469L85.685 33.8219C85.685 33.8219 84.684 34.2769 83.956 34.1859C83.228 34.0949 81.318 32.9119 81.318 32.9119C81.318 32.9119 79.317 32.7309 78.498 31.5479Z" fill="white"/>
<path d="M84.158 34.6979C84.069 34.6979 83.98 34.693 83.894 34.682C83.157 34.589 81.636 33.6919 81.15 33.3949C80.667 33.3309 78.912 33.0229 78.087 31.8319C77.943 31.6249 77.977 31.3439 78.163 31.1749L79.982 29.5369C80.093 29.4369 80.242 29.3969 80.389 29.4139L84.756 30.0509C84.947 30.0789 85.106 30.2149 85.162 30.3999L86.162 33.6759C86.235 33.9149 86.119 34.173 85.891 34.277C85.788 34.324 84.941 34.6979 84.158 34.6979ZM79.203 31.5859C79.86 32.1559 80.943 32.3759 81.363 32.4139C81.44 32.4209 81.515 32.4459 81.581 32.4869C82.337 32.9539 83.592 33.636 84.019 33.69C84.325 33.728 84.748 33.627 85.071 33.522L84.299 30.996L80.478 30.4379L79.203 31.5859Z" fill="#12374F"/>
</svg>
